<svg xmlns="http://www.w3.org/2000/svg" xmlns:xlink="http://www.w3.org/1999/xlink" width="429.111" height="315.862" viewBox="0 0 429.111 315.862">
  <defs>
    <linearGradient id="linear-gradient" x1="0.5" x2="0.5" y2="1" gradientUnits="objectBoundingBox">
      <stop offset="0" stop-color="#fed981"/>
      <stop offset="0.522" stop-color="#ff8578"/>
      <stop offset="1" stop-color="#5263e2"/>
    </linearGradient>
    <clipPath id="clip-path">
      <rect id="Rectángulo_38519" data-name="Rectángulo 38519" width="414.779" height="292.468" fill="none"/>
    </clipPath>
    <clipPath id="clip-path-2">
      <path id="Trazado_149792" data-name="Trazado 149792" d="M132.57,22.351a15.2,15.2,0,0,0-15.2,15.2V46.53H66.2A19.39,19.39,0,0,0,46.813,65.921v47.735H41.377A29.243,29.243,0,0,0,12.134,142.9v13.6H9.216A9.216,9.216,0,0,0,0,165.715V248.38H377.859V200.206a9.88,9.88,0,0,0-9.881-9.879h-6.021V137.944A29.243,29.243,0,0,0,332.714,108.7H308.443V65.921A19.378,19.378,0,0,0,291.685,46.73V37.548a15.2,15.2,0,0,0-15.2-15.2Z" fill="none"/>
    </clipPath>
    <linearGradient id="linear-gradient-2" y1="1.195" x2="0.003" y2="1.195" gradientUnits="objectBoundingBox">
      <stop offset="0" stop-color="#f9fbfc"/>
      <stop offset="0.513" stop-color="#bee1f4"/>
      <stop offset="1" stop-color="#f9fbfc"/>
    </linearGradient>
    <clipPath id="clip-path-3">
      <path id="Trazado_149793" data-name="Trazado 149793" d="M169.491,22.351a15.2,15.2,0,0,0-15.2,15.2V46.53H92.65A19.391,19.391,0,0,0,73.26,65.921v47.735H67.825A29.243,29.243,0,0,0,38.581,142.9v13.6H35.664a9.216,9.216,0,0,0-9.216,9.217V248.38H414.779V200.206a9.88,9.88,0,0,0-9.88-9.879h-6.022V137.944A29.243,29.243,0,0,0,369.634,108.7H345.363V65.921A19.378,19.378,0,0,0,328.605,46.73V37.548a15.2,15.2,0,0,0-15.2-15.2Z" fill="none"/>
    </clipPath>
    <linearGradient id="linear-gradient-3" x1="-0.068" y1="1.195" x2="-0.066" y2="1.195" gradientUnits="objectBoundingBox">
      <stop offset="0" stop-color="#bee1f4"/>
      <stop offset="0.61" stop-color="#e4f2f9"/>
      <stop offset="1" stop-color="#f9fbfc"/>
    </linearGradient>
    <clipPath id="clip-path-4">
      <path id="Trazado_149794" data-name="Trazado 149794" d="M117.525,16.006A15.624,15.624,0,0,0,101.9,31.63v9.439A19.923,19.923,0,0,0,84.674,60.8v43.98H59.721a30.064,30.064,0,0,0-30.063,30.065V188.7H23.467a10.158,10.158,0,0,0-10.158,10.158v49.526H401.774V163.394a9.474,9.474,0,0,0-9.474-9.475h-3v-13.98a30.065,30.065,0,0,0-30.064-30.065h-5.587V60.8a19.935,19.935,0,0,0-19.935-19.934H292.107V31.63a15.624,15.624,0,0,0-15.623-15.624Z" fill="url(#linear-gradient)"/>
    </clipPath>
    <clipPath id="clip-path-6">
      <rect id="Rectángulo_38470" data-name="Rectángulo 38470" width="388.465" height="44.328" transform="translate(13.31 204.052)" fill="#d6d9ff"/>
    </clipPath>
    <clipPath id="clip-path-7">
      <path id="Trazado_149795" data-name="Trazado 149795" d="M401.775,248.38v-27.1l-33.3-14.843a27.545,27.545,0,0,0-16.6-1.853L205.725,233.746l-56.761-22.7a67.193,67.193,0,0,0-46.269-1.334L37.107,231.652l-23.8-7.445V248.38H401.775Z" fill="#d6d9ff"/>
    </clipPath>
    <clipPath id="clip-path-8">
      <rect id="Rectángulo_38471" data-name="Rectángulo 38471" width="42.061" height="17.286" transform="translate(297.81 48.821)" fill="none"/>
    </clipPath>
    <clipPath id="clip-path-9">
      <rect id="Rectángulo_38472" data-name="Rectángulo 38472" width="45.527" height="18.826" transform="translate(68.921 48.037)" fill="none"/>
    </clipPath>
    <clipPath id="clip-path-10">
      <rect id="Rectángulo_38473" data-name="Rectángulo 38473" width="75.211" height="30.91" transform="translate(102.901 83.497)" fill="none"/>
    </clipPath>
    <clipPath id="clip-path-11">
      <path id="Trazado_149799" data-name="Trazado 149799" d="M277.47,219.609,172.4,239.2a37.125,37.125,0,0,1-17.746-1.02l-12.7-3.916a134.394,134.394,0,0,0-74.3-1.412L4.524,249.722h397.25L330.658,223.96a101.548,101.548,0,0,0-53.188-4.351" fill="none"/>
    </clipPath>
    <linearGradient id="linear-gradient-5" x1="-0.011" y1="2.343" x2="-0.009" y2="2.343" gradientUnits="objectBoundingBox">
      <stop offset="0" stop-color="#878cf0"/>
      <stop offset="0.565" stop-color="#c9cbff"/>
      <stop offset="1" stop-color="#f9fbfc"/>
    </linearGradient>
    <clipPath id="clip-path-13">
      <rect id="Rectángulo_38476" data-name="Rectángulo 38476" width="2.674" height="2.674" transform="translate(158.422 64.077)" fill="none"/>
    </clipPath>
    <clipPath id="clip-path-14">
      <rect id="Rectángulo_38477" data-name="Rectángulo 38477" width="2.674" height="2.674" transform="translate(240.147 157.899)" fill="none"/>
    </clipPath>
    <clipPath id="clip-path-15">
      <rect id="Rectángulo_38478" data-name="Rectángulo 38478" width="2.674" height="2.674" transform="translate(324.448 44.146)" fill="none"/>
    </clipPath>
    <clipPath id="clip-path-16">
      <rect id="Rectángulo_38479" data-name="Rectángulo 38479" width="5.348" height="5.348" transform="translate(253.031 24.5)" fill="none"/>
    </clipPath>
    <clipPath id="clip-path-17">
      <rect id="Rectángulo_38480" data-name="Rectángulo 38480" width="5.348" height="5.348" transform="translate(212.956 146.882)" fill="none"/>
    </clipPath>
    <clipPath id="clip-path-18">
      <rect id="Rectángulo_38481" data-name="Rectángulo 38481" width="5.347" height="5.348" transform="translate(340.307 48.032)" fill="none"/>
    </clipPath>
    <clipPath id="clip-path-19">
      <rect id="Rectángulo_38482" data-name="Rectángulo 38482" width="5.348" height="5.348" transform="translate(140.506 33.908)" fill="none"/>
    </clipPath>
    <clipPath id="clip-path-20">
      <path id="Trazado_149827" data-name="Trazado 149827" d="M21.551,227.7c-12.3,1.531,4.013,15.691,4.013,30.109H36.811s0-16.28-5.537-24.927c-2-3.134-4.726-5.264-8.437-5.263a10.4,10.4,0,0,0-1.286.081" fill="none"/>
    </clipPath>
    <linearGradient id="linear-gradient-6" x1="-0.336" y1="2.148" x2="-0.299" y2="2.148" gradientUnits="objectBoundingBox">
      <stop offset="0" stop-color="#fed981"/>
      <stop offset="1" stop-color="#ffd061"/>
    </linearGradient>
    <clipPath id="clip-path-21">
      <path id="Trazado_149828" data-name="Trazado 149828" d="M30.842,200.479a8.76,8.76,0,0,0-5.722,4.13,10.33,10.33,0,0,0-.535,6.663c1.469,7.67,6.429,13.79,10.246,20.386.141.239.282.485.424.724,4.431,7.56,10.355,16.429,10.355,25.426H62.4c2.058-24.858-2.657-58.229-24.9-58.225a26.844,26.844,0,0,0-6.655.9" fill="none"/>
    </clipPath>
    <linearGradient id="linear-gradient-7" x1="-0.596" y1="1.595" x2="-0.571" y2="1.595" xlink:href="#linear-gradient-6"/>
    <clipPath id="clip-path-22">
      <path id="Trazado_149829" data-name="Trazado 149829" d="M70.01,257.808h13.8c.591-33.8,37.7-63.8,14.634-67.715a23.861,23.861,0,0,0-4-.351c-26.125,0-26.585,48.263-24.439,68.066" fill="none"/>
    </clipPath>
    <linearGradient id="linear-gradient-8" x1="-1.265" y1="1.509" x2="-1.246" y2="1.509" xlink:href="#linear-gradient-6"/>
    <clipPath id="clip-path-23">
      <path id="Trazado_149830" data-name="Trazado 149830" d="M87.605,257.808h8.764c1.844-7.037,7.874-18.45-1.155-18.456H95.2c-9.906,0-7.6,18.456-7.6,18.456" fill="none"/>
    </clipPath>
    <linearGradient id="linear-gradient-9" x1="-4.502" y1="2.878" x2="-4.45" y2="2.878" xlink:href="#linear-gradient-6"/>
    <clipPath id="clip-path-24">
      <path id="Trazado_149831" data-name="Trazado 149831" d="M105.023,257.808h8.186c.928-15.113,23.422-38.879,11.77-39.106l-.229,0c-11.532,0-19.727,17.562-19.727,39.108" fill="none"/>
    </clipPath>
    <linearGradient id="linear-gradient-10" x1="-3.323" y1="1.886" x2="-3.291" y2="1.886" xlink:href="#linear-gradient-6"/>
    <clipPath id="clip-path-26">
      <path id="Trazado_149837" data-name="Trazado 149837" d="M246.246,218.914c-16.5,2.053,5.385,21.049,5.385,40.393h15.088s0-21.842-7.428-33.443c-2.684-4.2-6.341-7.06-11.318-7.06a13.933,13.933,0,0,0-1.727.11" fill="none"/>
    </clipPath>
    <linearGradient id="linear-gradient-11" x1="-6.214" y1="1.818" x2="-6.187" y2="1.818" xlink:href="#linear-gradient-6"/>
    <clipPath id="clip-path-27">
      <path id="Trazado_149838" data-name="Trazado 149838" d="M245.756,182.4c-3.149.808-6.184,2.655-7.676,5.541-1.4,2.7-1.286,5.944-.718,8.937,1.971,10.29,8.625,18.5,13.745,27.35.189.321.379.65.569.973,5.944,10.141,13.892,22.039,13.892,34.11h22.518c2.762-33.35-3.564-78.119-33.4-78.113a35.991,35.991,0,0,0-8.929,1.2" fill="none"/>
    </clipPath>
    <linearGradient id="linear-gradient-12" x1="-4.369" y1="1.425" x2="-4.351" y2="1.425" xlink:href="#linear-gradient-6"/>
    <clipPath id="clip-path-28">
      <path id="Trazado_149839" data-name="Trazado 149839" d="M307.582,259.307H326.1c.792-45.349,50.583-85.585,19.631-90.846a31.986,31.986,0,0,0-5.362-.471c-35.049,0-35.666,64.749-32.788,91.317" fill="none"/>
    </clipPath>
    <linearGradient id="linear-gradient-13" x1="-4.233" y1="1.364" x2="-4.219" y2="1.364" xlink:href="#linear-gradient-6"/>
    <clipPath id="clip-path-29">
      <path id="Trazado_149840" data-name="Trazado 149840" d="M324.5,259.307H336.26c2.474-9.441,10.562-24.752-1.55-24.76H334.7c-13.29,0-10.194,24.76-10.194,24.76" fill="none"/>
    </clipPath>
    <linearGradient id="linear-gradient-14" x1="-12.646" y1="2.34" x2="-12.606" y2="2.34" xlink:href="#linear-gradient-6"/>
    <clipPath id="clip-path-30">
      <path id="Trazado_149841" data-name="Trazado 149841" d="M354.555,259.307h10.983c1.244-20.276,31.421-52.159,15.788-52.464-.1,0-.2,0-.306,0-15.47,0-26.465,23.561-26.465,52.467" fill="none"/>
    </clipPath>
    <linearGradient id="linear-gradient-15" x1="-8.361" y1="1.633" x2="-8.338" y2="1.633" xlink:href="#linear-gradient-6"/>
    <clipPath id="clip-path-32">
      <path id="Trazado_149845" data-name="Trazado 149845" d="M381.455,259.307h11.758c2.474-9.441,10.562-24.752-1.55-24.76h-.014c-13.29,0-10.194,24.76-10.194,24.76" fill="none"/>
    </clipPath>
    <linearGradient id="linear-gradient-16" x1="-14.887" y1="2.34" x2="-14.847" y2="2.34" xlink:href="#linear-gradient-6"/>
    <clipPath id="clip-path-34">
      <path id="Trazado_149849" data-name="Trazado 149849" d="M144.111,250.37c-2.032-12.82-4.583-19.507-5.438-19.429-.906.083-.044,7.827.369,22.387-4.173-8.646-7.605-13.292-8.078-13.094q-.8.336,5.491,17.634h25.4s5.068-18.955,3.326-19.535c-1.088-.363-4.64,7.592-7.709,15q7.83-30.141,6.02-30.729-1.739-.567-12.356,26.082.694-32.364-1.267-32.523h-.019c-1.339,0-2.522,11.613-5.735,34.213" fill="none"/>
    </clipPath>
    <linearGradient id="linear-gradient-17" x1="-3.574" y1="1.83" x2="-3.547" y2="1.83" gradientUnits="objectBoundingBox">
      <stop offset="0" stop-color="#ec727d"/>
      <stop offset="0.967" stop-color="#da3b76"/>
      <stop offset="1" stop-color="#da3b76"/>
    </linearGradient>
    <clipPath id="clip-path-36">
      <path id="Trazado_149853" data-name="Trazado 149853" d="M285.678,268.586l31.666.1.709-237.5L302.8,33.777l-16.415-2.689Z" fill="none"/>
    </clipPath>
    <linearGradient id="linear-gradient-18" x1="-8.824" y1="1.1" x2="-8.793" y2="1.1" gradientUnits="objectBoundingBox">
      <stop offset="0" stop-color="#49497c"/>
      <stop offset="1" stop-color="#251f60"/>
    </linearGradient>
    <clipPath id="clip-path-38">
      <rect id="Rectángulo_38504" data-name="Rectángulo 38504" width="3.958" height="224.951" transform="translate(287.637 37.483)" fill="none"/>
    </clipPath>
    <clipPath id="clip-path-39">
      <path id="Trazado_149854" data-name="Trazado 149854" d="M245.553,131.887c1.883.672,45.25,16.882,46.6,62.982.024.732.036,1.475.036,2.219h8.8c0-22.4-9.087-42.228-26.281-57.323-1.043-.923-2.1-1.8-3.141-2.638A88.115,88.115,0,0,0,248.515,123.6Z" fill="none"/>
    </clipPath>
    <linearGradient id="linear-gradient-19" x1="-4.429" y1="2.298" x2="-4.411" y2="2.298" xlink:href="#linear-gradient-18"/>
    <clipPath id="clip-path-41">
      <path id="Trazado_149868" data-name="Trazado 149868" d="M212.635,57.883A27.517,27.517,0,0,0,185.118,85.4v43.7a.3.3,0,0,0,.3.3h55.761a.3.3,0,0,0,.3-.3V85.4a27.517,27.517,0,0,0-27.517-27.517Z" fill="none"/>
    </clipPath>
    <clipPath id="clip-path-42">
      <rect id="Rectángulo_38511" data-name="Rectángulo 38511" width="51.673" height="36.537" transform="translate(198.877 64.945)" fill="none"/>
    </clipPath>
    <clipPath id="clip-path-44">
      <rect id="Rectángulo_38517" data-name="Rectángulo 38517" width="4.372" height="4.372" transform="translate(294.467 4.932)" fill="none"/>
    </clipPath>
    <clipPath id="clip-path-45">
      <rect id="Rectángulo_38520" data-name="Rectángulo 38520" width="143.683" height="278.593" fill="none"/>
    </clipPath>
    <clipPath id="clip-path-46">
      <path id="Trazado_149880" data-name="Trazado 149880" d="M56.354,186.433S31.952,176.841,0,204.706l66.024-6.931L99.932,143.22,64.355,129.668Z" transform="translate(0 -129.668)" fill="none"/>
    </clipPath>
    <linearGradient id="linear-gradient-20" x1="0" y1="1.985" x2="0.01" y2="1.985" xlink:href="#linear-gradient-18"/>
    <clipPath id="clip-path-48">
      <rect id="Rectángulo_38524" data-name="Rectángulo 38524" width="415.453" height="315.07" fill="none"/>
    </clipPath>
  </defs>
  <g id="Grupo_145420" data-name="Grupo 145420" transform="translate(-874 -178.776)">
    <g id="Grupo_145419" data-name="Grupo 145419">
      <g id="Grupo_145037" data-name="Grupo 145037" transform="translate(888.332 180.465)">
        <g id="Grupo_145036" data-name="Grupo 145036" clip-path="url(#clip-path)">
          <g id="Grupo_144937" data-name="Grupo 144937">
            <g id="Grupo_144936" data-name="Grupo 144936" clip-path="url(#clip-path-2)">
              <rect id="Rectángulo_38466" data-name="Rectángulo 38466" width="377.859" height="226.029" transform="translate(0 22.351)" fill="url(#linear-gradient-2)"/>
            </g>
          </g>
          <g id="Grupo_144939" data-name="Grupo 144939">
            <g id="Grupo_144938" data-name="Grupo 144938" clip-path="url(#clip-path-3)">
              <rect id="Rectángulo_38467" data-name="Rectángulo 38467" width="388.331" height="226.029" transform="translate(26.448 22.351)" fill="url(#linear-gradient-3)"/>
            </g>
          </g>
          <g id="Grupo_144941" data-name="Grupo 144941">
            <g id="Grupo_144940" data-name="Grupo 144940" clip-path="url(#clip-path-4)">
              <rect id="Rectángulo_38468" data-name="Rectángulo 38468" width="388.465" height="232.375" transform="translate(13.309 16.006)" fill="url(#linear-gradient)"/>
            </g>
          </g>
          <g id="Grupo_144957" data-name="Grupo 144957">
            <g id="Grupo_144956" data-name="Grupo 144956" clip-path="url(#clip-path)">
              <g id="Grupo_144946" data-name="Grupo 144946" style="mix-blend-mode: multiply;isolation: isolate">
                <g id="Grupo_144945" data-name="Grupo 144945">
                  <g id="Grupo_144944" data-name="Grupo 144944" clip-path="url(#clip-path-6)">
                    <g id="Grupo_144943" data-name="Grupo 144943">
                      <g id="Grupo_144942" data-name="Grupo 144942" clip-path="url(#clip-path-7)">
                        <rect id="Rectángulo_38469" data-name="Rectángulo 38469" width="388.465" height="44.912" transform="translate(13.31 203.468)" fill="#d6d9ff"/>
                      </g>
                    </g>
                  </g>
                </g>
              </g>
              <g id="Grupo_144949" data-name="Grupo 144949" style="mix-blend-mode: screen;isolation: isolate">
                <g id="Grupo_144948" data-name="Grupo 144948">
                  <g id="Grupo_144947" data-name="Grupo 144947" clip-path="url(#clip-path-8)">
                    <path id="Trazado_149796" data-name="Trazado 149796" d="M335.6,57.561H332.15a3.308,3.308,0,0,0-3.281-3.046H323.7a4.433,4.433,0,0,0,.167-1.192,4.514,4.514,0,0,0-4.5-4.5h-7.925a4.484,4.484,0,0,0-4.335,5.693h-.7a3.309,3.309,0,0,0-3.282,3.046h-1.036a4.274,4.274,0,1,0,0,8.547H335.6a4.274,4.274,0,0,0,0-8.547" fill="#1d262d"/>
                  </g>
                </g>
              </g>
              <g id="Grupo_144952" data-name="Grupo 144952" style="mix-blend-mode: screen;isolation: isolate">
                <g id="Grupo_144951" data-name="Grupo 144951">
                  <g id="Grupo_144950" data-name="Grupo 144950" clip-path="url(#clip-path-9)">
                    <path id="Trazado_149797" data-name="Trazado 149797" d="M109.794,57.388l-3.732.023a3.581,3.581,0,0,0-3.572-3.275l-5.593.035a4.854,4.854,0,0,0-4.73-6.134l-8.578.053a4.853,4.853,0,0,0-4.654,6.192l-.763,0A3.582,3.582,0,0,0,74.64,57.6l-1.122.007a4.626,4.626,0,0,0,.057,9.251l36.276-.224a4.626,4.626,0,1,0-.057-9.251" fill="#1d262d"/>
                  </g>
                </g>
              </g>
              <g id="Grupo_144955" data-name="Grupo 144955" style="mix-blend-mode: screen;isolation: isolate">
                <g id="Grupo_144954" data-name="Grupo 144954">
                  <g id="Grupo_144953" data-name="Grupo 144953" clip-path="url(#clip-path-10)">
                    <path id="Trazado_149798" data-name="Trazado 149798" d="M170.471,99.124h-6.165a5.915,5.915,0,0,0-5.868-5.446H149.2A8.019,8.019,0,0,0,141.447,83.5H127.276a8.019,8.019,0,0,0-7.751,10.181h-1.26a5.915,5.915,0,0,0-5.869,5.446h-1.853a7.641,7.641,0,1,0,0,15.282h59.928a7.641,7.641,0,1,0,0-15.282" fill="#1d262d"/>
                  </g>
                </g>
              </g>
            </g>
          </g>
          <g id="Grupo_144959" data-name="Grupo 144959">
            <g id="Grupo_144958" data-name="Grupo 144958" clip-path="url(#clip-path-11)">
              <rect id="Rectángulo_38475" data-name="Rectángulo 38475" width="397.25" height="31.833" transform="translate(4.524 217.889)" fill="url(#linear-gradient-5)"/>
            </g>
          </g>
          <g id="Grupo_144982" data-name="Grupo 144982">
            <g id="Grupo_144981" data-name="Grupo 144981" clip-path="url(#clip-path)">
              <path id="Trazado_149800" data-name="Trazado 149800" d="M218.563,277.12c0,.743-4.436,1.346-9.906,1.346s-9.9-.6-9.9-1.346,4.436-1.346,9.9-1.346,9.906.6,9.906,1.346" fill="#f4c551"/>
              <path id="Trazado_149801" data-name="Trazado 149801" d="M391.483,269.694c0,.743-4.435,1.346-9.9,1.346s-9.9-.6-9.9-1.346,4.435-1.346,9.9-1.346,9.9.6,9.9,1.346" fill="#f4c551"/>
              <path id="Trazado_149802" data-name="Trazado 149802" d="M40.063,263.511c0,.743-4.436,1.346-9.906,1.346s-9.9-.6-9.9-1.346,4.435-1.346,9.9-1.346,9.906.6,9.906,1.346" fill="#f4c551"/>
              <path id="Trazado_149803" data-name="Trazado 149803" d="M167.617,269.336c0,.372-2.217.673-4.952.673s-4.953-.3-4.953-.673,2.217-.673,4.953-.673,4.952.3,4.952.673" fill="#f4c551"/>
              <path id="Trazado_149804" data-name="Trazado 149804" d="M245.5,268.664c0,.372-2.217.673-4.952.673s-4.953-.3-4.953-.673,2.217-.673,4.953-.673,4.952.3,4.952.673" fill="#f4c551"/>
              <path id="Trazado_149805" data-name="Trazado 149805" d="M394.253,257.937c0,.372-2.217.673-4.952.673s-4.953-.3-4.953-.673,2.217-.673,4.953-.673,4.952.3,4.952.673" fill="#f4c551"/>
              <path id="Trazado_149806" data-name="Trazado 149806" d="M340.344,285.214c0,.372-2.217.673-4.952.673s-4.953-.3-4.953-.673,2.217-.673,4.953-.673,4.952.3,4.952.673" fill="#f4c551"/>
              <path id="Trazado_149807" data-name="Trazado 149807" d="M215.63,258.258c0,.372-2.217.673-4.952.673s-4.953-.3-4.953-.673,2.217-.673,4.953-.673,4.952.3,4.952.673" fill="#f4c551"/>
              <path id="Trazado_149808" data-name="Trazado 149808" d="M158.728,273.556c0,.372-2.217.673-4.952.673s-4.953-.3-4.953-.673,2.217-.673,4.953-.673,4.952.3,4.952.673" fill="#f4c551"/>
              <path id="Trazado_149809" data-name="Trazado 149809" d="M311.289,262.165c0,.372-2.217.673-4.953.673s-4.952-.3-4.952-.673,2.217-.673,4.952-.673,4.953.3,4.953.673" fill="#f4c551"/>
              <path id="Trazado_149810" data-name="Trazado 149810" d="M59.641,272.222c0,.372-2.217.673-4.952.673s-4.953-.3-4.953-.673,2.217-.673,4.953-.673,4.952.3,4.952.673" fill="#f4c551"/>
              <path id="Trazado_149811" data-name="Trazado 149811" d="M121.3,257.937c0,.372-2.217.673-4.952.673s-4.953-.3-4.953-.673,2.217-.673,4.953-.673,4.952.3,4.952.673" fill="#f4c551"/>
              <path id="Trazado_149812" data-name="Trazado 149812" d="M181.77,291.8c0,.372-2.217.673-4.952.673s-4.953-.3-4.953-.673,2.217-.673,4.953-.673,4.952.3,4.952.673" fill="#f4c551"/>
              <path id="Trazado_149813" data-name="Trazado 149813" d="M334.125,270.22c0,1.35-13.508,2.446-30.171,2.446s-30.171-1.1-30.171-2.446,13.508-2.446,30.171-2.446,30.171,1.1,30.171,2.446" transform="translate(-2.57 -1.557)" fill="#f4c551"/>
              <path id="Trazado_149814" data-name="Trazado 149814" d="M367.6,275.774c0,1.225-13.508,2.218-30.171,2.218s-30.171-.993-30.171-2.218,13.508-2.218,30.171-2.218,30.171.993,30.171,2.218" transform="translate(2.874 1.095)" fill="#f4c551"/>
              <path id="Trazado_149815" data-name="Trazado 149815" d="M122.228,275.774c0,1.225-13.508,2.218-30.171,2.218S61.886,277,61.886,275.774s13.508-2.218,30.171-2.218,30.171.993,30.171,2.218" fill="#f4c551"/>
              <g id="Grupo_144962" data-name="Grupo 144962" style="mix-blend-mode: screen;isolation: isolate">
                <g id="Grupo_144961" data-name="Grupo 144961">
                  <g id="Grupo_144960" data-name="Grupo 144960" clip-path="url(#clip-path-13)">
                    <path id="Trazado_149816" data-name="Trazado 149816" d="M159.759,64.077l.373.964.964.373-.964.372-.373.965-.373-.965-.964-.372.964-.373Z" fill="#a5b7c6"/>
                  </g>
                </g>
              </g>
              <g id="Grupo_144965" data-name="Grupo 144965" style="mix-blend-mode: screen;isolation: isolate">
                <g id="Grupo_144964" data-name="Grupo 144964">
                  <g id="Grupo_144963" data-name="Grupo 144963" clip-path="url(#clip-path-14)">
                    <path id="Trazado_149817" data-name="Trazado 149817" d="M241.484,157.9l.373.964.964.373-.964.372-.373.965-.373-.965-.964-.372.964-.373Z" fill="#a5b7c6"/>
                  </g>
                </g>
              </g>
              <g id="Grupo_144968" data-name="Grupo 144968" transform="translate(0 30)" style="mix-blend-mode: screen;isolation: isolate">
                <g id="Grupo_144967" data-name="Grupo 144967">
                  <g id="Grupo_144966" data-name="Grupo 144966" clip-path="url(#clip-path-15)">
                    <path id="Trazado_149818" data-name="Trazado 149818" d="M325.785,44.146l.373.964.964.373-.964.372-.373.965-.372-.965-.965-.372.965-.373Z" fill="#a5b7c6"/>
                  </g>
                </g>
              </g>
              <g id="Grupo_144971" data-name="Grupo 144971" style="mix-blend-mode: screen;isolation: isolate">
                <g id="Grupo_144970" data-name="Grupo 144970">
                  <g id="Grupo_144969" data-name="Grupo 144969" clip-path="url(#clip-path-16)">
                    <path id="Trazado_149819" data-name="Trazado 149819" d="M255.705,24.5l.745,1.929,1.929.745-1.929.745-.745,1.929-.745-1.929-1.929-.745,1.929-.745Z" fill="#a5b7c6"/>
                  </g>
                </g>
              </g>
              <g id="Grupo_144974" data-name="Grupo 144974" style="mix-blend-mode: screen;isolation: isolate">
                <g id="Grupo_144973" data-name="Grupo 144973">
                  <g id="Grupo_144972" data-name="Grupo 144972" clip-path="url(#clip-path-17)">
                    <path id="Trazado_149820" data-name="Trazado 149820" d="M215.63,146.882l.745,1.929,1.929.745-1.929.745-.745,1.929-.745-1.929-1.929-.745,1.929-.745Z" fill="#a5b7c6"/>
                  </g>
                </g>
              </g>
              <g id="Grupo_144977" data-name="Grupo 144977" transform="translate(-8 38)" style="mix-blend-mode: screen;isolation: isolate">
                <g id="Grupo_144976" data-name="Grupo 144976">
                  <g id="Grupo_144975" data-name="Grupo 144975" clip-path="url(#clip-path-18)">
                    <path id="Trazado_149821" data-name="Trazado 149821" d="M342.981,48.032l.745,1.929,1.929.745-1.929.745-.745,1.929-.745-1.929-1.929-.745,1.929-.745Z" fill="#a5b7c6"/>
                  </g>
                </g>
              </g>
              <g id="Grupo_144980" data-name="Grupo 144980" style="mix-blend-mode: screen;isolation: isolate">
                <g id="Grupo_144979" data-name="Grupo 144979">
                  <g id="Grupo_144978" data-name="Grupo 144978" clip-path="url(#clip-path-19)">
                    <path id="Trazado_149822" data-name="Trazado 149822" d="M143.18,33.908l.745,1.929,1.929.745-1.929.745-.745,1.929-.745-1.929-1.929-.745,1.929-.745Z" fill="#a5b7c6"/>
                  </g>
                </g>
              </g>
              <path id="Trazado_149823" data-name="Trazado 149823" d="M258.54,232.962l-20.463,10.715-1.471-26.291-1.64,18.437-5.142-4.133,5.142,6.146-.373,10.49-19.921-12.062,19.921,14.182v2.966h4.026l-.407-7.307Z" fill="#8896ff"/>
              <path id="Trazado_149824" data-name="Trazado 149824" d="M236.606,199.02a37.248,37.248,0,0,0-33.068,54.392h31.055v-2.967l-19.921-14.182,19.921,12.063.373-10.49-5.141-6.146,5.141,4.132,1.64-18.437,1.471,26.291,20.463-10.714L238.212,246.1l.407,7.307h31.055a37.256,37.256,0,0,0-33.068-54.392" fill="#606bf1"/>
              <path id="Trazado_149825" data-name="Trazado 149825" d="M136.009,242.352l-12.433,6.51-.893-15.974-1,11.2-3.124-2.511,3.124,3.734-.227,6.374-12.1-7.329,12.1,8.617v1.8h2.447l-.247-4.439Z" fill="#606bf1"/>
              <path id="Trazado_149826" data-name="Trazado 149826" d="M122.683,221.73a22.63,22.63,0,0,0-20.091,33.047H121.46v-1.8l-12.1-8.616,12.1,7.329.226-6.374-3.123-3.734,3.123,2.511,1-11.2.894,15.974,12.432-6.51-12.35,7.986.247,4.439h18.868a22.635,22.635,0,0,0-20.091-33.047" fill="#8896ff"/>
            </g>
          </g>
          <g id="Grupo_144984" data-name="Grupo 144984">
            <g id="Grupo_144983" data-name="Grupo 144983" clip-path="url(#clip-path-20)">
              <rect id="Rectángulo_38484" data-name="Rectángulo 38484" width="27.558" height="30.191" transform="translate(9.253 227.617)" fill="url(#linear-gradient-6)"/>
            </g>
          </g>
          <g id="Grupo_144986" data-name="Grupo 144986">
            <g id="Grupo_144985" data-name="Grupo 144985" clip-path="url(#clip-path-21)">
              <rect id="Rectángulo_38485" data-name="Rectángulo 38485" width="40.378" height="58.229" transform="translate(24.075 199.579)" fill="url(#linear-gradient-7)"/>
            </g>
          </g>
          <g id="Grupo_144988" data-name="Grupo 144988">
            <g id="Grupo_144987" data-name="Grupo 144987" clip-path="url(#clip-path-22)">
              <rect id="Rectángulo_38486" data-name="Rectángulo 38486" width="53.654" height="68.066" transform="translate(67.864 189.742)" fill="url(#linear-gradient-8)"/>
            </g>
          </g>
          <g id="Grupo_144990" data-name="Grupo 144990">
            <g id="Grupo_144989" data-name="Grupo 144989" clip-path="url(#clip-path-23)">
              <rect id="Rectángulo_38487" data-name="Rectángulo 38487" width="18.945" height="18.456" transform="translate(85.298 239.352)" fill="url(#linear-gradient-9)"/>
            </g>
          </g>
          <g id="Grupo_144992" data-name="Grupo 144992">
            <g id="Grupo_144991" data-name="Grupo 144991" clip-path="url(#clip-path-24)">
              <rect id="Rectángulo_38488" data-name="Rectángulo 38488" width="31.608" height="39.108" transform="translate(105.023 218.7)" fill="url(#linear-gradient-10)"/>
            </g>
          </g>
          <g id="Grupo_144994" data-name="Grupo 144994">
            <g id="Grupo_144993" data-name="Grupo 144993" clip-path="url(#clip-path)">
              <path id="Trazado_149832" data-name="Trazado 149832" d="M55.18,257.808h-.719a78.178,78.178,0,0,0-1.076-11.358,84.78,84.78,0,0,0-3.325-13.342,75.968,75.968,0,0,0-13.207-23.982c-.479-.608-.055-.934.449-.393a64.556,64.556,0,0,1,14.209,23.889,71.809,71.809,0,0,1,3.128,13.65,67.675,67.675,0,0,1,.541,11.536" fill="#fff3cd"/>
              <path id="Trazado_149833" data-name="Trazado 149833" d="M91.361,201.561a37.2,37.2,0,0,0-4.652,6.724,52.042,52.042,0,0,0-3.387,7.442,75.09,75.09,0,0,0-2.44,7.824c-.676,2.649-1.253,5.322-1.714,8.027a150.965,150.965,0,0,0-1.893,16.329c-.209,3.3-.345,6.6-.375,9.9h-.941c-.123-3.319-.116-6.643,0-9.968a121.648,121.648,0,0,1,1.7-16.539c.473-2.735,1.088-5.451,1.819-8.131a66.811,66.811,0,0,1,2.661-7.91c.5-1.3,1.106-2.557,1.7-3.816.651-1.236,1.278-2.477,2.028-3.651a35.865,35.865,0,0,1,5.07-6.619c.59-.627.977-.277.418.387" fill="#fff3cd"/>
              <path id="Trazado_149834" data-name="Trazado 149834" d="M93.758,243.912A56.041,56.041,0,0,0,91.6,256.751c-.019.35-.037.707-.056,1.057h-.762c.012-.375.031-.744.055-1.113a44,44,0,0,1,2.662-12.887c.135-.32.374-.222.264.1" fill="#fff3cd"/>
              <path id="Trazado_149835" data-name="Trazado 149835" d="M32.509,257.808H31.79c-.264-2.188-.6-4.376-1.008-6.539a68.415,68.415,0,0,0-2.428-8.918c-.27-.725-.577-1.432-.86-2.145-.148-.356-.277-.719-.443-1.069l-.516-1.033-.51-1.038a8.867,8.867,0,0,0-.553-1.014l-1.211-1.973c-.252-.406-.049-.572.234-.16l1.315,1.93a8.133,8.133,0,0,1,.6,1.008l.566,1.026.559,1.032c.178.345.319.707.485,1.064.308.719.639,1.426.928,2.151a57.826,57.826,0,0,1,2.588,9q.636,3.319.977,6.681" fill="#fff3cd"/>
              <path id="Trazado_149836" data-name="Trazado 149836" d="M120.978,225.014a34.648,34.648,0,0,0-3.214,4.64c-.234.406-.48.8-.713,1.217l-.658,1.248c-.461.823-.836,1.69-1.241,2.538a66.953,66.953,0,0,0-3.749,10.638,80.973,80.973,0,0,0-2.071,12.514h-.627a70.028,70.028,0,0,1,1.954-12.71,61,61,0,0,1,3.921-10.719c.424-.848.83-1.714,1.315-2.532l.7-1.241c.246-.412.5-.811.756-1.211a34.35,34.35,0,0,1,3.411-4.573c.4-.436.6-.258.215.191" fill="#fff3cd"/>
            </g>
          </g>
          <g id="Grupo_144996" data-name="Grupo 144996">
            <g id="Grupo_144995" data-name="Grupo 144995" clip-path="url(#clip-path-26)">
              <rect id="Rectángulo_38490" data-name="Rectángulo 38490" width="36.971" height="40.503" transform="translate(229.748 218.804)" fill="url(#linear-gradient-11)"/>
            </g>
          </g>
          <g id="Grupo_144998" data-name="Grupo 144998">
            <g id="Grupo_144997" data-name="Grupo 144997" clip-path="url(#clip-path-27)">
              <rect id="Rectángulo_38491" data-name="Rectángulo 38491" width="54.17" height="78.119" transform="translate(236.678 181.188)" fill="url(#linear-gradient-12)"/>
            </g>
          </g>
          <g id="Grupo_145000" data-name="Grupo 145000">
            <g id="Grupo_144999" data-name="Grupo 144999" clip-path="url(#clip-path-28)">
              <rect id="Rectángulo_38492" data-name="Rectángulo 38492" width="71.98" height="91.317" transform="translate(304.704 167.99)" fill="url(#linear-gradient-13)"/>
            </g>
          </g>
          <g id="Grupo_145002" data-name="Grupo 145002">
            <g id="Grupo_145001" data-name="Grupo 145001" clip-path="url(#clip-path-29)">
              <rect id="Rectángulo_38493" data-name="Rectángulo 38493" width="25.416" height="24.76" transform="translate(321.406 234.547)" fill="url(#linear-gradient-14)"/>
            </g>
          </g>
          <g id="Grupo_145004" data-name="Grupo 145004">
            <g id="Grupo_145003" data-name="Grupo 145003" clip-path="url(#clip-path-30)">
              <rect id="Rectángulo_38494" data-name="Rectángulo 38494" width="42.404" height="52.467" transform="translate(354.555 206.84)" fill="url(#linear-gradient-15)"/>
            </g>
          </g>
          <g id="Grupo_145006" data-name="Grupo 145006">
            <g id="Grupo_145005" data-name="Grupo 145005" clip-path="url(#clip-path)">
              <path id="Trazado_149842" data-name="Trazado 149842" d="M278.406,259.306h-.965A104.853,104.853,0,0,0,276,244.069a113.929,113.929,0,0,0-4.461-17.9A101.927,101.927,0,0,0,253.819,194c-.643-.816-.074-1.253.6-.527a86.6,86.6,0,0,1,19.063,32.048,96.3,96.3,0,0,1,4.2,18.313,90.763,90.763,0,0,1,.726,15.476" fill="#fff3cd"/>
              <path id="Trazado_149843" data-name="Trazado 149843" d="M336.226,183.847a49.881,49.881,0,0,0-6.241,9.02,69.913,69.913,0,0,0-4.544,9.985,100.52,100.52,0,0,0-3.273,10.5c-.907,3.554-1.682,7.14-2.3,10.768a203.058,203.058,0,0,0-2.54,21.907c-.28,4.428-.462,8.856-.5,13.283h-1.261c-.165-4.452-.157-8.913,0-13.373a163.076,163.076,0,0,1,2.284-22.188c.634-3.669,1.459-7.313,2.44-10.908a89.677,89.677,0,0,1,3.57-10.612c.676-1.739,1.484-3.43,2.284-5.12.874-1.657,1.715-3.323,2.721-4.9a48.126,48.126,0,0,1,6.8-8.88c.792-.842,1.311-.371.561.519" fill="#fff3cd"/>
              <path id="Trazado_149844" data-name="Trazado 149844" d="M332.756,240.664a75.187,75.187,0,0,0-2.9,17.224c-.025.47-.05.948-.075,1.418h-1.022c.017-.5.041-1,.074-1.492a59.044,59.044,0,0,1,3.571-17.29c.181-.429.5-.3.354.14" fill="#fff3cd"/>
            </g>
          </g>
          <g id="Grupo_145008" data-name="Grupo 145008">
            <g id="Grupo_145007" data-name="Grupo 145007" clip-path="url(#clip-path-32)">
              <rect id="Rectángulo_38496" data-name="Rectángulo 38496" width="25.416" height="24.76" transform="translate(378.359 234.547)" fill="url(#linear-gradient-16)"/>
            </g>
          </g>
          <g id="Grupo_145010" data-name="Grupo 145010">
            <g id="Grupo_145009" data-name="Grupo 145009" clip-path="url(#clip-path)">
              <path id="Trazado_149846" data-name="Trazado 149846" d="M389.709,240.664a75.187,75.187,0,0,0-2.9,17.224c-.025.47-.05.948-.075,1.418H385.71c.017-.5.041-1,.074-1.492a59.044,59.044,0,0,1,3.571-17.29c.181-.429.5-.3.354.14" fill="#fff3cd"/>
              <path id="Trazado_149847" data-name="Trazado 149847" d="M260.948,259.306h-.965c-.354-2.935-.8-5.871-1.352-8.773a91.862,91.862,0,0,0-3.257-11.963c-.362-.973-.775-1.922-1.154-2.878-.2-.478-.371-.965-.594-1.435l-.692-1.385-.685-1.393a12.015,12.015,0,0,0-.742-1.361l-1.624-2.646c-.338-.545-.066-.767.313-.215l1.765,2.589a11.259,11.259,0,0,1,.8,1.352l.759,1.377.75,1.385c.239.462.429.949.652,1.427.412.965.857,1.913,1.245,2.886a77.67,77.67,0,0,1,3.471,12.071q.854,4.452,1.311,8.962" fill="#fff3cd"/>
              <path id="Trazado_149848" data-name="Trazado 149848" d="M375.959,215.31a46.415,46.415,0,0,0-4.312,6.225c-.314.544-.643,1.08-.957,1.633l-.882,1.673c-.618,1.1-1.121,2.268-1.665,3.406a89.9,89.9,0,0,0-5.03,14.272,108.876,108.876,0,0,0-2.779,16.787h-.841a94.1,94.1,0,0,1,2.622-17.051,81.858,81.858,0,0,1,5.261-14.379c.569-1.138,1.113-2.3,1.764-3.4l.94-1.666c.33-.552.676-1.088,1.014-1.624a46.2,46.2,0,0,1,4.576-6.135c.545-.585.808-.346.289.256" fill="#fff3cd"/>
            </g>
          </g>
          <g id="Grupo_145012" data-name="Grupo 145012">
            <g id="Grupo_145011" data-name="Grupo 145011" clip-path="url(#clip-path-34)">
              <rect id="Rectángulo_38498" data-name="Rectángulo 38498" width="36.49" height="41.712" transform="translate(130.429 216.156)" fill="url(#linear-gradient-17)"/>
            </g>
          </g>
          <g id="Grupo_145014" data-name="Grupo 145014">
            <g id="Grupo_145013" data-name="Grupo 145013" clip-path="url(#clip-path)">
              <path id="Trazado_149850" data-name="Trazado 149850" d="M313.413,11.545A11.545,11.545,0,1,1,301.868,0a11.545,11.545,0,0,1,11.545,11.545" fill="#49497c"/>
              <rect id="Rectángulo_38499" data-name="Rectángulo 38499" width="9.911" height="10.641" transform="translate(296.913 17.284)" fill="#49497c"/>
              <rect id="Rectángulo_38500" data-name="Rectángulo 38500" width="3.431" height="8.087" transform="translate(302.694 19.838)" fill="#251f60"/>
              <path id="Trazado_149851" data-name="Trazado 149851" d="M307.818,2.5a11.542,11.542,0,0,1-13.352,16.943A10.826,10.826,0,1,0,307.818,2.5" fill="#251f60"/>
              <path id="Trazado_149852" data-name="Trazado 149852" d="M324.337,26.145l-6.163,7.625H285.562L279.4,26.145Z" fill="#49497c"/>
            </g>
          </g>
          <g id="Grupo_145016" data-name="Grupo 145016">
            <g id="Grupo_145015" data-name="Grupo 145015" clip-path="url(#clip-path-36)">
              <rect id="Rectángulo_38502" data-name="Rectángulo 38502" width="32.375" height="237.593" transform="translate(285.678 31.088)" fill="url(#linear-gradient-18)"/>
            </g>
          </g>
          <g id="Grupo_145021" data-name="Grupo 145021">
            <g id="Grupo_145020" data-name="Grupo 145020" clip-path="url(#clip-path)">
              <g id="Grupo_145019" data-name="Grupo 145019" style="mix-blend-mode: screen;isolation: isolate">
                <g id="Grupo_145018" data-name="Grupo 145018">
                  <g id="Grupo_145017" data-name="Grupo 145017" clip-path="url(#clip-path-38)">
                    <rect id="Rectángulo_38503" data-name="Rectángulo 38503" width="3.959" height="224.952" transform="translate(287.637 37.482)" fill="#251f60"/>
                  </g>
                </g>
              </g>
            </g>
          </g>
          <g id="Grupo_145023" data-name="Grupo 145023">
            <g id="Grupo_145022" data-name="Grupo 145022" clip-path="url(#clip-path-39)">
              <rect id="Rectángulo_38506" data-name="Rectángulo 38506" width="55.44" height="73.485" transform="translate(245.553 123.603)" fill="url(#linear-gradient-19)"/>
            </g>
          </g>
          <g id="Grupo_145025" data-name="Grupo 145025">
            <g id="Grupo_145024" data-name="Grupo 145024" clip-path="url(#clip-path)">
              <path id="Trazado_149855" data-name="Trazado 149855" d="M292.157,194.869c-1.355-46.1-44.721-62.31-46.6-62.982l2.962-8.284a88.1,88.1,0,0,1,23.056,13.524h-7.014s26.665,17.109,27.6,57.742" fill="#251f60"/>
              <rect id="Rectángulo_38507" data-name="Rectángulo 38507" width="12.119" height="232.443" transform="translate(302.456 36.211)" fill="#251f60"/>
              <rect id="Rectángulo_38508" data-name="Rectángulo 38508" width="14.767" height="7.404" transform="translate(292.869 131.888)" fill="#251f60"/>
              <path id="Trazado_149856" data-name="Trazado 149856" d="M302.456,26.145V33.77H285.563L279.4,26.145Z" fill="#49497c"/>
              <path id="Trazado_149857" data-name="Trazado 149857" d="M307.636,85.068v46.987H243.252a.329.329,0,0,0,.323-.323V84.792c0-.359-.012-.731-.024-1.091a29.559,29.559,0,0,0-29.53-28.475h63.785A29.847,29.847,0,0,1,307.6,83.7q.036.684.036,1.367" fill="#606bf1"/>
              <path id="Trazado_149858" data-name="Trazado 149858" d="M183.027,131.726v.325h.325a.325.325,0,0,1-.325-.325" fill="#606bf1"/>
              <path id="Trazado_149859" data-name="Trazado 149859" d="M299.783,64.9h-63.9a29.531,29.531,0,0,0-21.857-9.676h63.785A29.752,29.752,0,0,1,299.783,64.9" fill="#7181f4"/>
              <path id="Trazado_149860" data-name="Trazado 149860" d="M183.978,131.1V84.788A28.641,28.641,0,0,1,212.586,56.18h1.43a28.641,28.641,0,0,1,28.608,28.608V131.1Z" fill="#112b46"/>
              <path id="Trazado_149861" data-name="Trazado 149861" d="M214.016,57.132a27.688,27.688,0,0,1,27.657,27.657v45.36H184.929V84.789a27.688,27.688,0,0,1,27.657-27.657Zm0-1.9h-1.43a29.559,29.559,0,0,0-29.559,29.559v46.937a.325.325,0,0,0,.325.325h59.9a.326.326,0,0,0,.325-.325V84.789A29.559,29.559,0,0,0,214.016,55.23" fill="#7685f4"/>
              <path id="Trazado_149862" data-name="Trazado 149862" d="M183.027,131.726V84.789A29.559,29.559,0,0,1,212.586,55.23h1.43a29.559,29.559,0,0,1,29.559,29.559v46.937a.326.326,0,0,1-.325.325h-59.9a.325.325,0,0,1-.325-.325" fill="#7181f4"/>
              <path id="Trazado_149863" data-name="Trazado 149863" d="M185.118,129.1V85.4a27.517,27.517,0,0,1,27.517-27.517h1.332A27.517,27.517,0,0,1,241.484,85.4v43.7a.3.3,0,0,1-.3.3H185.42a.3.3,0,0,1-.3-.3" fill="#251f60"/>
            </g>
          </g>
          <g id="Grupo_145030" data-name="Grupo 145030">
            <g id="Grupo_145029" data-name="Grupo 145029" clip-path="url(#clip-path-41)">
              <g id="Grupo_145028" data-name="Grupo 145028" opacity="0.92">
                <g id="Grupo_145027" data-name="Grupo 145027">
                  <g id="Grupo_145026" data-name="Grupo 145026" clip-path="url(#clip-path-42)">
                    <rect id="Rectángulo_38510" data-name="Rectángulo 38510" width="29.034" height="47.132" transform="matrix(0.167, -0.986, 0.986, 0.167, 199.037, 93.569)" fill="#345aad"/>
                    <path id="Trazado_149864" data-name="Trazado 149864" d="M225.536,77.693,198.877,93.352l46.82,8.13Z" fill="#4364bf"/>
                    <path id="Trazado_149865" data-name="Trazado 149865" d="M223.674,88.669,203.89,64.945l46.66,7.912Z" fill="#506dcc"/>
                  </g>
                </g>
              </g>
              <rect id="Rectángulo_38512" data-name="Rectángulo 38512" width="57.547" height="35.449" transform="matrix(0.974, -0.227, 0.227, 0.974, 188.536, 93.792)" fill="#fbd15b"/>
              <path id="Trazado_149866" data-name="Trazado 149866" d="M218.926,97.938,196.29,128.147l56.562-12.929Z" fill="#f4c551"/>
              <path id="Trazado_149867" data-name="Trazado 149867" d="M222.008,111.178,188.536,93.792l56.28-13.1Z" fill="#ffdb80"/>
            </g>
          </g>
          <g id="Grupo_145035" data-name="Grupo 145035">
            <g id="Grupo_145034" data-name="Grupo 145034" clip-path="url(#clip-path)">
              <path id="Trazado_149869" data-name="Trazado 149869" d="M307.636,85.068v46.987H243.252a.329.329,0,0,0,.323-.323V84.792c0-.359-.012-.731-.024-1.091H307.6q.036.684.036,1.367" fill="#5263e2"/>
              <path id="Trazado_149870" data-name="Trazado 149870" d="M293.2,59.506h-63.87a29.279,29.279,0,0,0-15.311-4.28H277.8a29.617,29.617,0,0,1,15.4,4.28" fill="#5263e2"/>
              <rect id="Rectángulo_38513" data-name="Rectángulo 38513" width="64.061" height="15.84" transform="translate(243.575 116.048)" fill="#3c55ce"/>
              <path id="Trazado_149871" data-name="Trazado 149871" d="M262.171,89.81a5.457,5.457,0,1,1-5.457-5.457,5.457,5.457,0,0,1,5.457,5.457" fill="#ff8578"/>
              <path id="Trazado_149872" data-name="Trazado 149872" d="M262.821,89.81a6.107,6.107,0,1,1-6.107-6.107,6.107,6.107,0,0,1,6.107,6.107" fill="#3c55ce"/>
              <path id="Trazado_149873" data-name="Trazado 149873" d="M261.572,89.81a4.857,4.857,0,1,1-4.858-4.858,4.858,4.858,0,0,1,4.858,4.858" fill="#ff8578"/>
              <path id="Trazado_149874" data-name="Trazado 149874" d="M258.449,89.81a1.736,1.736,0,1,1-1.735-1.735,1.735,1.735,0,0,1,1.735,1.735" fill="#5263e2"/>
              <path id="Trazado_149875" data-name="Trazado 149875" d="M268.149,38.744H256.6v.022h-.9V87.281h1.8V44.791h10.646Z" fill="#ff8578"/>
              <rect id="Rectángulo_38514" data-name="Rectángulo 38514" width="85.468" height="2.955" transform="translate(158.106 129.096)" fill="#606bf1"/>
              <rect id="Rectángulo_38515" data-name="Rectángulo 38515" width="39.77" height="2.955" transform="translate(158.106 129.096)" fill="#7785ed"/>
              <rect id="Rectángulo_38516" data-name="Rectángulo 38516" width="31.659" height="2.441" transform="translate(286.378 33.77)" fill="#251f60"/>
              <path id="Trazado_149876" data-name="Trazado 149876" d="M309.328,27.076l-4.918,6.086h9.316l4.918-6.086Z" fill="#251f60"/>
              <g id="Grupo_145033" data-name="Grupo 145033" style="mix-blend-mode: screen;isolation: isolate">
                <g id="Grupo_145032" data-name="Grupo 145032">
                  <g id="Grupo_145031" data-name="Grupo 145031" clip-path="url(#clip-path-44)">
                    <path id="Trazado_149877" data-name="Trazado 149877" d="M298.839,7.118a2.186,2.186,0,1,1-2.186-2.186,2.186,2.186,0,0,1,2.186,2.186" fill="#251f60"/>
                  </g>
                </g>
              </g>
            </g>
          </g>
        </g>
      </g>
      <g id="Grupo_145044" data-name="Grupo 145044" transform="translate(894.496 216.045)">
        <g id="Grupo_145039" data-name="Grupo 145039">
          <g id="Grupo_145038" data-name="Grupo 145038" clip-path="url(#clip-path-45)">
            <path id="Trazado_149878" data-name="Trazado 149878" d="M121.694,62.891,136,93.54c2.239,4.8.506,10.226-3.854,12.069s-9.751-.572-11.99-5.371l-14.3-30.649a9.63,9.63,0,0,1,0-8.456l.027-.049a7.709,7.709,0,0,1,3.034-3.177l.011-.005a8.235,8.235,0,0,1,.777-.382,8.482,8.482,0,0,1,6.79.2,9.8,9.8,0,0,1,1.415.78,10.611,10.611,0,0,1,3.786,4.394" transform="translate(0)" fill="#43a99b"/>
            <path id="Trazado_149879" data-name="Trazado 149879" d="M90.481,229.581l0-.009c-3.556-28.368,8.291-44.424,8.291-44.424l-28.6-50.809L99.724,126.2l8.882-2.446.257,3.787,3.714,54.625-6.115,47.624-5.925,41.573c-6.376-18.826-8.752-31.412-10.056-41.785" transform="translate(0)" fill="#251f60"/>
          </g>
        </g>
        <g id="Grupo_145041" data-name="Grupo 145041" transform="translate(0 129.668)">
          <g id="Grupo_145040" data-name="Grupo 145040" clip-path="url(#clip-path-46)">
            <rect id="Rectángulo_38521" data-name="Rectángulo 38521" width="99.932" height="75.038" transform="translate(0 0)" fill="url(#linear-gradient-20)"/>
          </g>
        </g>
        <g id="Grupo_145043" data-name="Grupo 145043">
          <g id="Grupo_145042" data-name="Grupo 145042" clip-path="url(#clip-path-45)">
            <path id="Trazado_149881" data-name="Trazado 149881" d="M61,145.029h.038c4.629-.4,9.654-.73,14.845-1,5.154-.269,10.452-.5,15.653-.674h.015c6.41-.229,12.67-.4,18.34-.544.062-.342.132-.683.194-1.055v-.015c.517-2.936.969-6.657,1.391-10.756,1.222-11.828,2.21-26.752,3.741-34.629.766-3.916,1.657-8,2.405-12.082.195-1.032.382-2.056.546-3.088.205-1.266.388-2.525.533-3.783.074-.561.132-1.137.2-1.705.039-.417.077-.826.108-1.25a39.945,39.945,0,0,0-.5-11.329,24.34,24.34,0,0,0-.878-3.154c-1.9-5.27-5.714-9.623-12.636-12.4h-.008c-.068-.022-.137-.051-.205-.072-.084-.037-.167-.073-.259-.109-.739-.283-1.507-.542-2.313-.786-.7-.215-1.4-.4-2.1-.554-.737-.161-1.464-.278-2.2-.371h-.023a22.858,22.858,0,0,0-5.008-.1,20.281,20.281,0,0,0-5.035,1.068c-.376.12-.752.262-1.112.412a14.749,14.749,0,0,0-1.4.659A17.9,17.9,0,0,0,83.6,48.748a15.917,15.917,0,0,0-2.774,2.377,14.415,14.415,0,0,0-3.5,7.04c-.45,1.528-1.118,4.512-1.943,8.489-.2,1.04-.433,2.14-.671,3.3-.4,2.011-.829,4.2-1.274,6.511-.341,1.76-.695,3.6-1.057,5.494-.194,1.016-.381,2.048-.583,3.088-.381,2.033-.77,4.12-1.165,6.237-.645,3.475-1.3,7.033-1.947,10.584-2.27,12.458-4.466,24.831-5.929,33.107C61.672,141.13,61,145.029,61,145.029" transform="translate(0)" fill="#43a99b"/>
            <path id="Trazado_149882" data-name="Trazado 149882" d="M102.245,37.394c-.072-.632-.153-1.3-.249-1.991l-4.192.238c.033.428.065.834.1,1.222q2.175.237,4.345.531" transform="translate(0)" fill="#fafafa"/>
            <path id="Trazado_149883" data-name="Trazado 149883" d="M73.189,76.473l45.587-.771-.109-6.487-44.2.747c-.4,2.006-.831,4.2-1.274,6.511" transform="translate(0)" fill="#fafafa"/>
            <path id="Trazado_149884" data-name="Trazado 149884" d="M74.9,84.994l42.519-.719c.173-1.028.345-2.056.5-3.084l-42.48.718c-.183,1.018-.356,2.046-.538,3.085" transform="translate(0)" fill="#fafafa"/>
            <path id="Trazado_149885" data-name="Trazado 149885" d="M100.659,278.592l11.324-.191a3.614,3.614,0,1,0-.122-7.227l-11.324.191a3.614,3.614,0,0,0,.122,7.227" transform="translate(0)" fill="#ff8578"/>
            <path id="Trazado_149886" data-name="Trazado 149886" d="M.493,204.313,2.56,215.449a3.614,3.614,0,0,0,7.106-1.319L7.6,202.994a3.614,3.614,0,1,0-7.106,1.319" transform="translate(0)" fill="#ff8578"/>
            <path id="Trazado_149887" data-name="Trazado 149887" d="M102.5,39.953c-.087-1.1-.258-2.761-.5-4.551l-4.191.239c.08,1.069.163,2.043.216,2.77a30.348,30.348,0,0,1-1.25,11.005c.02.1.038.207.058.31,1.035-2,2.346-3.208,3.841-3.293,1.514-.087,3.016.982,4.36,2.907a32.721,32.721,0,0,1-2.53-9.387" transform="translate(0)" fill="#f5a489"/>
            <path id="Trazado_149888" data-name="Trazado 149888" d="M101.388,54.928a5.432,5.432,0,0,1-1.31-.087c-.009-.005-.032-.005-.041-.01a4.72,4.72,0,0,1-3.8-4.135,4.317,4.317,0,0,1,1.025-3.087,4.735,4.735,0,0,1,2.784-1.594c.209-.04.44-.058.663-.08a5.009,5.009,0,0,1,3.41,1.054,3.86,3.86,0,0,1,.569.531,4.31,4.31,0,0,1,1.162,2.629,4.558,4.558,0,0,1-4.458,4.779" transform="translate(0)" fill="#f5a489"/>
            <path id="Trazado_149889" data-name="Trazado 149889" d="M132.5,137.083l5.1.4-.135,14.042-4.643,7.577-3.646-.474,2.387-8.384-.828-7.076-2.1,3.467-.716,5.559-2.009.212.656-8.24Z" transform="translate(0)" fill="#f5a489"/>
            <path id="Trazado_149890" data-name="Trazado 149890" d="M137.593,98.671c-.589-5.653-5.177-9.745-10.247-9.14s-8.7,5.679-8.112,11.334a11.1,11.1,0,0,0,1.385,4.339l-.032.011L132.5,137.083l5.1.4-.019-36.4a11.476,11.476,0,0,0,.011-2.41" transform="translate(0)" fill="#f5a489"/>
            <path id="Trazado_149891" data-name="Trazado 149891" d="M103.321,21.467l-4.06,2.527a.723.723,0,0,1-.954-.182l-.205-.286a.614.614,0,0,1,.184-.889l4.06-2.527a.723.723,0,0,1,.954.181l.2.286a.615.615,0,0,1-.184.89" transform="translate(0)" fill="#d39933"/>
            <path id="Trazado_149892" data-name="Trazado 149892" d="M112.117,32.214l-.48.027a1.89,1.89,0,0,1-2.031-1.665l-.26-3.422a1.8,1.8,0,0,1,1.761-1.881l.48-.027a1.89,1.89,0,0,1,2.031,1.665l.26,3.422a1.8,1.8,0,0,1-1.761,1.881" transform="translate(0)" fill="#f5a489"/>
            <path id="Trazado_149893" data-name="Trazado 149893" d="M96.045,33.357l-.48.027a1.89,1.89,0,0,1-2.031-1.665l-.26-3.422a1.806,1.806,0,0,1,1.761-1.881l.481-.027a1.891,1.891,0,0,1,2.03,1.665l.26,3.422a1.8,1.8,0,0,1-1.761,1.881" transform="translate(0)" fill="#f5a489"/>
            <path id="Trazado_149894" data-name="Trazado 149894" d="M107.047,40.519c-3.995.943-9.107-1.038-9.967-5.79L96,20.453a7.069,7.069,0,0,1,6.9-7.366,7.4,7.4,0,0,1,7.952,6.521s1.08,14.215,1.084,14.276a5.979,5.979,0,0,1-4.881,6.635" transform="translate(0)" fill="#edc59c"/>
            <path id="Trazado_149895" data-name="Trazado 149895" d="M107.047,40.519c-3.995.943-9.107-1.038-9.967-5.79L96,20.453a7.069,7.069,0,0,1,6.9-7.366,7.4,7.4,0,0,1,7.952,6.521s1.08,14.215,1.084,14.276a5.979,5.979,0,0,1-4.881,6.635" transform="translate(0)" fill="#f5a489"/>
            <path id="Trazado_149896" data-name="Trazado 149896" d="M96.688,29.57l.392,5.16c.86,4.752,5.973,6.733,9.966,5.79a5.981,5.981,0,0,0,4.883-6.636c0-.022-.146-1.915-.328-4.314Z" transform="translate(0)" fill="#251f60"/>
            <path id="Trazado_149897" data-name="Trazado 149897" d="M103.686,32.093a3.083,3.083,0,0,0,3.04,2.574,3.161,3.161,0,0,0,2.694-2.989Z" transform="translate(0)" fill="#fafafa"/>
            <path id="Trazado_149898" data-name="Trazado 149898" d="M99.521,32.063c.322-2.5.9-5.169.523-7.743-.24-1.616-1.266-3.3-1.865-4.811,2.107-.25,4.448.733,6.67.661a22.213,22.213,0,0,0,9.159-2.4c2.331-1.087,3.411-2.718,5.2-4.417,2.012-1.911,1.967-4.52,1.741-7.252-.393-4.743-6.271-8.592-9.625-4.119-2.441,3.256-1.717,8.457-6.542,8.831-2.515.2-5.032-.911-5.971,2.181-2.194.311-3.679-.643-4.4,2.073-.569,2.147.219,4.38.7,6.47.725,3.16,1.741,6.945,1.546,10.156,1.045.36,1.969,1.167,2.864.37" transform="translate(0)" fill="#251f60"/>
            <rect id="Rectángulo_38522" data-name="Rectángulo 38522" width="100.815" height="62.101" transform="translate(24.971 121.937) rotate(-33.138)" fill="#fbd15b"/>
            <path id="Trazado_149899" data-name="Trazado 149899" d="M77.476,110.522l-19.124,63.3L143.683,118.6Z" transform="translate(0)" fill="#f4c551"/>
            <path id="Trazado_149900" data-name="Trazado 149900" d="M90.494,130.462l-65.523-8.526L109.735,66.6Z" transform="translate(0)" fill="#fff5bd"/>
            <path id="Trazado_149901" data-name="Trazado 149901" d="M81.88,65.018,63.3,95.554c-2.909,4.781-8.286,6.744-11.957,4.366s-4.3-8.227-1.385-13.008L68.537,56.376A10.945,10.945,0,0,1,75.6,51.14c.018,0,.037-.005.055-.009a6.759,6.759,0,0,1,4.136.481l.009.007a6.322,6.322,0,0,1,.7.391,7.421,7.421,0,0,1,3.159,5.6,10.306,10.306,0,0,1,.042,1.626,12.322,12.322,0,0,1-1.815,5.779" transform="translate(0)" fill="#43a99b"/>
            <path id="Trazado_149902" data-name="Trazado 149902" d="M62.53,86.372c-4.741-2.993-10.777-1.956-13.481,2.317S48,98.851,52.737,101.844a11.02,11.02,0,0,0,4.223,1.579l-.01.033,30.471,9.109,2.685-4.242L64.386,87.849a11.2,11.2,0,0,0-1.856-1.477" transform="translate(0)" fill="#f5a489"/>
            <path id="Trazado_149903" data-name="Trazado 149903" d="M88.441,106.923l-2.068,5.446,13.993,7.077,9.756-.879,1.289-3.993-9.468-1.855-6.618-4.488,4.455-.382,5.859,2.122,1.179-1.957-8.488-3.56Z" transform="translate(0)" fill="#f5a489"/>
          </g>
        </g>
      </g>
    </g>
    <g id="Grupo_145046" data-name="Grupo 145046" transform="translate(874 178.776)">
      <g id="Grupo_145045" data-name="Grupo 145045" clip-path="url(#clip-path-48)">
        <path id="Trazado_149904" data-name="Trazado 149904" d="M32.977,85.132H6.046a6.046,6.046,0,1,1,0-12.091H32.977a6.046,6.046,0,0,1,0,12.091" fill="#f45742"/>
        <path id="Trazado_149905" data-name="Trazado 149905" d="M265.083,309.268a5.8,5.8,0,1,1-5.8-5.8,5.8,5.8,0,0,1,5.8,5.8" fill="#a797fc"/>
        <path id="Trazado_149906" data-name="Trazado 149906" d="M50.381,17.56A17.56,17.56,0,1,1,32.821,0a17.56,17.56,0,0,1,17.56,17.56" fill="#43a99b"/>
        <path id="Trazado_149907" data-name="Trazado 149907" d="M409.606,79.086h-47.6a5.847,5.847,0,1,1,0-11.693h47.6a5.847,5.847,0,0,1,0,11.693" fill="#fff3cd"/>
      </g>
    </g>
  </g>
</svg>
