<svg xmlns="http://www.w3.org/2000/svg" xmlns:xlink="http://www.w3.org/1999/xlink" width="1050.354" height="362.227" viewBox="0 0 1050.354 362.227">
  <defs>
    <clipPath id="clip-path">
      <path id="Trazado_150608" data-name="Trazado 150608" d="M374.378,124.286A49.122,49.122,0,1,0,423.5,75.106a49.152,49.152,0,0,0-49.122,49.18" transform="translate(-374.378 -75.106)" fill="none"/>
    </clipPath>
    <linearGradient id="linear-gradient" x1="-2.757" y1="1.435" x2="-2.749" y2="1.435" gradientUnits="objectBoundingBox">
      <stop offset="0" stop-color="#fff"/>
      <stop offset="1" stop-color="#e6e7e8"/>
    </linearGradient>
    <clipPath id="clip-path-2">
      <path id="Trazado_150610" data-name="Trazado 150610" d="M490.323,124.286a49.122,49.122,0,1,0,49.122-49.18,49.151,49.151,0,0,0-49.122,49.18" transform="translate(-490.323 -75.106)" fill="none"/>
    </clipPath>
    <linearGradient id="linear-gradient-2" x1="-3.656" y1="1.435" x2="-3.649" y2="1.435" xlink:href="#linear-gradient"/>
    <clipPath id="clip-path-3">
      <path id="Trazado_150612" data-name="Trazado 150612" d="M606.622,124.286a49.122,49.122,0,1,0,49.122-49.18,49.151,49.151,0,0,0-49.122,49.18" transform="translate(-606.622 -75.106)" fill="none"/>
    </clipPath>
    <linearGradient id="linear-gradient-3" x1="-4.558" y1="1.435" x2="-4.551" y2="1.435" xlink:href="#linear-gradient"/>
    <clipPath id="clip-path-4">
      <path id="Trazado_150614" data-name="Trazado 150614" d="M722.851,124.286a49.122,49.122,0,1,0,49.122-49.18,49.152,49.152,0,0,0-49.122,49.18" transform="translate(-722.851 -75.106)" fill="none"/>
    </clipPath>
    <linearGradient id="linear-gradient-4" x1="-5.46" y1="1.435" x2="-5.452" y2="1.435" xlink:href="#linear-gradient"/>
    <clipPath id="clip-path-5">
      <path id="Trazado_150616" data-name="Trazado 150616" d="M839.969,124.286a49.122,49.122,0,1,0,49.122-49.18,49.152,49.152,0,0,0-49.122,49.18" transform="translate(-839.969 -75.106)" fill="none"/>
    </clipPath>
    <linearGradient id="linear-gradient-5" x1="-6.368" y1="1.435" x2="-6.36" y2="1.435" xlink:href="#linear-gradient"/>
    <clipPath id="clip-path-6">
      <path id="Trazado_150618" data-name="Trazado 150618" d="M257.689,124.286a49.122,49.122,0,1,0,49.122-49.18,49.152,49.152,0,0,0-49.122,49.18" transform="translate(-257.689 -75.106)" fill="none"/>
    </clipPath>
    <linearGradient id="linear-gradient-6" x1="-1.852" y1="1.435" x2="-1.844" y2="1.435" xlink:href="#linear-gradient"/>
    <clipPath id="clip-path-7">
      <path id="Trazado_150620" data-name="Trazado 150620" d="M141.288,124.286a49.122,49.122,0,1,0,49.122-49.18,49.152,49.152,0,0,0-49.122,49.18" transform="translate(-141.288 -75.106)" fill="none"/>
    </clipPath>
    <linearGradient id="linear-gradient-7" x1="-0.949" y1="1.435" x2="-0.941" y2="1.435" xlink:href="#linear-gradient"/>
    <clipPath id="clip-path-8">
      <path id="Trazado_150622" data-name="Trazado 150622" d="M24.963,124.286a49.122,49.122,0,1,0,49.122-49.18,49.152,49.152,0,0,0-49.122,49.18" transform="translate(-24.963 -75.106)" fill="none"/>
    </clipPath>
    <linearGradient id="linear-gradient-8" x1="-0.047" y1="1.435" x2="-0.039" y2="1.435" xlink:href="#linear-gradient"/>
    <filter id="Trazado_150623" x="0" y="94.047" width="174" height="174" filterUnits="userSpaceOnUse">
      <feOffset dx="5" dy="5" input="SourceAlpha"/>
      <feGaussianBlur stdDeviation="12.5" result="blur"/>
      <feFlood flood-opacity="0.063"/>
      <feComposite operator="in" in2="blur"/>
      <feComposite in="SourceGraphic"/>
    </filter>
    <filter id="Trazado_150687" x="123.132" y="92.867" width="174" height="174" filterUnits="userSpaceOnUse">
      <feOffset dx="5" dy="5" input="SourceAlpha"/>
      <feGaussianBlur stdDeviation="12.5" result="blur-2"/>
      <feFlood flood-opacity="0.063"/>
      <feComposite operator="in" in2="blur-2"/>
      <feComposite in="SourceGraphic"/>
    </filter>
    <filter id="Trazado_150688" x="251.015" y="92.867" width="174" height="174" filterUnits="userSpaceOnUse">
      <feOffset dx="5" dy="5" input="SourceAlpha"/>
      <feGaussianBlur stdDeviation="12.5" result="blur-3"/>
      <feFlood flood-opacity="0.063"/>
      <feComposite operator="in" in2="blur-3"/>
      <feComposite in="SourceGraphic"/>
    </filter>
    <filter id="Trazado_150689" x="375.28" y="92.867" width="174" height="174" filterUnits="userSpaceOnUse">
      <feOffset dx="5" dy="5" input="SourceAlpha"/>
      <feGaussianBlur stdDeviation="12.5" result="blur-4"/>
      <feFlood flood-opacity="0.063"/>
      <feComposite operator="in" in2="blur-4"/>
      <feComposite in="SourceGraphic"/>
    </filter>
    <filter id="Trazado_150690" x="501.101" y="92.867" width="174" height="174" filterUnits="userSpaceOnUse">
      <feOffset dx="5" dy="5" input="SourceAlpha"/>
      <feGaussianBlur stdDeviation="12.5" result="blur-5"/>
      <feFlood flood-opacity="0.063"/>
      <feComposite operator="in" in2="blur-5"/>
      <feComposite in="SourceGraphic"/>
    </filter>
    <filter id="Trazado_150691" x="625.428" y="92.867" width="174" height="174" filterUnits="userSpaceOnUse">
      <feOffset dx="5" dy="5" input="SourceAlpha"/>
      <feGaussianBlur stdDeviation="12.5" result="blur-6"/>
      <feFlood flood-opacity="0.063"/>
      <feComposite operator="in" in2="blur-6"/>
      <feComposite in="SourceGraphic"/>
    </filter>
    <filter id="Trazado_150692" x="751.452" y="92.867" width="174" height="174" filterUnits="userSpaceOnUse">
      <feOffset dx="5" dy="5" input="SourceAlpha"/>
      <feGaussianBlur stdDeviation="12.5" result="blur-7"/>
      <feFlood flood-opacity="0.063"/>
      <feComposite operator="in" in2="blur-7"/>
      <feComposite in="SourceGraphic"/>
    </filter>
    <filter id="Trazado_150693" x="876.354" y="92.867" width="174" height="174" filterUnits="userSpaceOnUse">
      <feOffset dx="5" dy="5" input="SourceAlpha"/>
      <feGaussianBlur stdDeviation="12.5" result="blur-8"/>
      <feFlood flood-opacity="0.063"/>
      <feComposite operator="in" in2="blur-8"/>
      <feComposite in="SourceGraphic"/>
    </filter>
    <clipPath id="clip-path-9">
      <rect id="Rectángulo_38725" data-name="Rectángulo 38725" width="44.998" height="44.998" fill="#43a99b"/>
    </clipPath>
    <clipPath id="clip-path-10">
      <rect id="Rectángulo_38726" data-name="Rectángulo 38726" width="46.276" height="48.414" transform="translate(0 0)" fill="#43a99b"/>
    </clipPath>
    <clipPath id="clip-path-11">
      <rect id="Rectángulo_38732" data-name="Rectángulo 38732" width="45" height="46" fill="#a4a3ff"/>
    </clipPath>
    <clipPath id="clip-path-12">
      <rect id="Rectángulo_38738" data-name="Rectángulo 38738" width="47.536" height="45.776" transform="translate(0 0)" fill="#5263e2"/>
    </clipPath>
    <clipPath id="clip-path-13">
      <rect id="Rectángulo_38739" data-name="Rectángulo 38739" width="47.376" height="48.084" fill="#ff8578"/>
    </clipPath>
    <clipPath id="clip-path-14">
      <rect id="Rectángulo_38755" data-name="Rectángulo 38755" width="42" height="42" fill="#ff8578"/>
    </clipPath>
    <clipPath id="clip-path-15">
      <rect id="Rectángulo_38749" data-name="Rectángulo 38749" width="38" height="47" fill="#ffce5a"/>
    </clipPath>
    <clipPath id="clip-path-16">
      <rect id="Rectángulo_38753" data-name="Rectángulo 38753" width="41.077" height="44" fill="#ffce5a"/>
    </clipPath>
  </defs>
  <g id="Grupo_145438" data-name="Grupo 145438" transform="translate(3014.92 2683.482)">
    <path id="Trazado_150848" data-name="Trazado 150848" d="M14.7,4.2l4.184,10.441L23.067,4.2h2.188V17H23.568V12.017l.158-5.379L19.525,17H18.233L14.041,6.664l.167,5.353V17H12.521V4.2ZM29.747,17H28.121V7.49h1.626ZM27.989,4.968a.971.971,0,0,1,.242-.668.907.907,0,0,1,.716-.272.922.922,0,0,1,.721.272.96.96,0,0,1,.246.668.929.929,0,0,1-.246.659.938.938,0,0,1-.721.264.924.924,0,0,1-.716-.264A.938.938,0,0,1,27.989,4.968Zm9.9,9.51a1.2,1.2,0,0,0-.5-1.024,4.78,4.78,0,0,0-1.731-.628,8.186,8.186,0,0,1-1.96-.633,2.788,2.788,0,0,1-1.072-.879,2.1,2.1,0,0,1-.347-1.213,2.467,2.467,0,0,1,.989-1.978,3.861,3.861,0,0,1,2.527-.809,3.974,3.974,0,0,1,2.624.835,2.652,2.652,0,0,1,1.006,2.136H37.789a1.468,1.468,0,0,0-.567-1.151,2.124,2.124,0,0,0-1.428-.483,2.223,2.223,0,0,0-1.389.387,1.217,1.217,0,0,0-.5,1.011.986.986,0,0,0,.466.888,5.731,5.731,0,0,0,1.683.571,8.77,8.77,0,0,1,1.973.65,2.878,2.878,0,0,1,1.121.91,2.237,2.237,0,0,1,.365,1.3,2.434,2.434,0,0,1-1.02,2.043,4.277,4.277,0,0,1-2.646.769,4.789,4.789,0,0,1-2.021-.4,3.288,3.288,0,0,1-1.375-1.129,2.722,2.722,0,0,1-.5-1.569h1.626a1.683,1.683,0,0,0,.655,1.3,2.54,2.54,0,0,0,1.613.479,2.622,2.622,0,0,0,1.481-.374A1.148,1.148,0,0,0,37.886,14.478ZM43.4,17H41.771V7.49H43.4ZM41.639,4.968A.971.971,0,0,1,41.88,4.3a.907.907,0,0,1,.716-.272.922.922,0,0,1,.721.272.96.96,0,0,1,.246.668.929.929,0,0,1-.246.659.938.938,0,0,1-.721.264.924.924,0,0,1-.716-.264A.938.938,0,0,1,41.639,4.968Zm3.929,7.189a5.617,5.617,0,0,1,.549-2.514,4.1,4.1,0,0,1,1.529-1.723,4.163,4.163,0,0,1,2.237-.606,4.01,4.01,0,0,1,3.142,1.345,5.174,5.174,0,0,1,1.2,3.577v.114a5.666,5.666,0,0,1-.532,2.492,4.038,4.038,0,0,1-1.521,1.718,4.211,4.211,0,0,1-2.272.615,4,4,0,0,1-3.133-1.345,5.147,5.147,0,0,1-1.2-3.56Zm1.635.193a4.068,4.068,0,0,0,.734,2.54,2.487,2.487,0,0,0,3.933-.013,4.449,4.449,0,0,0,.729-2.72,4.061,4.061,0,0,0-.743-2.536,2.361,2.361,0,0,0-1.973-.971,2.335,2.335,0,0,0-1.942.958A4.416,4.416,0,0,0,47.2,12.351Zm3.419-8.833H52.59L50.234,6.1l-1.31,0ZM57.8,7.49l.053,1.2A3.465,3.465,0,0,1,60.7,7.314q3.015,0,3.041,3.4V17H62.117V10.707a2.189,2.189,0,0,0-.47-1.521,1.884,1.884,0,0,0-1.437-.492,2.347,2.347,0,0,0-1.389.422,2.865,2.865,0,0,0-.932,1.107V17H56.264V7.49Z" transform="translate(-2974 -2687)" fill="#12263f"/>
    <path id="Trazado_150849" data-name="Trazado 150849" d="M6.737,11.823H3.731V17h-1.7V4.2H6.271A5.014,5.014,0,0,1,9.6,5.188a3.542,3.542,0,0,1,1.165,2.865,3.445,3.445,0,0,1-.646,2.083,3.856,3.856,0,0,1-1.8,1.327l3.006,5.432V17H9.515Zm-3.006-1.38H6.324a2.924,2.924,0,0,0,2-.652,2.2,2.2,0,0,0,.743-1.743,2.32,2.32,0,0,0-.708-1.823,3,3,0,0,0-2.043-.643H3.731Zm13.087,6.732a4.155,4.155,0,0,1-3.146-1.27,4.714,4.714,0,0,1-1.213-3.4v-.3A5.707,5.707,0,0,1,13,9.683a4.217,4.217,0,0,1,1.512-1.74,3.8,3.8,0,0,1,2.1-.628A3.562,3.562,0,0,1,19.5,8.536a5.289,5.289,0,0,1,1.028,3.5v.677H14.085a3.38,3.38,0,0,0,.822,2.272,2.583,2.583,0,0,0,2,.866,2.832,2.832,0,0,0,1.459-.352,3.666,3.666,0,0,0,1.046-.932l.993.773A3.993,3.993,0,0,1,16.818,17.176Zm-.2-8.525a2.169,2.169,0,0,0-1.652.716,3.482,3.482,0,0,0-.826,2.008H18.9v-.123a3.1,3.1,0,0,0-.668-1.92A2.042,2.042,0,0,0,16.616,8.65Zm9.606,7.2a2.342,2.342,0,0,0,1.521-.527A1.855,1.855,0,0,0,28.464,14H30a2.949,2.949,0,0,1-.562,1.556,3.7,3.7,0,0,1-1.384,1.178,3.994,3.994,0,0,1-1.833.439,3.918,3.918,0,0,1-3.089-1.3,5.163,5.163,0,0,1-1.147-3.546v-.272a5.725,5.725,0,0,1,.51-2.47,3.883,3.883,0,0,1,1.463-1.679,4.157,4.157,0,0,1,2.254-.6,3.814,3.814,0,0,1,2.659.958A3.424,3.424,0,0,1,30,10.76H28.464a2.241,2.241,0,0,0-.7-1.516,2.174,2.174,0,0,0-1.551-.593,2.276,2.276,0,0,0-1.92.892,4.19,4.19,0,0,0-.681,2.58v.308a4.106,4.106,0,0,0,.677,2.531A2.287,2.287,0,0,0,26.223,15.849ZM37.7,16.06a3.454,3.454,0,0,1-2.786,1.116,2.956,2.956,0,0,1-2.316-.883,3.823,3.823,0,0,1-.8-2.615V7.49h1.626v6.144q0,2.162,1.758,2.162a2.434,2.434,0,0,0,2.479-1.389V7.49h1.626V17H37.736Zm8.648-7.11a4.873,4.873,0,0,0-.8-.062,2.143,2.143,0,0,0-2.171,1.362V17H41.753V7.49h1.582l.026,1.1a2.532,2.532,0,0,1,2.268-1.274,1.661,1.661,0,0,1,.721.123Zm7.031,5.528a1.2,1.2,0,0,0-.5-1.024,4.78,4.78,0,0,0-1.731-.628,8.186,8.186,0,0,1-1.96-.633,2.788,2.788,0,0,1-1.072-.879,2.1,2.1,0,0,1-.347-1.213,2.467,2.467,0,0,1,.989-1.978,3.861,3.861,0,0,1,2.527-.809,3.974,3.974,0,0,1,2.624.835,2.652,2.652,0,0,1,1.006,2.136H53.284a1.468,1.468,0,0,0-.567-1.151,2.124,2.124,0,0,0-1.428-.483,2.223,2.223,0,0,0-1.389.387,1.217,1.217,0,0,0-.5,1.011.986.986,0,0,0,.466.888,5.731,5.731,0,0,0,1.683.571,8.77,8.77,0,0,1,1.973.65,2.878,2.878,0,0,1,1.121.91,2.237,2.237,0,0,1,.365,1.3,2.434,2.434,0,0,1-1.02,2.043,4.277,4.277,0,0,1-2.646.769,4.789,4.789,0,0,1-2.021-.4,3.288,3.288,0,0,1-1.375-1.129,2.722,2.722,0,0,1-.5-1.569h1.626a1.683,1.683,0,0,0,.655,1.3,2.54,2.54,0,0,0,1.613.479,2.622,2.622,0,0,0,1.481-.374A1.148,1.148,0,0,0,53.381,14.478Zm3.313-2.32a5.617,5.617,0,0,1,.549-2.514,4.1,4.1,0,0,1,1.529-1.723,4.163,4.163,0,0,1,2.237-.606,4.01,4.01,0,0,1,3.142,1.345,5.174,5.174,0,0,1,1.2,3.577v.114a5.666,5.666,0,0,1-.532,2.492A4.038,4.038,0,0,1,63.3,16.561a4.211,4.211,0,0,1-2.272.615,4,4,0,0,1-3.133-1.345,5.147,5.147,0,0,1-1.2-3.56Zm1.635.193a4.068,4.068,0,0,0,.734,2.54A2.487,2.487,0,0,0,63,14.877a4.449,4.449,0,0,0,.729-2.72,4.061,4.061,0,0,0-.743-2.536A2.361,2.361,0,0,0,61.01,8.65a2.335,2.335,0,0,0-1.942.958A4.416,4.416,0,0,0,58.329,12.351Zm14.6,2.127a1.2,1.2,0,0,0-.5-1.024,4.78,4.78,0,0,0-1.731-.628,8.186,8.186,0,0,1-1.96-.633,2.788,2.788,0,0,1-1.072-.879A2.1,2.1,0,0,1,67.32,10.1a2.467,2.467,0,0,1,.989-1.978,3.861,3.861,0,0,1,2.527-.809,3.974,3.974,0,0,1,2.624.835,2.652,2.652,0,0,1,1.006,2.136H72.831a1.468,1.468,0,0,0-.567-1.151,2.124,2.124,0,0,0-1.428-.483,2.223,2.223,0,0,0-1.389.387,1.217,1.217,0,0,0-.5,1.011.986.986,0,0,0,.466.888,5.731,5.731,0,0,0,1.683.571,8.77,8.77,0,0,1,1.973.65,2.878,2.878,0,0,1,1.121.91,2.237,2.237,0,0,1,.365,1.3,2.434,2.434,0,0,1-1.02,2.043,4.277,4.277,0,0,1-2.646.769,4.789,4.789,0,0,1-2.021-.4,3.288,3.288,0,0,1-1.375-1.129,2.722,2.722,0,0,1-.5-1.569h1.626a1.683,1.683,0,0,0,.655,1.3,2.54,2.54,0,0,0,1.613.479,2.622,2.622,0,0,0,1.481-.374A1.148,1.148,0,0,0,72.928,14.478Z" transform="translate(-2722 -2687)" fill="#12263f"/>
    <path id="Trazado_150850" data-name="Trazado 150850" d="M9.1,11.823H6.094V17H4.4V4.2H8.634a5.014,5.014,0,0,1,3.327.984,3.542,3.542,0,0,1,1.165,2.865,3.445,3.445,0,0,1-.646,2.083,3.856,3.856,0,0,1-1.8,1.327l3.006,5.432V17H11.877Zm-3.006-1.38H8.687a2.924,2.924,0,0,0,2-.652,2.2,2.2,0,0,0,.743-1.743,2.32,2.32,0,0,0-.708-1.823,3,3,0,0,0-2.043-.643H6.094Zm13.087,6.732a4.155,4.155,0,0,1-3.146-1.27,4.714,4.714,0,0,1-1.213-3.4v-.3a5.707,5.707,0,0,1,.541-2.527,4.217,4.217,0,0,1,1.512-1.74,3.8,3.8,0,0,1,2.1-.628,3.562,3.562,0,0,1,2.883,1.222,5.289,5.289,0,0,1,1.028,3.5v.677H16.448a3.38,3.38,0,0,0,.822,2.272,2.583,2.583,0,0,0,2,.866,2.832,2.832,0,0,0,1.459-.352,3.666,3.666,0,0,0,1.046-.932l.993.773A3.993,3.993,0,0,1,19.181,17.176Zm-.2-8.525a2.169,2.169,0,0,0-1.652.716,3.482,3.482,0,0,0-.826,2.008h4.764v-.123a3.1,3.1,0,0,0-.668-1.92A2.042,2.042,0,0,0,18.979,8.65Zm9.606,7.2a2.342,2.342,0,0,0,1.521-.527A1.855,1.855,0,0,0,30.827,14h1.538a2.949,2.949,0,0,1-.562,1.556,3.7,3.7,0,0,1-1.384,1.178,3.994,3.994,0,0,1-1.833.439,3.918,3.918,0,0,1-3.089-1.3,5.163,5.163,0,0,1-1.147-3.546v-.272a5.725,5.725,0,0,1,.51-2.47,3.883,3.883,0,0,1,1.463-1.679,4.157,4.157,0,0,1,2.254-.6,3.814,3.814,0,0,1,2.659.958,3.424,3.424,0,0,1,1.129,2.487H30.827a2.241,2.241,0,0,0-.7-1.516,2.174,2.174,0,0,0-1.551-.593,2.276,2.276,0,0,0-1.92.892,4.19,4.19,0,0,0-.681,2.58v.308a4.106,4.106,0,0,0,.677,2.531A2.287,2.287,0,0,0,28.585,15.849Zm5.177-3.691a5.617,5.617,0,0,1,.549-2.514,4.1,4.1,0,0,1,1.529-1.723,4.163,4.163,0,0,1,2.237-.606A4.01,4.01,0,0,1,41.22,8.659a5.174,5.174,0,0,1,1.2,3.577v.114a5.666,5.666,0,0,1-.532,2.492,4.038,4.038,0,0,1-1.521,1.718,4.211,4.211,0,0,1-2.272.615,4,4,0,0,1-3.133-1.345,5.147,5.147,0,0,1-1.2-3.56Zm1.635.193a4.068,4.068,0,0,0,.734,2.54,2.487,2.487,0,0,0,3.933-.013,4.449,4.449,0,0,0,.729-2.72,4.061,4.061,0,0,0-.743-2.536,2.361,2.361,0,0,0-1.973-.971,2.335,2.335,0,0,0-1.942.958A4.416,4.416,0,0,0,35.4,12.351ZM46,7.49l.053,1.2A3.465,3.465,0,0,1,48.9,7.314q3.015,0,3.041,3.4V17H50.312V10.707a2.189,2.189,0,0,0-.47-1.521A1.884,1.884,0,0,0,48.4,8.694a2.347,2.347,0,0,0-1.389.422,2.865,2.865,0,0,0-.932,1.107V17H44.458V7.49Zm7.963,4.667a5.617,5.617,0,0,1,.549-2.514,4.1,4.1,0,0,1,1.529-1.723,4.163,4.163,0,0,1,2.237-.606,4.01,4.01,0,0,1,3.142,1.345,5.174,5.174,0,0,1,1.2,3.577v.114a5.666,5.666,0,0,1-.532,2.492,4.038,4.038,0,0,1-1.521,1.718,4.211,4.211,0,0,1-2.272.615,4,4,0,0,1-3.133-1.345,5.147,5.147,0,0,1-1.2-3.56Zm1.635.193a4.068,4.068,0,0,0,.734,2.54,2.487,2.487,0,0,0,3.933-.013,4.449,4.449,0,0,0,.729-2.72,4.061,4.061,0,0,0-.743-2.536,2.361,2.361,0,0,0-1.973-.971,2.335,2.335,0,0,0-1.942.958A4.416,4.416,0,0,0,55.594,12.351Zm12.876,3.5a2.342,2.342,0,0,0,1.521-.527A1.855,1.855,0,0,0,70.711,14H72.25a2.949,2.949,0,0,1-.562,1.556A3.7,3.7,0,0,1,70.3,16.736a3.994,3.994,0,0,1-1.833.439,3.918,3.918,0,0,1-3.089-1.3,5.163,5.163,0,0,1-1.147-3.546v-.272a5.725,5.725,0,0,1,.51-2.47,3.883,3.883,0,0,1,1.463-1.679,4.157,4.157,0,0,1,2.254-.6,3.814,3.814,0,0,1,2.659.958A3.424,3.424,0,0,1,72.25,10.76H70.711a2.241,2.241,0,0,0-.7-1.516,2.174,2.174,0,0,0-1.551-.593,2.276,2.276,0,0,0-1.92.892,4.19,4.19,0,0,0-.681,2.58v.308a4.106,4.106,0,0,0,.677,2.531A2.287,2.287,0,0,0,68.47,15.849ZM75.844,17H74.218V7.49h1.626ZM74.086,4.968a.971.971,0,0,1,.242-.668.907.907,0,0,1,.716-.272.922.922,0,0,1,.721.272.96.96,0,0,1,.246.668.929.929,0,0,1-.246.659.938.938,0,0,1-.721.264.924.924,0,0,1-.716-.264A.938.938,0,0,1,74.086,4.968ZM79.975,7.49l.044,1.055a3.512,3.512,0,0,1,2.821-1.23,2.719,2.719,0,0,1,2.716,1.529,3.6,3.6,0,0,1,1.235-1.107,3.647,3.647,0,0,1,1.8-.422q3.129,0,3.182,3.313V17H90.144V10.725A2.184,2.184,0,0,0,89.678,9.2a2.051,2.051,0,0,0-1.564-.505,2.156,2.156,0,0,0-1.5.541,2.193,2.193,0,0,0-.694,1.455V17H84.282V10.769a1.814,1.814,0,0,0-2.03-2.074,2.175,2.175,0,0,0-2.188,1.362V17H78.437V7.49ZM95.989,17H94.363V7.49h1.626ZM94.231,4.968a.971.971,0,0,1,.242-.668.907.907,0,0,1,.716-.272.922.922,0,0,1,.721.272.96.96,0,0,1,.246.668.929.929,0,0,1-.246.659.938.938,0,0,1-.721.264.924.924,0,0,1-.716-.264A.938.938,0,0,1,94.231,4.968Zm8.306,12.208a4.155,4.155,0,0,1-3.146-1.27,4.714,4.714,0,0,1-1.213-3.4v-.3a5.707,5.707,0,0,1,.541-2.527,4.217,4.217,0,0,1,1.512-1.74,3.8,3.8,0,0,1,2.1-.628,3.562,3.562,0,0,1,2.883,1.222,5.289,5.289,0,0,1,1.028,3.5v.677H99.8a3.38,3.38,0,0,0,.822,2.272,2.583,2.583,0,0,0,2,.866,2.832,2.832,0,0,0,1.459-.352,3.666,3.666,0,0,0,1.046-.932l.993.773A3.993,3.993,0,0,1,102.537,17.176Zm-.2-8.525a2.169,2.169,0,0,0-1.652.716,3.482,3.482,0,0,0-.826,2.008h4.764v-.123a3.1,3.1,0,0,0-.668-1.92A2.042,2.042,0,0,0,102.334,8.65Zm7.33-1.16.053,1.2a3.465,3.465,0,0,1,2.848-1.371q3.015,0,3.041,3.4V17H113.98V10.707a2.189,2.189,0,0,0-.47-1.521,1.884,1.884,0,0,0-1.437-.492,2.347,2.347,0,0,0-1.389.422,2.865,2.865,0,0,0-.932,1.107V17h-1.626V7.49Zm10.6-2.3v2.3h1.775V8.747h-1.775v5.9a1.32,1.32,0,0,0,.237.858,1,1,0,0,0,.809.286,3.937,3.937,0,0,0,.773-.105V17a4.742,4.742,0,0,1-1.248.175,2.025,2.025,0,0,1-1.644-.659,2.832,2.832,0,0,1-.554-1.872v-5.9h-1.731V7.49h1.731v-2.3Zm3.067,6.97a5.617,5.617,0,0,1,.549-2.514,4.1,4.1,0,0,1,1.529-1.723,4.163,4.163,0,0,1,2.237-.606,4.01,4.01,0,0,1,3.142,1.345,5.174,5.174,0,0,1,1.2,3.577v.114a5.666,5.666,0,0,1-.532,2.492,4.038,4.038,0,0,1-1.521,1.718,4.211,4.211,0,0,1-2.272.615,4,4,0,0,1-3.133-1.345,5.147,5.147,0,0,1-1.2-3.56Zm1.635.193a4.068,4.068,0,0,0,.734,2.54,2.487,2.487,0,0,0,3.933-.013,4.449,4.449,0,0,0,.729-2.72,4.061,4.061,0,0,0-.743-2.536,2.361,2.361,0,0,0-1.973-.971,2.335,2.335,0,0,0-1.942.958A4.416,4.416,0,0,0,124.966,12.351Zm14.6,2.127a1.2,1.2,0,0,0-.5-1.024,4.78,4.78,0,0,0-1.731-.628,8.186,8.186,0,0,1-1.96-.633,2.788,2.788,0,0,1-1.072-.879,2.1,2.1,0,0,1-.347-1.213,2.467,2.467,0,0,1,.989-1.978,3.861,3.861,0,0,1,2.527-.809,3.974,3.974,0,0,1,2.624.835,2.652,2.652,0,0,1,1.006,2.136h-1.635a1.468,1.468,0,0,0-.567-1.151,2.124,2.124,0,0,0-1.428-.483,2.223,2.223,0,0,0-1.389.387,1.217,1.217,0,0,0-.5,1.011.986.986,0,0,0,.466.888,5.731,5.731,0,0,0,1.683.571,8.77,8.77,0,0,1,1.973.65,2.878,2.878,0,0,1,1.121.91,2.237,2.237,0,0,1,.365,1.3,2.434,2.434,0,0,1-1.02,2.043,4.277,4.277,0,0,1-2.646.769,4.789,4.789,0,0,1-2.021-.4,3.288,3.288,0,0,1-1.375-1.129,2.722,2.722,0,0,1-.5-1.569h1.626a1.683,1.683,0,0,0,.655,1.3,2.54,2.54,0,0,0,1.613.479,2.622,2.622,0,0,0,1.481-.374A1.148,1.148,0,0,0,139.565,14.478Z" transform="translate(-2495 -2687)" fill="#12263f"/>
    <path id="Trazado_150851" data-name="Trazado 150851" d="M6.812,11.3a7.935,7.935,0,0,1-3.16-1.534,2.93,2.93,0,0,1-.989-2.246,3.1,3.1,0,0,1,1.208-2.5,4.8,4.8,0,0,1,3.142-.989,5.243,5.243,0,0,1,2.351.51,3.866,3.866,0,0,1,1.6,1.406,3.6,3.6,0,0,1,.567,1.96h-1.7A2.34,2.34,0,0,0,9.1,6.073a3,3,0,0,0-2.083-.666,3.074,3.074,0,0,0-1.947.55,1.836,1.836,0,0,0-.7,1.528A1.652,1.652,0,0,0,5.032,8.81,6.509,6.509,0,0,0,7.291,9.8a10.481,10.481,0,0,1,2.5.99,3.788,3.788,0,0,1,1.336,1.261,3.219,3.219,0,0,1,.435,1.7,2.99,2.99,0,0,1-1.213,2.492,5.171,5.171,0,0,1-3.243.936,6.015,6.015,0,0,1-2.461-.505,4.142,4.142,0,0,1-1.762-1.384,3.378,3.378,0,0,1-.62-2h1.7a2.2,2.2,0,0,0,.857,1.833A3.608,3.608,0,0,0,7.1,15.8a3.317,3.317,0,0,0,2.048-.545,1.77,1.77,0,0,0,.712-1.485A1.738,1.738,0,0,0,9.2,12.311,7.6,7.6,0,0,0,6.812,11.3Zm10.6,5.88a4.155,4.155,0,0,1-3.146-1.27,4.714,4.714,0,0,1-1.213-3.4v-.3a5.707,5.707,0,0,1,.541-2.527A4.217,4.217,0,0,1,15.1,7.943a3.8,3.8,0,0,1,2.1-.628,3.562,3.562,0,0,1,2.883,1.222,5.289,5.289,0,0,1,1.028,3.5v.677H14.678a3.38,3.38,0,0,0,.822,2.272,2.583,2.583,0,0,0,2,.866,2.832,2.832,0,0,0,1.459-.352A3.666,3.666,0,0,0,20,14.565l.993.773A3.993,3.993,0,0,1,17.412,17.176Zm-.2-8.525a2.169,2.169,0,0,0-1.652.716,3.482,3.482,0,0,0-.826,2.008h4.764v-.123a3.1,3.1,0,0,0-.668-1.92A2.042,2.042,0,0,0,17.209,8.65Zm10.389.3a4.873,4.873,0,0,0-.8-.062,2.143,2.143,0,0,0-2.171,1.362V17H23V7.49h1.582l.026,1.1a2.532,2.532,0,0,1,2.268-1.274,1.661,1.661,0,0,1,.721.123Zm4.79,5.845,2.355-7.3H36.4L32.995,17H31.755L28.31,7.49h1.661ZM39.736,17H38.11V7.49h1.626ZM37.978,4.968A.971.971,0,0,1,38.22,4.3a.907.907,0,0,1,.716-.272.922.922,0,0,1,.721.272.96.96,0,0,1,.246.668.929.929,0,0,1-.246.659.938.938,0,0,1-.721.264.924.924,0,0,1-.716-.264A.938.938,0,0,1,37.978,4.968Zm8.174,10.881a2.342,2.342,0,0,0,1.521-.527A1.855,1.855,0,0,0,48.393,14h1.538a2.949,2.949,0,0,1-.562,1.556,3.7,3.7,0,0,1-1.384,1.178,3.994,3.994,0,0,1-1.833.439,3.918,3.918,0,0,1-3.089-1.3,5.163,5.163,0,0,1-1.147-3.546v-.272a5.725,5.725,0,0,1,.51-2.47,3.883,3.883,0,0,1,1.463-1.679,4.157,4.157,0,0,1,2.254-.6,3.814,3.814,0,0,1,2.659.958,3.424,3.424,0,0,1,1.129,2.487H48.393a2.241,2.241,0,0,0-.7-1.516,2.174,2.174,0,0,0-1.551-.593,2.276,2.276,0,0,0-1.92.892,4.19,4.19,0,0,0-.681,2.58v.308a4.106,4.106,0,0,0,.677,2.531A2.287,2.287,0,0,0,46.152,15.849ZM53.526,17H51.9V7.49h1.626ZM51.768,4.968A.971.971,0,0,1,52.01,4.3a.907.907,0,0,1,.716-.272.922.922,0,0,1,.721.272.96.96,0,0,1,.246.668.929.929,0,0,1-.246.659.938.938,0,0,1-.721.264.924.924,0,0,1-.716-.264A.938.938,0,0,1,51.768,4.968ZM55.7,12.157a5.617,5.617,0,0,1,.549-2.514,4.1,4.1,0,0,1,1.529-1.723,4.163,4.163,0,0,1,2.237-.606,4.01,4.01,0,0,1,3.142,1.345,5.174,5.174,0,0,1,1.2,3.577v.114a5.666,5.666,0,0,1-.532,2.492A4.038,4.038,0,0,1,62.3,16.561a4.211,4.211,0,0,1-2.272.615A4,4,0,0,1,56.9,15.831a5.147,5.147,0,0,1-1.2-3.56Zm1.635.193a4.068,4.068,0,0,0,.734,2.54A2.487,2.487,0,0,0,62,14.877a4.449,4.449,0,0,0,.729-2.72,4.061,4.061,0,0,0-.743-2.536,2.361,2.361,0,0,0-1.973-.971,2.335,2.335,0,0,0-1.942.958A4.416,4.416,0,0,0,57.332,12.351Zm14.6,2.127a1.2,1.2,0,0,0-.5-1.024,4.78,4.78,0,0,0-1.731-.628,8.186,8.186,0,0,1-1.96-.633,2.788,2.788,0,0,1-1.072-.879,2.1,2.1,0,0,1-.347-1.213,2.467,2.467,0,0,1,.989-1.978,3.861,3.861,0,0,1,2.527-.809,3.974,3.974,0,0,1,2.624.835,2.652,2.652,0,0,1,1.006,2.136H71.833a1.468,1.468,0,0,0-.567-1.151,2.124,2.124,0,0,0-1.428-.483,2.223,2.223,0,0,0-1.389.387,1.217,1.217,0,0,0-.5,1.011.986.986,0,0,0,.466.888,5.731,5.731,0,0,0,1.683.571,8.77,8.77,0,0,1,1.973.65,2.878,2.878,0,0,1,1.121.91,2.237,2.237,0,0,1,.365,1.3,2.434,2.434,0,0,1-1.02,2.043,4.277,4.277,0,0,1-2.646.769,4.789,4.789,0,0,1-2.021-.4,3.288,3.288,0,0,1-1.375-1.129,2.722,2.722,0,0,1-.5-1.569h1.626a1.683,1.683,0,0,0,.655,1.3,2.54,2.54,0,0,0,1.613.479,2.622,2.622,0,0,0,1.481-.374A1.148,1.148,0,0,0,71.93,14.478Z" transform="translate(-2224 -2687)" fill="#12263f"/>
    <path id="Trazado_150852" data-name="Trazado 150852" d="M18.888,14.759,22.544,4.2H24.39L19.644,17H18.15L13.413,4.2H15.25ZM27.616,17H25.99V7.49h1.626ZM25.858,4.968A.971.971,0,0,1,26.1,4.3a.907.907,0,0,1,.716-.272.922.922,0,0,1,.721.272.96.96,0,0,1,.246.668.929.929,0,0,1-.246.659.938.938,0,0,1-.721.264.924.924,0,0,1-.716-.264A.938.938,0,0,1,25.858,4.968Zm9.9,9.51a1.2,1.2,0,0,0-.5-1.024,4.78,4.78,0,0,0-1.731-.628,8.186,8.186,0,0,1-1.96-.633,2.788,2.788,0,0,1-1.072-.879,2.1,2.1,0,0,1-.347-1.213,2.467,2.467,0,0,1,.989-1.978,3.861,3.861,0,0,1,2.527-.809,3.974,3.974,0,0,1,2.624.835,2.652,2.652,0,0,1,1.006,2.136H35.658a1.468,1.468,0,0,0-.567-1.151,2.124,2.124,0,0,0-1.428-.483,2.223,2.223,0,0,0-1.389.387,1.217,1.217,0,0,0-.5,1.011.986.986,0,0,0,.466.888,5.731,5.731,0,0,0,1.683.571,8.77,8.77,0,0,1,1.973.65,2.878,2.878,0,0,1,1.121.91,2.237,2.237,0,0,1,.365,1.3,2.434,2.434,0,0,1-1.02,2.043,4.277,4.277,0,0,1-2.646.769,4.789,4.789,0,0,1-2.021-.4,3.288,3.288,0,0,1-1.375-1.129,2.722,2.722,0,0,1-.5-1.569h1.626a1.683,1.683,0,0,0,.655,1.3,2.54,2.54,0,0,0,1.613.479,2.622,2.622,0,0,0,1.481-.374A1.148,1.148,0,0,0,35.754,14.478ZM41.265,17H39.639V7.49h1.626ZM39.507,4.968a.971.971,0,0,1,.242-.668.907.907,0,0,1,.716-.272.922.922,0,0,1,.721.272.96.96,0,0,1,.246.668.929.929,0,0,1-.246.659.938.938,0,0,1-.721.264.924.924,0,0,1-.716-.264A.938.938,0,0,1,39.507,4.968Zm3.929,7.189a5.617,5.617,0,0,1,.549-2.514,4.1,4.1,0,0,1,1.529-1.723,4.163,4.163,0,0,1,2.237-.606,4.01,4.01,0,0,1,3.142,1.345,5.174,5.174,0,0,1,1.2,3.577v.114a5.666,5.666,0,0,1-.532,2.492,4.038,4.038,0,0,1-1.521,1.718,4.211,4.211,0,0,1-2.272.615,4,4,0,0,1-3.133-1.345,5.147,5.147,0,0,1-1.2-3.56Zm1.635.193a4.068,4.068,0,0,0,.734,2.54,2.487,2.487,0,0,0,3.933-.013,4.449,4.449,0,0,0,.729-2.72,4.061,4.061,0,0,0-.743-2.536,2.361,2.361,0,0,0-1.973-.971,2.335,2.335,0,0,0-1.942.958A4.416,4.416,0,0,0,45.071,12.351ZM48.49,3.518h1.969L48.1,6.1l-1.31,0ZM55.67,7.49l.053,1.2a3.465,3.465,0,0,1,2.848-1.371q3.015,0,3.041,3.4V17H59.986V10.707a2.189,2.189,0,0,0-.47-1.521,1.884,1.884,0,0,0-1.437-.492,2.347,2.347,0,0,0-1.389.422,2.865,2.865,0,0,0-.932,1.107V17H54.132V7.49Z" transform="translate(-2847 -2366)" fill="#12263f"/>
    <path id="Trazado_150853" data-name="Trazado 150853" d="M28.955,13.651H23.593L22.389,17h-1.74L25.536,4.2h1.477l4.9,12.8H30.176ZM24.1,12.271h4.351l-2.18-5.985ZM35.142,17H33.516V3.5h1.626Zm4.368,0H37.884V7.49H39.51ZM37.752,4.968a.971.971,0,0,1,.242-.668.907.907,0,0,1,.716-.272.922.922,0,0,1,.721.272.96.96,0,0,1,.246.668.929.929,0,0,1-.246.659.938.938,0,0,1-.721.264.924.924,0,0,1-.716-.264A.938.938,0,0,1,37.752,4.968ZM47.983,17a3.416,3.416,0,0,1-.229-1,3.628,3.628,0,0,1-2.707,1.178,3.357,3.357,0,0,1-2.307-.8,2.573,2.573,0,0,1-.9-2.017,2.688,2.688,0,0,1,1.129-2.307,5.325,5.325,0,0,1,3.177-.822h1.582v-.747a1.826,1.826,0,0,0-.51-1.358,2.049,2.049,0,0,0-1.5-.505,2.371,2.371,0,0,0-1.459.439,1.3,1.3,0,0,0-.589,1.063H42.033a2.244,2.244,0,0,1,.505-1.375A3.449,3.449,0,0,1,43.909,7.7a4.613,4.613,0,0,1,1.9-.387,3.759,3.759,0,0,1,2.575.822,2.964,2.964,0,0,1,.967,2.263v4.377a5.351,5.351,0,0,0,.334,2.083V17Zm-2.7-1.239a2.858,2.858,0,0,0,1.45-.4,2.392,2.392,0,0,0,.993-1.028V12.386H46.454q-2.988,0-2.988,1.749a1.48,1.48,0,0,0,.51,1.2A1.959,1.959,0,0,0,45.285,15.761ZM53.441,7.49l.053,1.2a3.465,3.465,0,0,1,2.848-1.371q3.015,0,3.041,3.4V17H57.756V10.707a2.189,2.189,0,0,0-.47-1.521,1.884,1.884,0,0,0-1.437-.492,2.347,2.347,0,0,0-1.389.422,2.865,2.865,0,0,0-.932,1.107V17H51.9V7.49Zm9.923,8.183h5.563V17h-7.55V15.8l5.247-6.97H61.457V7.49h7.207V8.642ZM76.626,17a3.416,3.416,0,0,1-.229-1,3.628,3.628,0,0,1-2.707,1.178,3.357,3.357,0,0,1-2.307-.8,2.573,2.573,0,0,1-.9-2.017,2.688,2.688,0,0,1,1.129-2.307,5.325,5.325,0,0,1,3.177-.822h1.582v-.747a1.826,1.826,0,0,0-.51-1.358,2.049,2.049,0,0,0-1.5-.505,2.371,2.371,0,0,0-1.459.439,1.3,1.3,0,0,0-.589,1.063H70.676a2.244,2.244,0,0,1,.505-1.375A3.449,3.449,0,0,1,72.553,7.7a4.613,4.613,0,0,1,1.9-.387,3.759,3.759,0,0,1,2.575.822A2.964,2.964,0,0,1,78,10.4v4.377a5.351,5.351,0,0,0,.334,2.083V17Zm-2.7-1.239a2.858,2.858,0,0,0,1.45-.4,2.392,2.392,0,0,0,.993-1.028V12.386H75.1q-2.988,0-2.988,1.749a1.48,1.48,0,0,0,.51,1.2A1.959,1.959,0,0,0,73.928,15.761Zm12.155-1.283a1.2,1.2,0,0,0-.5-1.024,4.78,4.78,0,0,0-1.731-.628,8.186,8.186,0,0,1-1.96-.633,2.788,2.788,0,0,1-1.072-.879,2.1,2.1,0,0,1-.347-1.213,2.467,2.467,0,0,1,.989-1.978,3.861,3.861,0,0,1,2.527-.809,3.974,3.974,0,0,1,2.624.835,2.652,2.652,0,0,1,1.006,2.136H85.987a1.468,1.468,0,0,0-.567-1.151,2.124,2.124,0,0,0-1.428-.483,2.223,2.223,0,0,0-1.389.387,1.217,1.217,0,0,0-.5,1.011.986.986,0,0,0,.466.888,5.731,5.731,0,0,0,1.683.571,8.77,8.77,0,0,1,1.973.65,2.878,2.878,0,0,1,1.121.91,2.237,2.237,0,0,1,.365,1.3,2.434,2.434,0,0,1-1.02,2.043,4.277,4.277,0,0,1-2.646.769,4.789,4.789,0,0,1-2.021-.4,3.288,3.288,0,0,1-1.375-1.129,2.722,2.722,0,0,1-.5-1.569h1.626a1.683,1.683,0,0,0,.655,1.3,2.54,2.54,0,0,0,1.613.479,2.622,2.622,0,0,0,1.481-.374A1.148,1.148,0,0,0,86.083,14.478Zm-75.709,26.7a4.155,4.155,0,0,1-3.146-1.27,4.714,4.714,0,0,1-1.213-3.4v-.3a5.707,5.707,0,0,1,.541-2.527,4.217,4.217,0,0,1,1.512-1.74,3.8,3.8,0,0,1,2.1-.628,3.562,3.562,0,0,1,2.883,1.222,5.289,5.289,0,0,1,1.028,3.5v.677H7.641a3.38,3.38,0,0,0,.822,2.272,2.583,2.583,0,0,0,2,.866,2.832,2.832,0,0,0,1.459-.352,3.666,3.666,0,0,0,1.046-.932l.993.773A3.993,3.993,0,0,1,10.375,41.176Zm-.2-8.525a2.169,2.169,0,0,0-1.652.716,3.482,3.482,0,0,0-.826,2.008h4.764v-.123a3.1,3.1,0,0,0-.668-1.92A2.042,2.042,0,0,0,10.172,32.65ZM21.5,38.478a1.2,1.2,0,0,0-.5-1.024,4.78,4.78,0,0,0-1.731-.628,8.186,8.186,0,0,1-1.96-.633,2.788,2.788,0,0,1-1.072-.879,2.1,2.1,0,0,1-.347-1.213,2.467,2.467,0,0,1,.989-1.978,3.861,3.861,0,0,1,2.527-.809,3.974,3.974,0,0,1,2.624.835,2.652,2.652,0,0,1,1.006,2.136H21.4a1.468,1.468,0,0,0-.567-1.151,2.124,2.124,0,0,0-1.428-.483,2.223,2.223,0,0,0-1.389.387,1.217,1.217,0,0,0-.5,1.011.986.986,0,0,0,.466.888,5.731,5.731,0,0,0,1.683.571,8.77,8.77,0,0,1,1.973.65,2.878,2.878,0,0,1,1.121.91,2.237,2.237,0,0,1,.365,1.3,2.434,2.434,0,0,1-1.02,2.043,4.277,4.277,0,0,1-2.646.769,4.789,4.789,0,0,1-2.021-.4,3.288,3.288,0,0,1-1.375-1.129,2.722,2.722,0,0,1-.5-1.569h1.626a1.683,1.683,0,0,0,.655,1.3,2.54,2.54,0,0,0,1.613.479,2.622,2.622,0,0,0,1.481-.374A1.148,1.148,0,0,0,21.5,38.478Zm5.95-9.29v2.3h1.775v1.257H27.452v5.9a1.32,1.32,0,0,0,.237.858,1,1,0,0,0,.809.286,3.937,3.937,0,0,0,.773-.105V41a4.742,4.742,0,0,1-1.248.175,2.025,2.025,0,0,1-1.644-.659,2.832,2.832,0,0,1-.554-1.872v-5.9H24.094V31.49h1.731v-2.3Zm8.271,3.762a4.873,4.873,0,0,0-.8-.062,2.143,2.143,0,0,0-2.171,1.362V41H31.125V31.49h1.582l.026,1.1A2.532,2.532,0,0,1,35,31.314a1.661,1.661,0,0,1,.721.123ZM42.736,41a3.416,3.416,0,0,1-.229-1A3.628,3.628,0,0,1,39.8,41.176a3.357,3.357,0,0,1-2.307-.8,2.573,2.573,0,0,1-.9-2.017,2.688,2.688,0,0,1,1.129-2.307,5.325,5.325,0,0,1,3.177-.822h1.582v-.747a1.826,1.826,0,0,0-.51-1.358,2.049,2.049,0,0,0-1.5-.505,2.371,2.371,0,0,0-1.459.439,1.3,1.3,0,0,0-.589,1.063H36.786a2.244,2.244,0,0,1,.505-1.375,3.449,3.449,0,0,1,1.371-1.05,4.613,4.613,0,0,1,1.9-.387,3.759,3.759,0,0,1,2.575.822,2.964,2.964,0,0,1,.967,2.263v4.377a5.351,5.351,0,0,0,.334,2.083V41Zm-2.7-1.239a2.858,2.858,0,0,0,1.45-.4,2.392,2.392,0,0,0,.993-1.028V36.386H41.207q-2.988,0-2.988,1.749a1.48,1.48,0,0,0,.51,1.2A1.959,1.959,0,0,0,40.038,39.761Zm8.824-10.573v2.3h1.775v1.257H48.862v5.9a1.32,1.32,0,0,0,.237.858,1,1,0,0,0,.809.286,3.937,3.937,0,0,0,.773-.105V41a4.742,4.742,0,0,1-1.248.175,2.025,2.025,0,0,1-1.644-.659,2.832,2.832,0,0,1-.554-1.872v-5.9H45.5V31.49h1.731v-2.3Zm7.62,11.988a4.155,4.155,0,0,1-3.146-1.27,4.714,4.714,0,0,1-1.213-3.4v-.3a5.707,5.707,0,0,1,.541-2.527,4.217,4.217,0,0,1,1.512-1.74,3.8,3.8,0,0,1,2.1-.628,3.562,3.562,0,0,1,2.883,1.222,5.289,5.289,0,0,1,1.028,3.5v.677H53.749a3.38,3.38,0,0,0,.822,2.272,2.583,2.583,0,0,0,2,.866,2.832,2.832,0,0,0,1.459-.352,3.666,3.666,0,0,0,1.046-.932l.993.773A3.993,3.993,0,0,1,56.482,41.176Zm-.2-8.525a2.169,2.169,0,0,0-1.652.716,3.482,3.482,0,0,0-.826,2.008h4.764v-.123a3.1,3.1,0,0,0-.668-1.92A2.042,2.042,0,0,0,56.28,32.65Zm.791-5.133H59.04L56.684,30.1l-1.31,0Zm4.614,8.648a5.589,5.589,0,0,1,1.028-3.538,3.545,3.545,0,0,1,5.44-.083l.079-1.055h1.485v9.281a3.869,3.869,0,0,1-1.094,2.909,4.038,4.038,0,0,1-2.94,1.063,4.891,4.891,0,0,1-2.013-.439,3.465,3.465,0,0,1-1.5-1.2l.844-.976a3.18,3.18,0,0,0,2.558,1.292,2.491,2.491,0,0,0,1.85-.668,2.553,2.553,0,0,0,.664-1.881v-.817a3.342,3.342,0,0,1-2.663,1.125,3.248,3.248,0,0,1-2.7-1.345A5.876,5.876,0,0,1,61.685,36.166Zm1.635.185a4.264,4.264,0,0,0,.659,2.527,2.142,2.142,0,0,0,1.846.918,2.382,2.382,0,0,0,2.259-1.4V34.057a2.41,2.41,0,0,0-2.241-1.362,2.161,2.161,0,0,0-1.854.923A4.644,4.644,0,0,0,63.32,36.351ZM73.937,41H72.311V31.49h1.626ZM72.179,28.968a.971.971,0,0,1,.242-.668.907.907,0,0,1,.716-.272.922.922,0,0,1,.721.272.96.96,0,0,1,.246.668.929.929,0,0,1-.246.659.938.938,0,0,1-.721.264.924.924,0,0,1-.716-.264A.938.938,0,0,1,72.179,28.968Zm8.174,10.881a2.342,2.342,0,0,0,1.521-.527A1.855,1.855,0,0,0,82.594,38h1.538a2.949,2.949,0,0,1-.562,1.556,3.7,3.7,0,0,1-1.384,1.178,3.994,3.994,0,0,1-1.833.439,3.918,3.918,0,0,1-3.089-1.3,5.163,5.163,0,0,1-1.147-3.546v-.272a5.725,5.725,0,0,1,.51-2.47,3.883,3.883,0,0,1,1.463-1.679,4.157,4.157,0,0,1,2.254-.6A3.814,3.814,0,0,1,83,32.272a3.424,3.424,0,0,1,1.129,2.487H82.594a2.241,2.241,0,0,0-.7-1.516,2.174,2.174,0,0,0-1.551-.593,2.276,2.276,0,0,0-1.92.892,4.19,4.19,0,0,0-.681,2.58v.308a4.106,4.106,0,0,0,.677,2.531A2.287,2.287,0,0,0,80.353,39.849ZM91.832,41a3.416,3.416,0,0,1-.229-1A3.628,3.628,0,0,1,88.9,41.176a3.357,3.357,0,0,1-2.307-.8,2.573,2.573,0,0,1-.9-2.017,2.688,2.688,0,0,1,1.129-2.307,5.325,5.325,0,0,1,3.177-.822h1.582v-.747a1.826,1.826,0,0,0-.51-1.358,2.049,2.049,0,0,0-1.5-.505,2.371,2.371,0,0,0-1.459.439,1.3,1.3,0,0,0-.589,1.063H85.881a2.244,2.244,0,0,1,.505-1.375,3.449,3.449,0,0,1,1.371-1.05,4.613,4.613,0,0,1,1.9-.387,3.759,3.759,0,0,1,2.575.822A2.964,2.964,0,0,1,93.2,34.4v4.377a5.351,5.351,0,0,0,.334,2.083V41Zm-2.7-1.239a2.858,2.858,0,0,0,1.45-.4,2.392,2.392,0,0,0,.993-1.028V36.386H90.3q-2.988,0-2.988,1.749a1.48,1.48,0,0,0,.51,1.2A1.959,1.959,0,0,0,89.133,39.761Zm12.155-1.283a1.2,1.2,0,0,0-.5-1.024,4.78,4.78,0,0,0-1.731-.628,8.186,8.186,0,0,1-1.96-.633,2.788,2.788,0,0,1-1.072-.879,2.1,2.1,0,0,1-.347-1.213,2.467,2.467,0,0,1,.989-1.978,3.861,3.861,0,0,1,2.527-.809,3.974,3.974,0,0,1,2.624.835,2.652,2.652,0,0,1,1.006,2.136h-1.635a1.468,1.468,0,0,0-.567-1.151A2.124,2.124,0,0,0,99.2,32.65a2.223,2.223,0,0,0-1.389.387,1.217,1.217,0,0,0-.5,1.011.986.986,0,0,0,.466.888,5.731,5.731,0,0,0,1.683.571,8.77,8.77,0,0,1,1.973.65,2.878,2.878,0,0,1,1.121.91,2.237,2.237,0,0,1,.365,1.3,2.434,2.434,0,0,1-1.02,2.043,4.277,4.277,0,0,1-2.646.769,4.789,4.789,0,0,1-2.021-.4,3.288,3.288,0,0,1-1.375-1.129,2.722,2.722,0,0,1-.5-1.569h1.626a1.683,1.683,0,0,0,.655,1.3,2.54,2.54,0,0,0,1.613.479,2.622,2.622,0,0,0,1.481-.374A1.148,1.148,0,0,0,101.289,38.478Z" transform="translate(-2616 -2366)" fill="#12263f"/>
    <path id="Trazado_150854" data-name="Trazado 150854" d="M9.541,15.62h6.064V17H7.845V4.2h1.7ZM23.146,17a3.416,3.416,0,0,1-.229-1,3.628,3.628,0,0,1-2.707,1.178,3.357,3.357,0,0,1-2.307-.8,2.573,2.573,0,0,1-.9-2.017,2.688,2.688,0,0,1,1.129-2.307,5.325,5.325,0,0,1,3.177-.822h1.582v-.747a1.826,1.826,0,0,0-.51-1.358,2.049,2.049,0,0,0-1.5-.505,2.371,2.371,0,0,0-1.459.439,1.3,1.3,0,0,0-.589,1.063H17.2A2.244,2.244,0,0,1,17.7,8.751,3.449,3.449,0,0,1,19.073,7.7a4.613,4.613,0,0,1,1.9-.387,3.759,3.759,0,0,1,2.575.822,2.964,2.964,0,0,1,.967,2.263v4.377a5.351,5.351,0,0,0,.334,2.083V17Zm-2.7-1.239a2.858,2.858,0,0,0,1.45-.4,2.392,2.392,0,0,0,.993-1.028V12.386H21.617q-2.988,0-2.988,1.749a1.48,1.48,0,0,0,.51,1.2A1.959,1.959,0,0,0,20.448,15.761Zm14.669-3.41a5.654,5.654,0,0,1-1,3.5,3.2,3.2,0,0,1-2.689,1.323A3.315,3.315,0,0,1,28.64,15.9L28.561,17H27.066V3.5h1.626V8.536a3.3,3.3,0,0,1,2.716-1.222,3.221,3.221,0,0,1,2.72,1.31,5.824,5.824,0,0,1,.989,3.586Zm-1.626-.185A4.394,4.394,0,0,0,32.85,9.6,2.124,2.124,0,0,0,31,8.694a2.387,2.387,0,0,0-2.312,1.494V14.3A2.454,2.454,0,0,0,31.021,15.8a2.112,2.112,0,0,0,1.819-.905A4.672,4.672,0,0,0,33.491,12.166Zm3.243-.009a5.617,5.617,0,0,1,.549-2.514,4.1,4.1,0,0,1,1.529-1.723,4.163,4.163,0,0,1,2.237-.606,4.01,4.01,0,0,1,3.142,1.345,5.174,5.174,0,0,1,1.2,3.577v.114a5.666,5.666,0,0,1-.532,2.492,4.038,4.038,0,0,1-1.521,1.718,4.211,4.211,0,0,1-2.272.615,4,4,0,0,1-3.133-1.345,5.147,5.147,0,0,1-1.2-3.56Zm1.635.193a4.068,4.068,0,0,0,.734,2.54,2.487,2.487,0,0,0,3.933-.013,4.449,4.449,0,0,0,.729-2.72,4.061,4.061,0,0,0-.743-2.536A2.361,2.361,0,0,0,41.05,8.65a2.335,2.335,0,0,0-1.942.958A4.416,4.416,0,0,0,38.369,12.351Zm13.658-3.4a4.873,4.873,0,0,0-.8-.062,2.143,2.143,0,0,0-2.171,1.362V17H47.431V7.49h1.582l.026,1.1a2.532,2.532,0,0,1,2.268-1.274,1.661,1.661,0,0,1,.721.123ZM62,11.3a7.935,7.935,0,0,1-3.16-1.534,2.93,2.93,0,0,1-.989-2.246,3.1,3.1,0,0,1,1.208-2.5,4.8,4.8,0,0,1,3.142-.989,5.243,5.243,0,0,1,2.351.51,3.866,3.866,0,0,1,1.6,1.406,3.6,3.6,0,0,1,.567,1.96h-1.7a2.34,2.34,0,0,0-.738-1.83,3,3,0,0,0-2.083-.666,3.074,3.074,0,0,0-1.947.55,1.836,1.836,0,0,0-.7,1.528,1.652,1.652,0,0,0,.664,1.325,6.509,6.509,0,0,0,2.259.991,10.481,10.481,0,0,1,2.5.99,3.788,3.788,0,0,1,1.336,1.261,3.219,3.219,0,0,1,.435,1.7,2.99,2.99,0,0,1-1.213,2.492,5.171,5.171,0,0,1-3.243.936,6.015,6.015,0,0,1-2.461-.505,4.142,4.142,0,0,1-1.762-1.384,3.378,3.378,0,0,1-.62-2h1.7A2.2,2.2,0,0,0,60,15.124a3.608,3.608,0,0,0,2.29.672,3.317,3.317,0,0,0,2.048-.545,1.77,1.77,0,0,0,.712-1.485,1.738,1.738,0,0,0-.659-1.455A7.6,7.6,0,0,0,62,11.3Zm6.223.861a5.617,5.617,0,0,1,.549-2.514A4.1,4.1,0,0,1,70.3,7.921a4.163,4.163,0,0,1,2.237-.606,4.01,4.01,0,0,1,3.142,1.345,5.174,5.174,0,0,1,1.2,3.577v.114a5.666,5.666,0,0,1-.532,2.492,4.038,4.038,0,0,1-1.521,1.718,4.211,4.211,0,0,1-2.272.615,4,4,0,0,1-3.133-1.345,5.147,5.147,0,0,1-1.2-3.56Zm1.635.193a4.068,4.068,0,0,0,.734,2.54,2.487,2.487,0,0,0,3.933-.013,4.449,4.449,0,0,0,.729-2.72,4.061,4.061,0,0,0-.743-2.536,2.361,2.361,0,0,0-1.973-.971,2.335,2.335,0,0,0-1.942.958A4.416,4.416,0,0,0,69.86,12.351Zm12.876,3.5a2.342,2.342,0,0,0,1.521-.527A1.855,1.855,0,0,0,84.978,14h1.538a2.949,2.949,0,0,1-.562,1.556,3.7,3.7,0,0,1-1.384,1.178,3.994,3.994,0,0,1-1.833.439,3.918,3.918,0,0,1-3.089-1.3A5.163,5.163,0,0,1,78.5,12.333v-.272a5.725,5.725,0,0,1,.51-2.47,3.883,3.883,0,0,1,1.463-1.679,4.157,4.157,0,0,1,2.254-.6,3.814,3.814,0,0,1,2.659.958,3.424,3.424,0,0,1,1.129,2.487H84.978a2.241,2.241,0,0,0-.7-1.516,2.174,2.174,0,0,0-1.551-.593,2.276,2.276,0,0,0-1.92.892,4.19,4.19,0,0,0-.681,2.58v.308a4.106,4.106,0,0,0,.677,2.531A2.287,2.287,0,0,0,82.736,15.849ZM90.11,17H88.484V7.49H90.11ZM88.353,4.968a.971.971,0,0,1,.242-.668.907.907,0,0,1,.716-.272.922.922,0,0,1,.721.272.96.96,0,0,1,.246.668.929.929,0,0,1-.246.659.938.938,0,0,1-.721.264.924.924,0,0,1-.716-.264A.938.938,0,0,1,88.353,4.968ZM98.583,17a3.416,3.416,0,0,1-.229-1,3.628,3.628,0,0,1-2.707,1.178,3.357,3.357,0,0,1-2.307-.8,2.573,2.573,0,0,1-.9-2.017,2.688,2.688,0,0,1,1.129-2.307,5.325,5.325,0,0,1,3.177-.822h1.582v-.747a1.826,1.826,0,0,0-.51-1.358,2.049,2.049,0,0,0-1.5-.505,2.371,2.371,0,0,0-1.459.439,1.3,1.3,0,0,0-.589,1.063H92.633a2.244,2.244,0,0,1,.505-1.375A3.449,3.449,0,0,1,94.509,7.7a4.613,4.613,0,0,1,1.9-.387,3.759,3.759,0,0,1,2.575.822,2.964,2.964,0,0,1,.967,2.263v4.377a5.351,5.351,0,0,0,.334,2.083V17Zm-2.7-1.239a2.858,2.858,0,0,0,1.45-.4,2.392,2.392,0,0,0,.993-1.028V12.386H97.054q-2.988,0-2.988,1.749a1.48,1.48,0,0,0,.51,1.2A1.959,1.959,0,0,0,95.885,15.761ZM104.27,17h-1.626V3.5h1.626Z" transform="translate(-2357 -2366)" fill="#12263f"/>
    <path id="Trazado_150855" data-name="Trazado 150855" d="M5.73,17H4.043V4.2H5.73ZM10.1,7.49l.053,1.2A3.465,3.465,0,0,1,13,7.314q3.015,0,3.041,3.4V17H14.414V10.707a2.189,2.189,0,0,0-.47-1.521,1.884,1.884,0,0,0-1.437-.492,2.347,2.347,0,0,0-1.389.422,2.865,2.865,0,0,0-.932,1.107V17H8.561V7.49ZM19.292,17V8.747h-1.5V7.49h1.5V6.515a3.238,3.238,0,0,1,.817-2.364,3.088,3.088,0,0,1,2.312-.835,4.293,4.293,0,0,1,1.116.148l-.088,1.311A4.67,4.67,0,0,0,22.57,4.7a1.586,1.586,0,0,0-1.222.463,1.877,1.877,0,0,0-.431,1.327V7.49h2.03V8.747h-2.03V17Zm5.019-4.843a5.617,5.617,0,0,1,.549-2.514,4.1,4.1,0,0,1,1.529-1.723,4.163,4.163,0,0,1,2.237-.606,4.01,4.01,0,0,1,3.142,1.345,5.174,5.174,0,0,1,1.2,3.577v.114a5.666,5.666,0,0,1-.532,2.492,4.038,4.038,0,0,1-1.521,1.718,4.211,4.211,0,0,1-2.272.615,4,4,0,0,1-3.133-1.345,5.147,5.147,0,0,1-1.2-3.56Zm1.635.193a4.068,4.068,0,0,0,.734,2.54,2.487,2.487,0,0,0,3.933-.013,4.449,4.449,0,0,0,.729-2.72A4.061,4.061,0,0,0,30.6,9.622a2.361,2.361,0,0,0-1.973-.971,2.335,2.335,0,0,0-1.942.958A4.416,4.416,0,0,0,25.945,12.351ZM39.6,8.949a4.873,4.873,0,0,0-.8-.062,2.143,2.143,0,0,0-2.171,1.362V17H35.007V7.49h1.582l.026,1.1a2.532,2.532,0,0,1,2.268-1.274,1.661,1.661,0,0,1,.721.123ZM42.627,7.49l.044,1.055a3.512,3.512,0,0,1,2.821-1.23,2.719,2.719,0,0,1,2.716,1.529,3.6,3.6,0,0,1,1.235-1.107,3.647,3.647,0,0,1,1.8-.422q3.129,0,3.182,3.313V17H52.8V10.725A2.184,2.184,0,0,0,52.33,9.2a2.051,2.051,0,0,0-1.564-.505,2.156,2.156,0,0,0-1.5.541,2.193,2.193,0,0,0-.694,1.455V17H46.934V10.769A1.814,1.814,0,0,0,44.9,8.694a2.175,2.175,0,0,0-2.188,1.362V17H41.089V7.49ZM62.745,17a3.416,3.416,0,0,1-.229-1,3.628,3.628,0,0,1-2.707,1.178,3.357,3.357,0,0,1-2.307-.8,2.573,2.573,0,0,1-.9-2.017,2.688,2.688,0,0,1,1.129-2.307,5.325,5.325,0,0,1,3.177-.822H62.49v-.747a1.826,1.826,0,0,0-.51-1.358,2.049,2.049,0,0,0-1.5-.505,2.371,2.371,0,0,0-1.459.439,1.3,1.3,0,0,0-.589,1.063H56.795A2.244,2.244,0,0,1,57.3,8.751,3.449,3.449,0,0,1,58.671,7.7a4.613,4.613,0,0,1,1.9-.387,3.759,3.759,0,0,1,2.575.822,2.964,2.964,0,0,1,.967,2.263v4.377a5.351,5.351,0,0,0,.334,2.083V17Zm-2.7-1.239a2.858,2.858,0,0,0,1.45-.4,2.392,2.392,0,0,0,.993-1.028V12.386H61.216q-2.988,0-2.988,1.749a1.48,1.48,0,0,0,.51,1.2A1.959,1.959,0,0,0,60.047,15.761Zm10.433.088A2.342,2.342,0,0,0,72,15.321,1.855,1.855,0,0,0,72.721,14h1.538a2.949,2.949,0,0,1-.562,1.556,3.7,3.7,0,0,1-1.384,1.178,3.994,3.994,0,0,1-1.833.439,3.918,3.918,0,0,1-3.089-1.3,5.163,5.163,0,0,1-1.147-3.546v-.272a5.725,5.725,0,0,1,.51-2.47,3.883,3.883,0,0,1,1.463-1.679,4.157,4.157,0,0,1,2.254-.6,3.814,3.814,0,0,1,2.659.958,3.424,3.424,0,0,1,1.129,2.487H72.721a2.241,2.241,0,0,0-.7-1.516,2.174,2.174,0,0,0-1.551-.593,2.276,2.276,0,0,0-1.92.892,4.19,4.19,0,0,0-.681,2.58v.308a4.106,4.106,0,0,0,.677,2.531A2.287,2.287,0,0,0,70.479,15.849ZM77.854,17H76.228V7.49h1.626ZM76.1,4.968a.971.971,0,0,1,.242-.668.907.907,0,0,1,.716-.272.922.922,0,0,1,.721.272.96.96,0,0,1,.246.668.929.929,0,0,1-.246.659.938.938,0,0,1-.721.264.924.924,0,0,1-.716-.264A.938.938,0,0,1,76.1,4.968Zm3.929,7.189a5.617,5.617,0,0,1,.549-2.514A4.1,4.1,0,0,1,82.1,7.921a4.163,4.163,0,0,1,2.237-.606,4.01,4.01,0,0,1,3.142,1.345,5.174,5.174,0,0,1,1.2,3.577v.114a5.666,5.666,0,0,1-.532,2.492,4.038,4.038,0,0,1-1.521,1.718,4.211,4.211,0,0,1-2.272.615,4,4,0,0,1-3.133-1.345,5.147,5.147,0,0,1-1.2-3.56Zm1.635.193a4.068,4.068,0,0,0,.734,2.54,2.487,2.487,0,0,0,3.933-.013,4.449,4.449,0,0,0,.729-2.72,4.061,4.061,0,0,0-.743-2.536A2.361,2.361,0,0,0,84.34,8.65a2.335,2.335,0,0,0-1.942.958A4.416,4.416,0,0,0,81.659,12.351Zm3.419-8.833h1.969L84.691,6.1l-1.31,0ZM92.259,7.49l.053,1.2a3.465,3.465,0,0,1,2.848-1.371q3.015,0,3.041,3.4V17H96.574V10.707a2.189,2.189,0,0,0-.47-1.521,1.884,1.884,0,0,0-1.437-.492,2.347,2.347,0,0,0-1.389.422,2.865,2.865,0,0,0-.932,1.107V17H90.721V7.49Zm12.454,4.676a5.571,5.571,0,0,1,1.037-3.52,3.529,3.529,0,0,1,5.361-.189V3.5h1.626V17h-1.494l-.079-1.02a3.311,3.311,0,0,1-2.716,1.2,3.248,3.248,0,0,1-2.694-1.354,5.634,5.634,0,0,1-1.042-3.533Zm1.626.185a4.218,4.218,0,0,0,.668,2.531,2.159,2.159,0,0,0,1.846.914,2.372,2.372,0,0,0,2.259-1.389V10.039a2.39,2.39,0,0,0-2.241-1.345,2.17,2.17,0,0,0-1.863.923A4.644,4.644,0,0,0,106.339,12.351Zm12.867,4.825a4.155,4.155,0,0,1-3.146-1.27,4.714,4.714,0,0,1-1.213-3.4v-.3a5.707,5.707,0,0,1,.541-2.527,4.217,4.217,0,0,1,1.512-1.74,3.8,3.8,0,0,1,2.1-.628,3.562,3.562,0,0,1,2.883,1.222,5.289,5.289,0,0,1,1.028,3.5v.677h-6.442a3.38,3.38,0,0,0,.822,2.272,2.583,2.583,0,0,0,2,.866,2.832,2.832,0,0,0,1.459-.352,3.666,3.666,0,0,0,1.046-.932l.993.773A3.993,3.993,0,0,1,119.206,17.176ZM119,8.65a2.169,2.169,0,0,0-1.652.716,3.482,3.482,0,0,0-.826,2.008h4.764v-.123a3.1,3.1,0,0,0-.668-1.92A2.042,2.042,0,0,0,119,8.65Zm-86.3,31.2a2.342,2.342,0,0,0,1.521-.527A1.855,1.855,0,0,0,34.945,38h1.538a2.949,2.949,0,0,1-.562,1.556,3.7,3.7,0,0,1-1.384,1.178,3.994,3.994,0,0,1-1.833.439,3.918,3.918,0,0,1-3.089-1.3,5.163,5.163,0,0,1-1.147-3.546v-.272a5.725,5.725,0,0,1,.51-2.47,3.883,3.883,0,0,1,1.463-1.679,4.157,4.157,0,0,1,2.254-.6,3.814,3.814,0,0,1,2.659.958,3.424,3.424,0,0,1,1.129,2.487H34.945a2.241,2.241,0,0,0-.7-1.516A2.174,2.174,0,0,0,32.7,32.65a2.276,2.276,0,0,0-1.92.892,4.19,4.19,0,0,0-.681,2.58v.308a4.106,4.106,0,0,0,.677,2.531A2.287,2.287,0,0,0,32.7,39.849Zm5.177-3.691a5.617,5.617,0,0,1,.549-2.514,4.1,4.1,0,0,1,1.529-1.723,4.163,4.163,0,0,1,2.237-.606,4.01,4.01,0,0,1,3.142,1.345,5.174,5.174,0,0,1,1.2,3.577v.114a5.666,5.666,0,0,1-.532,2.492,4.038,4.038,0,0,1-1.521,1.718,4.211,4.211,0,0,1-2.272.615,4,4,0,0,1-3.133-1.345,5.147,5.147,0,0,1-1.2-3.56Zm1.635.193a4.068,4.068,0,0,0,.734,2.54,2.487,2.487,0,0,0,3.933-.013,4.449,4.449,0,0,0,.729-2.72,4.061,4.061,0,0,0-.743-2.536A2.361,2.361,0,0,0,42.2,32.65a2.335,2.335,0,0,0-1.942.958A4.416,4.416,0,0,0,39.516,36.351Zm10.6-4.86.053,1.2a3.465,3.465,0,0,1,2.848-1.371q3.015,0,3.041,3.4V41H54.431V34.707a2.189,2.189,0,0,0-.47-1.521,1.884,1.884,0,0,0-1.437-.492,2.347,2.347,0,0,0-1.389.422,2.865,2.865,0,0,0-.932,1.107V41H48.577V31.49Zm10.6-2.3v2.3H62.49v1.257H60.715v5.9a1.32,1.32,0,0,0,.237.858,1,1,0,0,0,.809.286,3.937,3.937,0,0,0,.773-.105V41a4.742,4.742,0,0,1-1.248.175,2.025,2.025,0,0,1-1.644-.659,2.832,2.832,0,0,1-.554-1.872v-5.9H57.357V31.49h1.731v-2.3ZM70.26,41a3.416,3.416,0,0,1-.229-1,3.628,3.628,0,0,1-2.707,1.178,3.357,3.357,0,0,1-2.307-.8,2.573,2.573,0,0,1-.9-2.017,2.688,2.688,0,0,1,1.129-2.307,5.325,5.325,0,0,1,3.177-.822H70v-.747a1.826,1.826,0,0,0-.51-1.358,2.049,2.049,0,0,0-1.5-.505,2.371,2.371,0,0,0-1.459.439,1.3,1.3,0,0,0-.589,1.063H64.31a2.244,2.244,0,0,1,.505-1.375,3.449,3.449,0,0,1,1.371-1.05,4.613,4.613,0,0,1,1.9-.387,3.759,3.759,0,0,1,2.575.822,2.964,2.964,0,0,1,.967,2.263v4.377a5.351,5.351,0,0,0,.334,2.083V41Zm-2.7-1.239a2.858,2.858,0,0,0,1.45-.4A2.392,2.392,0,0,0,70,38.337V36.386H68.73q-2.988,0-2.988,1.749a1.48,1.48,0,0,0,.51,1.2A1.959,1.959,0,0,0,67.562,39.761Zm10.433.088a2.342,2.342,0,0,0,1.521-.527A1.855,1.855,0,0,0,80.235,38h1.538a2.949,2.949,0,0,1-.562,1.556,3.7,3.7,0,0,1-1.384,1.178,3.994,3.994,0,0,1-1.833.439,3.918,3.918,0,0,1-3.089-1.3,5.163,5.163,0,0,1-1.147-3.546v-.272a5.725,5.725,0,0,1,.51-2.47,3.883,3.883,0,0,1,1.463-1.679,4.157,4.157,0,0,1,2.254-.6,3.814,3.814,0,0,1,2.659.958,3.424,3.424,0,0,1,1.129,2.487H80.235a2.241,2.241,0,0,0-.7-1.516,2.174,2.174,0,0,0-1.551-.593,2.276,2.276,0,0,0-1.92.892,4.19,4.19,0,0,0-.681,2.58v.308a4.106,4.106,0,0,0,.677,2.531A2.287,2.287,0,0,0,77.994,39.849Zm7.813-10.661v2.3h1.775v1.257H85.808v5.9a1.32,1.32,0,0,0,.237.858,1,1,0,0,0,.809.286,3.937,3.937,0,0,0,.773-.105V41a4.742,4.742,0,0,1-1.248.175,2.025,2.025,0,0,1-1.644-.659,2.832,2.832,0,0,1-.554-1.872v-5.9H82.45V31.49h1.731v-2.3Zm3.067,6.97a5.617,5.617,0,0,1,.549-2.514,4.1,4.1,0,0,1,1.529-1.723,4.163,4.163,0,0,1,2.237-.606,4.01,4.01,0,0,1,3.142,1.345,5.174,5.174,0,0,1,1.2,3.577v.114A5.666,5.666,0,0,1,97,38.842a4.038,4.038,0,0,1-1.521,1.718,4.211,4.211,0,0,1-2.272.615,4,4,0,0,1-3.133-1.345,5.147,5.147,0,0,1-1.2-3.56Zm1.635.193a4.068,4.068,0,0,0,.734,2.54,2.487,2.487,0,0,0,3.933-.013,4.449,4.449,0,0,0,.729-2.72,4.061,4.061,0,0,0-.743-2.536,2.361,2.361,0,0,0-1.973-.971,2.335,2.335,0,0,0-1.942.958A4.416,4.416,0,0,0,90.51,36.351Z" transform="translate(-2119 -2366)" fill="#12263f"/>
    <g id="Grupo_145314" data-name="Grupo 145314" transform="translate(-3295 -9070)">
      <path id="Trazado_150588" data-name="Trazado 150588" d="M187.526,245.248a5.312,5.312,0,0,1-1.078-10.514V191.271a1.078,1.078,0,0,1,2.156,0v43.463a5.312,5.312,0,0,1-1.078,10.514" transform="translate(299.257 6446.284)" fill="#ffe3a7"/>
      <path id="Trazado_150589" data-name="Trazado 150589" d="M420.321,245.248a5.312,5.312,0,0,1-1.078-10.514V191.271a1.078,1.078,0,0,1,2.156,0v43.463a5.312,5.312,0,0,1-1.078,10.514" transform="translate(317.472 6446.284)" fill="#ffa298"/>
      <path id="Trazado_150590" data-name="Trazado 150590" d="M653.117,245.248a5.312,5.312,0,0,1-1.078-10.514V191.271a1.078,1.078,0,0,1,2.157,0v43.463a5.312,5.312,0,0,1-1.078,10.514" transform="translate(335.687 6446.284)" fill="#a4a3ff"/>
      <path id="Trazado_150591" data-name="Trazado 150591" d="M891.224,239.936a5.312,5.312,0,1,1-6.39-5.2V191.271a1.078,1.078,0,0,1,2.156,0v43.463a5.313,5.313,0,0,1,4.233,5.2" transform="translate(353.901 6446.284)" fill="#64d3c4"/>
      <path id="Trazado_150592" data-name="Trazado 150592" d="M890.2,76.879a49.288,49.288,0,0,1,49.288,49.288H966.3a76.107,76.107,0,0,0-152.214,0h26.819A49.288,49.288,0,0,1,890.2,76.879" transform="translate(348.698 6435.32)" fill="#f1f2f2"/>
      <path id="Trazado_150593" data-name="Trazado 150593" d="M823.219,120.644h0a49.288,49.288,0,0,1-98.576,0H697.825a76.106,76.106,0,1,0,152.212,0Z" transform="translate(339.601 6440.842)" fill="#f1f2f2"/>
      <path id="Trazado_150594" data-name="Trazado 150594" d="M125.394,120.644h0a49.288,49.288,0,0,1-98.576,0H0a76.106,76.106,0,1,0,152.212,0Z" transform="translate(285 6440.842)" fill="#f1f2f2"/>
      <path id="Trazado_150595" data-name="Trazado 150595" d="M192.406,76.879a49.288,49.288,0,0,1,49.288,49.288h26.819a76.107,76.107,0,0,0-152.214,0h26.819a49.288,49.288,0,0,1,49.288-49.288" transform="translate(294.1 6435.32)" fill="#f1f2f2"/>
      <path id="Trazado_150596" data-name="Trazado 150596" d="M358.091,120.644h0a49.288,49.288,0,0,1-98.576,0H232.7a76.106,76.106,0,1,0,152.212,0Z" transform="translate(303.207 6440.842)" fill="#f1f2f2"/>
      <path id="Trazado_150597" data-name="Trazado 150597" d="M425.1,76.879a49.288,49.288,0,0,1,49.288,49.288h26.818a76.107,76.107,0,0,0-152.214,0h26.82A49.288,49.288,0,0,1,425.1,76.879" transform="translate(312.307 6435.32)" fill="#f1f2f2"/>
      <path id="Trazado_150598" data-name="Trazado 150598" d="M590.691,120.644h0a49.288,49.288,0,0,1-98.576,0H465.3a76.106,76.106,0,1,0,152.212,0Z" transform="translate(321.407 6440.842)" fill="#f1f2f2"/>
      <path id="Trazado_150599" data-name="Trazado 150599" d="M657.7,76.879a49.288,49.288,0,0,1,49.288,49.288h26.819a76.107,76.107,0,0,0-152.214,0h26.819A49.288,49.288,0,0,1,657.7,76.879" transform="translate(330.506 6435.32)" fill="#f1f2f2"/>
      <path id="Trazado_150600" data-name="Trazado 150600" d="M706.989,120.644h0a49.288,49.288,0,0,1-98.576,0H581.595a76.106,76.106,0,1,0,152.213,0Z" transform="translate(330.506 6440.842)" fill="#a4a3ff"/>
      <path id="Trazado_150601" data-name="Trazado 150601" d="M76.107,76.879a49.288,49.288,0,0,1,49.288,49.288h26.819A76.107,76.107,0,0,0,0,126.167H26.819A49.288,49.288,0,0,1,76.107,76.879" transform="translate(285 6435.32)" fill="#fed981"/>
      <path id="Trazado_150602" data-name="Trazado 150602" d="M241.694,120.644h0a49.288,49.288,0,0,1-98.576,0H116.3a76.106,76.106,0,1,0,152.212,0Z" transform="translate(294.1 6440.842)" fill="#ffe3a7"/>
      <path id="Trazado_150603" data-name="Trazado 150603" d="M308.8,76.879a49.288,49.288,0,0,1,49.288,49.288h26.819a76.107,76.107,0,0,0-152.214,0h26.819A49.288,49.288,0,0,1,308.8,76.879" transform="translate(303.207 6435.32)" fill="#ff8578"/>
      <path id="Trazado_150604" data-name="Trazado 150604" d="M474.387,120.644h0a49.288,49.288,0,0,1-98.576,0H348.993a76.106,76.106,0,1,0,152.212,0Z" transform="translate(312.307 6440.842)" fill="#ffa298"/>
      <path id="Trazado_150605" data-name="Trazado 150605" d="M541.4,76.879a49.288,49.288,0,0,1,49.288,49.288H617.51a76.107,76.107,0,0,0-152.214,0h26.819A49.288,49.288,0,0,1,541.4,76.879" transform="translate(321.407 6435.32)" fill="#5263e2"/>
      <path id="Trazado_150606" data-name="Trazado 150606" d="M773.932,76.879a49.288,49.288,0,0,1,49.288,49.288h26.818a76.107,76.107,0,0,0-152.214,0h26.82a49.287,49.287,0,0,1,49.288-49.288" transform="translate(339.601 6435.32)" fill="#43a99b"/>
      <path id="Trazado_150607" data-name="Trazado 150607" d="M939.484,120.644h0a49.288,49.288,0,0,1-98.576,0H814.09a76.106,76.106,0,1,0,152.212,0Z" transform="translate(348.698 6440.842)" fill="#64d3c4"/>
      <g id="Grupo_145285" data-name="Grupo 145285" transform="translate(688.671 6512.385)">
        <g id="Grupo_145284" data-name="Grupo 145284" clip-path="url(#clip-path)">
          <rect id="Rectángulo_38710" data-name="Rectángulo 38710" width="139.02" height="139.02" transform="translate(-49.18 49.18) rotate(-45)" fill="url(#linear-gradient)"/>
        </g>
      </g>
      <g id="Grupo_145289" data-name="Grupo 145289" transform="translate(813.688 6512.385)">
        <g id="Grupo_145288" data-name="Grupo 145288" clip-path="url(#clip-path-2)">
          <rect id="Rectángulo_38712" data-name="Rectángulo 38712" width="139.02" height="139.02" transform="translate(-49.18 49.18) rotate(-45)" fill="url(#linear-gradient-2)"/>
        </g>
      </g>
      <g id="Grupo_145293" data-name="Grupo 145293" transform="translate(939.086 6512.385)">
        <g id="Grupo_145292" data-name="Grupo 145292" clip-path="url(#clip-path-3)">
          <rect id="Rectángulo_38714" data-name="Rectángulo 38714" width="139.019" height="139.019" transform="translate(-49.18 49.18) rotate(-45)" fill="url(#linear-gradient-3)"/>
        </g>
      </g>
      <g id="Grupo_145297" data-name="Grupo 145297" transform="translate(1064.41 6512.385)">
        <g id="Grupo_145296" data-name="Grupo 145296" clip-path="url(#clip-path-4)">
          <rect id="Rectángulo_38716" data-name="Rectángulo 38716" width="139.019" height="139.019" transform="translate(-49.18 49.18) rotate(-45)" fill="url(#linear-gradient-4)"/>
        </g>
      </g>
      <g id="Grupo_145301" data-name="Grupo 145301" transform="translate(1190.691 6512.385)">
        <g id="Grupo_145300" data-name="Grupo 145300" clip-path="url(#clip-path-5)">
          <rect id="Rectángulo_38718" data-name="Rectángulo 38718" width="139.019" height="139.019" transform="translate(-49.18 49.18) rotate(-45)" fill="url(#linear-gradient-5)"/>
        </g>
      </g>
      <g id="Grupo_145305" data-name="Grupo 145305" transform="translate(562.852 6512.385)">
        <g id="Grupo_145304" data-name="Grupo 145304" clip-path="url(#clip-path-6)">
          <rect id="Rectángulo_38720" data-name="Rectángulo 38720" width="139.019" height="139.019" transform="translate(-49.18 49.18) rotate(-45)" fill="url(#linear-gradient-6)"/>
        </g>
      </g>
      <g id="Grupo_145309" data-name="Grupo 145309" transform="translate(437.343 6512.385)">
        <g id="Grupo_145308" data-name="Grupo 145308" clip-path="url(#clip-path-7)">
          <rect id="Rectángulo_38722" data-name="Rectángulo 38722" width="139.019" height="139.019" transform="translate(-49.18 49.18) rotate(-45)" fill="url(#linear-gradient-7)"/>
        </g>
      </g>
      <g id="Grupo_145313" data-name="Grupo 145313" transform="translate(311.916 6512.385)">
        <g id="Grupo_145312" data-name="Grupo 145312" clip-path="url(#clip-path-8)">
          <rect id="Rectángulo_38724" data-name="Rectángulo 38724" width="139.019" height="139.019" transform="translate(-49.18 49.18) rotate(-45)" fill="url(#linear-gradient-8)"/>
        </g>
      </g>
      <path id="Trazado_150624" data-name="Trazado 150624" d="M71.128,0a5.312,5.312,0,0,0-1.078,10.514V53.977a1.078,1.078,0,1,0,2.156,0V10.514A5.312,5.312,0,0,0,71.128,0" transform="translate(290.149 6431.403)" fill="#fed981"/>
      <path id="Trazado_150625" data-name="Trazado 150625" d="M303.924,0a5.312,5.312,0,0,0-1.078,10.514V53.977a1.078,1.078,0,0,0,2.156,0V10.514A5.312,5.312,0,0,0,303.924,0" transform="translate(308.364 6431.403)" fill="#ff8578"/>
      <path id="Trazado_150626" data-name="Trazado 150626" d="M536.719,0a5.312,5.312,0,0,0-1.078,10.514V53.977a1.078,1.078,0,0,0,2.157,0V10.514A5.312,5.312,0,0,0,536.719,0" transform="translate(326.579 6431.403)" fill="#5263e2"/>
      <path id="Trazado_150627" data-name="Trazado 150627" d="M774.826,5.313a5.312,5.312,0,1,0-6.39,5.2V53.977a1.078,1.078,0,0,0,2.157,0V10.514a5.313,5.313,0,0,0,4.233-5.2" transform="translate(344.794 6431.403)" fill="#43a99b"/>
      <g transform="matrix(1, 0, 0, 1, 280.08, 6386.52)" filter="url(#Trazado_150623)">
        <path id="Trazado_150623-2" data-name="Trazado 150623" d="M26.948,125.093a48,48,0,1,0,48-48,48,48,0,0,0-48,48" transform="translate(7.05 50.95)" fill="#f8f8f8" stroke="#fff" stroke-width="3"/>
      </g>
      <g transform="matrix(1, 0, 0, 1, 280.08, 6386.52)" filter="url(#Trazado_150687)">
        <path id="Trazado_150687-2" data-name="Trazado 150687" d="M26.948,125.093a48,48,0,1,0,48-48,48,48,0,0,0-48,48" transform="translate(130.18 49.77)" fill="#f8f8f8" stroke="#fff" stroke-width="3"/>
      </g>
      <g transform="matrix(1, 0, 0, 1, 280.08, 6386.52)" filter="url(#Trazado_150688)">
        <path id="Trazado_150688-2" data-name="Trazado 150688" d="M26.948,125.093a48,48,0,1,0,48-48,48,48,0,0,0-48,48" transform="translate(258.07 49.77)" fill="#f8f8f8" stroke="#fff" stroke-width="3"/>
      </g>
      <g transform="matrix(1, 0, 0, 1, 280.08, 6386.52)" filter="url(#Trazado_150689)">
        <path id="Trazado_150689-2" data-name="Trazado 150689" d="M26.948,125.093a48,48,0,1,0,48-48,48,48,0,0,0-48,48" transform="translate(382.33 49.77)" fill="#f8f8f8" stroke="#fff" stroke-width="3"/>
      </g>
      <g transform="matrix(1, 0, 0, 1, 280.08, 6386.52)" filter="url(#Trazado_150690)">
        <path id="Trazado_150690-2" data-name="Trazado 150690" d="M26.948,125.093a48,48,0,1,0,48-48,48,48,0,0,0-48,48" transform="translate(508.15 49.77)" fill="#f8f8f8" stroke="#fff" stroke-width="3"/>
      </g>
      <g transform="matrix(1, 0, 0, 1, 280.08, 6386.52)" filter="url(#Trazado_150691)">
        <path id="Trazado_150691-2" data-name="Trazado 150691" d="M26.948,125.093a48,48,0,1,0,48-48,48,48,0,0,0-48,48" transform="translate(632.48 49.77)" fill="#f8f8f8" stroke="#fff" stroke-width="3"/>
      </g>
      <g transform="matrix(1, 0, 0, 1, 280.08, 6386.52)" filter="url(#Trazado_150692)">
        <path id="Trazado_150692-2" data-name="Trazado 150692" d="M26.948,125.093a48,48,0,1,0,48-48,48,48,0,0,0-48,48" transform="translate(758.5 49.77)" fill="#f8f8f8" stroke="#fff" stroke-width="3"/>
      </g>
      <g transform="matrix(1, 0, 0, 1, 280.08, 6386.52)" filter="url(#Trazado_150693)">
        <path id="Trazado_150693-2" data-name="Trazado 150693" d="M26.948,125.093a48,48,0,1,0,48-48,48,48,0,0,0-48,48" transform="translate(883.41 49.77)" fill="#f8f8f8" stroke="#fff" stroke-width="3"/>
      </g>
    </g>
    <g id="Grupo_145317" data-name="Grupo 145317" transform="translate(-2077 -2530)">
      <g id="Grupo_145316" data-name="Grupo 145316" clip-path="url(#clip-path-9)">
        <path id="Trazado_150628" data-name="Trazado 150628" d="M17,34A17,17,0,1,1,34,17,17.019,17.019,0,0,1,17,34M17,2A15,15,0,1,0,32,17,15.017,15.017,0,0,0,17,2" fill="#43a99b"/>
        <path id="Trazado_150629" data-name="Trazado 150629" d="M41.171,45a3.817,3.817,0,0,1-2.707-1.119L28.293,33.707l1.414-1.414L39.878,42.465a1.829,1.829,0,0,0,2.586-2.586L32.293,29.707l1.414-1.414L43.878,38.465A3.826,3.826,0,0,1,41.171,45" fill="#43a99b"/>
        <path id="Trazado_150630" data-name="Trazado 150630" d="M20.369,19.316A5.974,5.974,0,0,0,17,18a5.967,5.967,0,0,0-3.366,1.316l-1.265-1.549A7.932,7.932,0,0,1,17,16a7.929,7.929,0,0,1,4.632,1.767Z" fill="#43a99b"/>
        <path id="Trazado_150631" data-name="Trazado 150631" d="M17,18a4.138,4.138,0,0,1-4-4.429V12.429A4.138,4.138,0,0,1,17,8a4.138,4.138,0,0,1,4,4.429v1.142A4.138,4.138,0,0,1,17,18m0-8a2.167,2.167,0,0,0-2,2.429v1.142A2.167,2.167,0,0,0,17,16a2.167,2.167,0,0,0,2-2.429V12.429A2.167,2.167,0,0,0,17,10" fill="#43a99b"/>
        <path id="Trazado_150632" data-name="Trazado 150632" d="M14,26H12V23c-.136-.515-2.207-2-4-2a5.5,5.5,0,0,0-3.368.774L3.368,20.226A7.174,7.174,0,0,1,8,19c2.509,0,6,2.016,6,4Z" fill="#43a99b"/>
        <path id="Trazado_150633" data-name="Trazado 150633" d="M8,21a4.138,4.138,0,0,1-4-4.429V15.429A4.138,4.138,0,0,1,8,11a4.138,4.138,0,0,1,4,4.429v1.142A4.138,4.138,0,0,1,8,21m0-8a2.167,2.167,0,0,0-2,2.429v1.142A2.167,2.167,0,0,0,8,19a2.167,2.167,0,0,0,2-2.429V15.429A2.167,2.167,0,0,0,8,13" fill="#43a99b"/>
        <path id="Trazado_150634" data-name="Trazado 150634" d="M22,26H20V23c0-1.984,3.491-4,6-4a7.174,7.174,0,0,1,4.632,1.226l-1.264,1.548A5.5,5.5,0,0,0,26,21c-1.793,0-3.864,1.485-4,2.041Z" fill="#43a99b"/>
        <path id="Trazado_150635" data-name="Trazado 150635" d="M26,21a4.138,4.138,0,0,1-4-4.429V15.429a4.021,4.021,0,1,1,8,0v1.142A4.138,4.138,0,0,1,26,21m0-8a2.167,2.167,0,0,0-2,2.429v1.142A2.167,2.167,0,0,0,26,19a2.167,2.167,0,0,0,2-2.429V15.429A2.167,2.167,0,0,0,26,13" fill="#43a99b"/>
        <path id="Trazado_150636" data-name="Trazado 150636" d="M28,35.414l-3.707-3.707,1.414-1.414L28,32.586,32.586,28l-2.293-2.293,1.414-1.414L35.414,28Z" fill="#43a99b"/>
      </g>
    </g>
    <path id="Trazado_150856" data-name="Trazado 150856" d="M0,0H67V67H0Z" transform="translate(-2088 -2542)" fill="none"/>
    <path id="Trazado_150857" data-name="Trazado 150857" d="M0,0H67V67H0Z" transform="translate(-2213 -2542)" fill="none"/>
    <g id="Grupo_145332" data-name="Grupo 145332" transform="translate(-2202.638 -2532.707)">
      <g id="Grupo_145318" data-name="Grupo 145318" clip-path="url(#clip-path-10)">
        <path id="Trazado_150637" data-name="Trazado 150637" d="M16.121,42.707l-1.414-1.414.125-.132A3.178,3.178,0,0,1,17.414,40H32.033c1.134-.474,6.2-5.38,7.351-6.666a57.54,57.54,0,0,0,4.523-7.085,3.6,3.6,0,0,0-2.55-.275c-1.3.3-2.17,1.213-3.337,3.483l-.145.284-4.868,2.527-.921-1.775,4.3-2.235c1.188-2.248,2.39-3.739,4.515-4.232A4.917,4.917,0,0,1,45.933,25.4l.343.461-.226.528a54.131,54.131,0,0,1-5.173,8.272C40.811,34.739,33.994,42,32.131,42H17.414a1.239,1.239,0,0,0-1.117.523Z" fill="#43a99b"/>
        <path id="Trazado_150638" data-name="Trazado 150638" d="M30.13,36h-9V34h9c1.382,0,2-.753,2-1.5s-.618-1.5-2-1.5h-6a3.685,3.685,0,0,1-2.059-1.035A4.392,4.392,0,0,0,20.414,29h-5A6.112,6.112,0,0,0,12.1,30.732c-1.466,1.467-4.11,3.969-4.136,4L6.584,33.273c.026-.024,2.65-2.508,4.123-3.98A7.923,7.923,0,0,1,15.414,27h5a5.088,5.088,0,0,1,2.873,1.377,5.544,5.544,0,0,0,.927.632L30.13,29c2.626,0,4,1.761,4,3.5s-1.374,3.5-4,3.5" fill="#43a99b"/>
        <path id="Trazado_150639" data-name="Trazado 150639" d="M12.414,48.414,0,36l5.414-5.414L17.828,43ZM2.828,36l9.586,9.586L15,43,5.414,33.414Z" fill="#43a99b"/>
        <path id="Trazado_150640" data-name="Trazado 150640" d="M30.131,16h-2V1h2V5.181a2.929,2.929,0,0,1,1-.181,4,4,0,0,1,0,8,2.929,2.929,0,0,1-1-.181ZM28.406,9l1.4,1.257a2.545,2.545,0,0,0,1.33.743,2,2,0,0,0,0-4,2.545,2.545,0,0,0-1.33.743Z" fill="#43a99b"/>
        <path id="Trazado_150641" data-name="Trazado 150641" d="M36.13,22a4,4,0,0,1-4-4,2.91,2.91,0,0,1,.182-1H29.13V15h15v2H39.948a2.91,2.91,0,0,1,.182,1,4,4,0,0,1-4,4m0-6.728-1.257,1.4A2.574,2.574,0,0,0,34.13,18a2,2,0,0,0,4,0,2.574,2.574,0,0,0-.743-1.332Z" fill="#43a99b"/>
        <path id="Trazado_150642" data-name="Trazado 150642" d="M30.13,30h-2V26.819a2.938,2.938,0,0,1-1,.181,4,4,0,0,1,0-8,2.938,2.938,0,0,1,1,.181V16h2Zm-3-9a2,2,0,0,0,0,4,2.545,2.545,0,0,0,1.33-.743L29.855,23l-1.4-1.257A2.545,2.545,0,0,0,27.13,21" fill="#43a99b"/>
        <path id="Trazado_150643" data-name="Trazado 150643" d="M29.13,17h-15V15h4.181a2.938,2.938,0,0,1-.181-1,4,4,0,0,1,8,0,2.914,2.914,0,0,1-.182,1H29.13Zm-7-5a2,2,0,0,0-2,2,2.56,2.56,0,0,0,.743,1.331l1.257,1.395,1.257-1.395A2.56,2.56,0,0,0,24.13,14a2,2,0,0,0-2-2" fill="#43a99b"/>
        <path id="Trazado_150644" data-name="Trazado 150644" d="M17.2,26.665a16,16,0,1,1,26.081-3.2l-1.768-.935a14,14,0,1,0-22.823,2.8Z" fill="#43a99b"/>
      </g>
    </g>
    <path id="Trazado_150858" data-name="Trazado 150858" d="M0,0H67V67H0Z" transform="translate(-2338 -2542)" fill="none"/>
    <g id="Grupo_145342" data-name="Grupo 145342" transform="translate(-2327 -2531)">
      <g id="Grupo_145320" data-name="Grupo 145320" clip-path="url(#clip-path-11)">
        <path id="Trazado_150645" data-name="Trazado 150645" d="M17,33V31a3.206,3.206,0,0,0,3-3V19c0-2.282-5.46-4-9-4s-9,1.718-9,4v9a3.206,3.206,0,0,0,3,3v2a5.2,5.2,0,0,1-5-5V19c0-4.188,7.284-6,11-6s11,1.812,11,6v9a5.2,5.2,0,0,1-5,5" fill="#a4a3ff"/>
        <path id="Trazado_150646" data-name="Trazado 150646" d="M28,33V31c1.246,0,3-.621,3-2V19c0-2.282-4.853-4-8-4H21V13h2c3.378,0,10,1.812,10,6V29c0,2.6-2.576,4-5,4" fill="#a4a3ff"/>
        <path id="Trazado_150647" data-name="Trazado 150647" d="M11,12A4.836,4.836,0,0,1,6,7V5a4.836,4.836,0,0,1,5-5,4.836,4.836,0,0,1,5,5V7a4.836,4.836,0,0,1-5,5M11,2A2.841,2.841,0,0,0,8,5V7a2.841,2.841,0,0,0,3,3,2.841,2.841,0,0,0,3-3V5a2.841,2.841,0,0,0-3-3" fill="#a4a3ff"/>
        <rect id="Rectángulo_38727" data-name="Rectángulo 38727" width="2" height="25" transform="translate(27 21)" fill="#a4a3ff"/>
        <rect id="Rectángulo_38728" data-name="Rectángulo 38728" width="2" height="25" transform="translate(16 21)" fill="#a4a3ff"/>
        <rect id="Rectángulo_38729" data-name="Rectángulo 38729" width="2" height="25" transform="translate(4 21)" fill="#a4a3ff"/>
        <rect id="Rectángulo_38730" data-name="Rectángulo 38730" width="2" height="15" transform="translate(10 31)" fill="#a4a3ff"/>
        <path id="Trazado_150648" data-name="Trazado 150648" d="M23,12a4.836,4.836,0,0,1-5-5V5a4.836,4.836,0,0,1,5-5,4.836,4.836,0,0,1,5,5V7a4.836,4.836,0,0,1-5,5M23,2a2.841,2.841,0,0,0-3,3V7a2.841,2.841,0,0,0,3,3,2.841,2.841,0,0,0,3-3V5a2.841,2.841,0,0,0-3-3" fill="#a4a3ff"/>
        <path id="Trazado_150649" data-name="Trazado 150649" d="M40,33V31c1.246,0,3-.621,3-2V19c0-2.282-4.853-4-8-4H33V13h2c3.378,0,10,1.812,10,6V29c0,2.6-2.576,4-5,4" fill="#a4a3ff"/>
        <rect id="Rectángulo_38731" data-name="Rectángulo 38731" width="2" height="25" transform="translate(39 21)" fill="#a4a3ff"/>
        <path id="Trazado_150650" data-name="Trazado 150650" d="M35,12a4.836,4.836,0,0,1-5-5V5A5,5,0,0,1,40,5V7a4.836,4.836,0,0,1-5,5M35,2a2.841,2.841,0,0,0-3,3V7a3,3,0,0,0,6,0V5a2.841,2.841,0,0,0-3-3" fill="#a4a3ff"/>
      </g>
    </g>
    <path id="Trazado_150859" data-name="Trazado 150859" d="M0,0H67V67H0Z" transform="translate(-2463 -2542)" fill="none"/>
    <g id="Grupo_145343" data-name="Grupo 145343" transform="translate(-2453.268 -2531.388)">
      <g id="Grupo_145322" data-name="Grupo 145322" clip-path="url(#clip-path-12)">
        <path id="Trazado_150651" data-name="Trazado 150651" d="M15.621,29.394a4.5,4.5,0,1,1,4.5-4.5,4.505,4.505,0,0,1-4.5,4.5m0-7a2.5,2.5,0,1,0,2.5,2.5,2.5,2.5,0,0,0-2.5-2.5" fill="#5263e2"/>
        <path id="Trazado_150652" data-name="Trazado 150652" d="M5.621,33.394a4.5,4.5,0,1,1,4.5-4.5,4.505,4.505,0,0,1-4.5,4.5m0-7a2.5,2.5,0,1,0,2.5,2.5,2.5,2.5,0,0,0-2.5-2.5" fill="#5263e2"/>
        <path id="Trazado_150653" data-name="Trazado 150653" d="M10.1,45.6l-1.956-.419L10.48,34.28c.449-2.1,1.949-3.4,4.457-3.868l5.731-.956,6.642-6,.622,1.061c.1.166,2.342,4.085-.388,6.664l-4.448,4.4L16.3,37.664l-.585-1.914,6.322-1.932,4.115-4.072a2.918,2.918,0,0,0,.534-3.03l-5.114,4.617-6.288,1.048c-1.713.321-2.571,1.015-2.85,2.318Z" fill="#5263e2"/>
        <rect id="Rectángulo_38733" data-name="Rectángulo 38733" width="10.198" height="2" transform="matrix(0.197, -0.981, 0.981, 0.197, 17.139, 45.197)" fill="#5263e2"/>
        <path id="Trazado_150654" data-name="Trazado 150654" d="M38.159,32.394a4.5,4.5,0,1,1,4.5-4.5,4.505,4.505,0,0,1-4.5,4.5m0-7a2.5,2.5,0,1,0,2.5,2.5,2.5,2.5,0,0,0-2.5-2.5" fill="#5263e2"/>
        <path id="Trazado_150655" data-name="Trazado 150655" d="M45.614,45.67l-2.241-7.795c-.285-1.321-.919-2.481-3.715-2.481H29.012a2.939,2.939,0,0,0,2.646,2h8v2h-8c-3.307,0-4.707-3.163-4.986-4.836l-.194-1.164h13.18c3.184,0,5.086,1.344,5.654,3.995l2.224,7.728Z" fill="#5263e2"/>
        <rect id="Rectángulo_38734" data-name="Rectángulo 38734" width="2" height="7.447" transform="translate(35.718 38.735) rotate(-19.958)" fill="#5263e2"/>
        <path id="Trazado_150656" data-name="Trazado 150656" d="M1.956,45.6,0,45.185,1.48,38.28c.449-2.1,1.949-3.4,4.457-3.868l4.988-1,.392,1.961-5,1C4.573,36.7,3.715,37.4,3.436,38.7Z" fill="#5263e2"/>
        <path id="Trazado_150657" data-name="Trazado 150657" d="M5.2,20.821l.742-6.815L.482,9.788,15.872,3.2l.787,1.839L4.4,10.287l3.649,2.821-.493,4.528,12.253-5.244.787,1.839Z" fill="#5263e2"/>
        <rect id="Rectángulo_38735" data-name="Rectángulo 38735" width="2" height="28.11" transform="matrix(0.919, -0.394, 0.394, 0.919, 13.74, 0.788)" fill="#5263e2"/>
        <rect id="Rectángulo_38736" data-name="Rectángulo 38736" width="2" height="4.784" transform="translate(26.362 30.346) rotate(-22.437)" fill="#5263e2"/>
        <rect id="Rectángulo_38737" data-name="Rectángulo 38737" width="2" height="7.568" transform="translate(29.846 38.781) rotate(-22.441)" fill="#5263e2"/>
      </g>
    </g>
    <path id="Trazado_150860" data-name="Trazado 150860" d="M0,0H67V67H0Z" transform="translate(-2589 -2542)" fill="none"/>
    <g id="Grupo_145341" data-name="Grupo 145341" transform="translate(-2579.188 -2532.542)">
      <g id="Grupo_145324" data-name="Grupo 145324" clip-path="url(#clip-path-13)">
        <path id="Trazado_150658" data-name="Trazado 150658" d="M21.92,31.82l-7.071-7.071a3.083,3.083,0,0,1,.057-4.3l1.357-1.357,1.414,1.415L16.32,21.863a1.071,1.071,0,0,0-.057,1.472l7.071,7.071Z" fill="#ff8578"/>
        <path id="Trazado_150659" data-name="Trazado 150659" d="M24.749,28.991,15.557,19.8a2.969,2.969,0,0,1-.872-2.135,3.011,3.011,0,0,1,.886-2.122,2.953,2.953,0,0,1,4.228.014l9.193,9.193-1.415,1.414L18.385,16.97A.971.971,0,0,0,17,16.942a1.043,1.043,0,0,0-.315.736.989.989,0,0,0,.287.707l9.192,9.192Z" fill="#ff8578"/>
        <path id="Trazado_150660" data-name="Trazado 150660" d="M31.113,43.841l-2.124-2.123a5.8,5.8,0,0,0-2.1-.973,8.577,8.577,0,0,1-3.554-1.856l-8.483-8.483a3.082,3.082,0,0,1,.058-4.3l1.356-1.357,1.414,1.414L16.321,27.52a1.071,1.071,0,0,0-.057,1.472l8.483,8.483a7,7,0,0,0,2.766,1.371A7.126,7.126,0,0,1,30.4,40.3l2.123,2.123Z" fill="#ff8578"/>
        <path id="Trazado_150661" data-name="Trazado 150661" d="M31.113,24.042l-7.778-7.778a1.053,1.053,0,0,0-.707-.323.908.908,0,0,0-.65.265l-1.472,1.472-1.414-1.414,1.472-1.472a2.807,2.807,0,0,1,2.121-.85,3.046,3.046,0,0,1,2.064.908l7.778,7.778Z" fill="#ff8578"/>
        <path id="Trazado_150662" data-name="Trazado 150662" d="M41.719,33.234,39.6,31.111a8.161,8.161,0,0,1-2.151-4.644,6.864,6.864,0,0,0-2.092-3.841L31.82,19.091a.853.853,0,0,0-1.415,0l-1.414,1.415-1.415-1.414,1.414-1.415a2.812,2.812,0,0,1,4.244,0l3.533,3.535A8.807,8.807,0,0,1,39.41,26.1a6.173,6.173,0,0,0,1.6,3.6l2.123,2.123Z" fill="#ff8578"/>
        <path id="Trazado_150663" data-name="Trazado 150663" d="M33.941,48.084,29.7,43.841,43.133,30.406l4.243,4.242-1.414,1.415-2.829-2.829L32.527,43.841l2.828,2.829Z" fill="#ff8578"/>
        <path id="Trazado_150664" data-name="Trazado 150664" d="M12.021,27.577,9.194,24.751A8.568,8.568,0,0,1,7.339,21.2a5.839,5.839,0,0,0-.973-2.1L4.243,16.971l1.414-1.415L7.78,17.68a7.116,7.116,0,0,1,1.458,2.89,6.984,6.984,0,0,0,1.37,2.767l2.827,2.826Z" fill="#ff8578"/>
        <path id="Trazado_150665" data-name="Trazado 150665" d="M28.991,16.264l-3.533-3.533a6.87,6.87,0,0,0-3.842-2.093,8.149,8.149,0,0,1-4.644-2.15L14.849,6.365l1.414-1.414,2.124,2.123a6.16,6.16,0,0,0,3.6,1.6,8.819,8.819,0,0,1,4.886,2.644l3.533,3.533Z" fill="#ff8578"/>
        <path id="Trazado_150666" data-name="Trazado 150666" d="M4.243,18.385,0,14.143l1.414-1.414,2.829,2.828L14.849,4.95,12.021,2.122,13.435.708,17.678,4.95Z" fill="#ff8578"/>
        <path id="Trazado_150667" data-name="Trazado 150667" d="M16.263,43.134,14.849,41.72,16.971,39.6a7.123,7.123,0,0,1,2.89-1.459c.448-.149.908-.3,1.352-.486l.778,1.841c-.493.209-1,.379-1.5.543a5.811,5.811,0,0,0-2.1.975Z" fill="#ff8578"/>
        <path id="Trazado_150668" data-name="Trazado 150668" d="M5.657,32.527,4.243,31.113l2.121-2.121a5.933,5.933,0,0,0,1.548-3.325l1.961.392a7.78,7.78,0,0,1-2.1,4.347Z" fill="#ff8578"/>
        <path id="Trazado_150669" data-name="Trazado 150669" d="M13.435,47.376l-1.414-1.414,2.828-2.828L4.243,32.527,1.414,35.355,0,33.941,4.243,29.7,17.677,43.134Z" fill="#ff8578"/>
        <path id="Trazado_150670" data-name="Trazado 150670" d="M39.495,21.993l-1.842-.779c.187-.444.339-.9.487-1.352A7.132,7.132,0,0,1,39.6,16.971l2.122-2.122,1.414,1.415-2.121,2.121a5.833,5.833,0,0,0-.975,2.1c-.164.5-.335,1.01-.543,1.5" fill="#ff8578"/>
        <path id="Trazado_150671" data-name="Trazado 150671" d="M26.053,9.874l-.392-1.961a5.93,5.93,0,0,0,3.33-1.549l2.122-2.121,1.414,1.414L30.406,7.778a7.782,7.782,0,0,1-4.353,2.1" fill="#ff8578"/>
        <path id="Trazado_150672" data-name="Trazado 150672" d="M43.133,17.678,29.7,4.243,33.941,0l1.414,1.414L32.527,4.243,43.133,14.85l2.829-2.828,1.414,1.414Z" fill="#ff8578"/>
      </g>
    </g>
    <path id="Trazado_150861" data-name="Trazado 150861" d="M0,0H67V67H0Z" transform="translate(-2715 -2542)" fill="none"/>
    <g id="Grupo_145344" data-name="Grupo 145344" transform="translate(-2702 -2529)">
      <g id="Grupo_145344-2" data-name="Grupo 145344" clip-path="url(#clip-path-14)">
        <path id="Trazado_150694" data-name="Trazado 150694" d="M21,42H5a5.006,5.006,0,0,1-5-5V20H10L8.8,21.6A3.538,3.538,0,0,0,8,24a3,3,0,0,0,3.574,2.947,3.1,3.1,0,0,0,2.406-3.422A3.406,3.406,0,0,0,13.2,21.6L12,20h9v2H15.688a5.376,5.376,0,0,1,.285,1.352,5.085,5.085,0,0,1-4.039,5.562A5,5,0,0,1,6,24a5.868,5.868,0,0,1,.312-2H2V37a3,3,0,0,0,3,3H21Z" fill="#ff8578"/>
        <path id="Trazado_150695" data-name="Trazado 150695" d="M37,42H20V32l1.6,1.2A3.538,3.538,0,0,0,24,34a3,3,0,0,0,2.947-3.574,3.1,3.1,0,0,0-3.422-2.406,3.406,3.406,0,0,0-1.924.78L20,30V21h2v5.312a5.376,5.376,0,0,1,1.352-.285,5.08,5.08,0,0,1,5.562,4.039A5,5,0,0,1,24,36a5.868,5.868,0,0,1-2-.312V40H37a3,3,0,0,0,3-3V21h2V37a5.006,5.006,0,0,1-5,5" fill="#ff8578"/>
        <path id="Trazado_150696" data-name="Trazado 150696" d="M42,22H32l1.2-1.6A3.538,3.538,0,0,0,34,18a3,3,0,0,0-3.575-2.948,3.1,3.1,0,0,0-2.4,3.423A3.406,3.406,0,0,0,28.8,20.4L30,22H21V20h5.312a5.376,5.376,0,0,1-.285-1.352,5.086,5.086,0,0,1,4.038-5.563A5,5,0,0,1,36,18a5.868,5.868,0,0,1-.312,2H40V5a3,3,0,0,0-3-3H21V0H37a5.006,5.006,0,0,1,5,5Z" fill="#ff8578"/>
        <path id="Trazado_150697" data-name="Trazado 150697" d="M22,21H20V15.688a5.384,5.384,0,0,1-1.353.285,5.078,5.078,0,0,1-5.561-4.039A5,5,0,0,1,18,6a5.868,5.868,0,0,1,2,.312V2H5A3,3,0,0,0,2,5V21H0V5A5.006,5.006,0,0,1,5,0H22V10L20.4,8.8A3.538,3.538,0,0,0,18,8a3,3,0,0,0-2.947,3.574,3.1,3.1,0,0,0,3.421,2.406A3.406,3.406,0,0,0,20.4,13.2L22,12Z" fill="#ff8578"/>
      </g>
    </g>
    <path id="Trazado_150862" data-name="Trazado 150862" d="M0,0H67V67H0Z" transform="translate(-2841 -2542)" fill="none"/>
    <g id="Grupo_145340" data-name="Grupo 145340" transform="translate(-2826 -2532)">
      <g id="Grupo_145326" data-name="Grupo 145326" clip-path="url(#clip-path-15)">
        <path id="Trazado_150673" data-name="Trazado 150673" d="M26,47H24V45c-.208-.481-2.7-2-5-2s-4.792,1.519-5.013,2.091L14,47H12V45c0-1.983,4.07-4,7-4h0c2.928,0,7,2.017,7,4Z" fill="#ffce5a"/>
        <path id="Trazado_150674" data-name="Trazado 150674" d="M19,43a5.035,5.035,0,0,1-5-5.285V36.286a5.008,5.008,0,1,1,10,0v1.429A5.035,5.035,0,0,1,19,43m0-10a3.015,3.015,0,0,0-3,3.286v1.429a3.012,3.012,0,1,0,6,0V36.286A3.015,3.015,0,0,0,19,33" fill="#ffce5a"/>
        <path id="Trazado_150675" data-name="Trazado 150675" d="M38,47H36V45c-.208-.481-2.7-2-5-2s-4.792,1.519-5.013,2.091L24,45c0-1.983,4.07-4,7-4h0c2.928,0,7,2.017,7,4Z" fill="#ffce5a"/>
        <path id="Trazado_150676" data-name="Trazado 150676" d="M31,43a5.035,5.035,0,0,1-5-5.285V36.286a5.008,5.008,0,1,1,10,0v1.429A5.035,5.035,0,0,1,31,43m0-10a3.015,3.015,0,0,0-3,3.286v1.429a3.012,3.012,0,1,0,6,0V36.286A3.015,3.015,0,0,0,31,33" fill="#ffce5a"/>
        <path id="Trazado_150677" data-name="Trazado 150677" d="M2,47H0V45c0-1.983,4.07-4,7-4H7c2.928,0,7,2.017,7,4H12c-.208-.481-2.7-2-5-2s-4.792,1.519-5.013,2.091Z" fill="#ffce5a"/>
        <path id="Trazado_150678" data-name="Trazado 150678" d="M7,43a5.035,5.035,0,0,1-5-5.285V36.286a5.008,5.008,0,1,1,10,0v1.429A5.035,5.035,0,0,1,7,43M7,33a3.015,3.015,0,0,0-3,3.286v1.429a3.012,3.012,0,1,0,6,0V36.286A3.015,3.015,0,0,0,7,33" fill="#ffce5a"/>
        <rect id="Rectángulo_38740" data-name="Rectángulo 38740" width="2" height="6" transform="translate(18)" fill="#ffce5a"/>
        <rect id="Rectángulo_38741" data-name="Rectángulo 38741" width="6" height="2" transform="translate(26.284 9.634) rotate(-30.001)" fill="#ffce5a"/>
        <rect id="Rectángulo_38742" data-name="Rectángulo 38742" width="2" height="6" transform="translate(26.294 20.366) rotate(-59.999)" fill="#ffce5a"/>
        <rect id="Rectángulo_38743" data-name="Rectángulo 38743" width="2" height="2.545" transform="translate(12.362 5.501) rotate(-29.991)" fill="#ffce5a"/>
        <rect id="Rectángulo_38744" data-name="Rectángulo 38744" width="3" height="2" transform="translate(28 14)" fill="#ffce5a"/>
        <rect id="Rectángulo_38745" data-name="Rectángulo 38745" width="2.547" height="2" transform="translate(22.634 6.705) rotate(-59.999)" fill="#ffce5a"/>
        <rect id="Rectángulo_38746" data-name="Rectángulo 38746" width="2" height="6" transform="matrix(0.5, -0.866, 0.866, 0.5, 5.02, 8.366)" fill="#ffce5a"/>
        <rect id="Rectángulo_38747" data-name="Rectángulo 38747" width="6" height="2" transform="translate(5.01 21.634) rotate(-30.001)" fill="#ffce5a"/>
        <rect id="Rectángulo_38748" data-name="Rectángulo 38748" width="3" height="2" transform="translate(7 14)" fill="#ffce5a"/>
        <path id="Trazado_150679" data-name="Trazado 150679" d="M20.414,29H17.586L15,26.414V23h2v2.586L18.414,27h1.172L21,25.586V23h2v3.414Z" fill="#ffce5a"/>
        <path id="Trazado_150680" data-name="Trazado 150680" d="M23,24H15V22a2.566,2.566,0,0,0-.844-1.955,7,7,0,1,1,9.682,0A2.564,2.564,0,0,0,23,22Zm-6-2h4a4.545,4.545,0,0,1,1.41-3.355,5,5,0,1,0-6.826,0A4.546,4.546,0,0,1,17,22" fill="#ffce5a"/>
      </g>
    </g>
    <path id="Trazado_150863" data-name="Trazado 150863" d="M0,0H67V67H0Z" transform="translate(-2967 -2542)" fill="none"/>
    <g id="Grupo_145339" data-name="Grupo 145339" transform="translate(-2954.039 -2530.5)">
      <g id="Grupo_145328" data-name="Grupo 145328" clip-path="url(#clip-path-16)">
        <path id="Trazado_150681" data-name="Trazado 150681" d="M20.039,34h-2V23.63l6.185-7.215L25.96,13.5a3.592,3.592,0,0,0-.252-2.468,3.029,3.029,0,0,0-.362-.6l-2.6,4.274-4,4A5.419,5.419,0,0,1,15.156,20H12.922a5.422,5.422,0,0,1-3.6-1.305l-4.138-4.18-2.45-4.083a3.029,3.029,0,0,0-.362.6A3.6,3.6,0,0,0,2.117,13.5l1.737,2.915,6.185,7.215V26h-2V24.37L2.18,17.512l-1.9-3.2a5.487,5.487,0,0,1,.272-4.118A3.851,3.851,0,0,1,2.723,8.051l.76-.253,3.35,5.582,3.913,3.913A3.591,3.591,0,0,0,12.922,18h2.234a3.6,3.6,0,0,0,2.164-.695l3.925-3.925L24.595,7.8l.76.254a3.846,3.846,0,0,1,2.167,2.14,5.489,5.489,0,0,1,.271,4.117l-.069.14-1.926,3.2L20.039,24.37Z" fill="#ffce5a"/>
        <path id="Trazado_150682" data-name="Trazado 150682" d="M14.039,17.014a3.915,3.915,0,0,1-4-4.006v-1a3.915,3.915,0,0,1,4-4.006,3.915,3.915,0,0,1,4,4.006v1a3.915,3.915,0,0,1-4,4.006m0-7.014a1.916,1.916,0,0,0-2,2.006v1a1.916,1.916,0,0,0,2,2.006,1.916,1.916,0,0,0,2-2.006v-1a1.916,1.916,0,0,0-2-2.006" fill="#ffce5a"/>
        <path id="Trazado_150683" data-name="Trazado 150683" d="M27.039,33.014a3.915,3.915,0,0,1-4-4.006v-1a4,4,0,1,1,8,0v1a3.915,3.915,0,0,1-4,4.006m0-7.014a1.916,1.916,0,0,0-2,2.006v1a2,2,0,1,0,4,0v-1a1.916,1.916,0,0,0-2-2.006" fill="#ffce5a"/>
        <path id="Trazado_150684" data-name="Trazado 150684" d="M33.079,44h-2V39.534l6.142-5.153,1.731-3.855a5.689,5.689,0,0,0-.439-3.59c-.039-.082-.078-.16-.117-.231L35.813,32.73l-4.8,2.375a7.642,7.642,0,0,1-2.86.9H27.039c-1.853,0-4.96.39-4.96,3v5h-2V39c0-3.131,2.6-5,6.96-5h1.117a7.125,7.125,0,0,0,2.039-.719l.439-.2,3.631-1.815,3.217-7.51.873.291a3.59,3.59,0,0,1,1.972,2.044,7.477,7.477,0,0,1,.466,5.213l-1.936,4.311-5.778,4.847Z" fill="#ffce5a"/>
        <path id="Trazado_150685" data-name="Trazado 150685" d="M11.039,36.014a3.915,3.915,0,0,1-4-4.006v-1a3.915,3.915,0,0,1,4-4.006,3.915,3.915,0,0,1,4,4.006v1a3.915,3.915,0,0,1-4,4.006m0-7.014a1.916,1.916,0,0,0-2,2.006v1a1.916,1.916,0,0,0,2,2.006,1.916,1.916,0,0,0,2-2.006v-1a1.916,1.916,0,0,0-2-2.006" fill="#ffce5a"/>
        <path id="Trazado_150686" data-name="Trazado 150686" d="M18.039,44h-2V42c0-2.708-3.5-3-5-3s-5,.292-5,3v2h-2V42c0-3.131,2.617-5,7-5s7,1.869,7,5Z" fill="#ffce5a"/>
        <rect id="Rectángulo_38750" data-name="Rectángulo 38750" width="2" height="5" transform="translate(13.039)" fill="#ffce5a"/>
        <rect id="Rectángulo_38751" data-name="Rectángulo 38751" width="4.243" height="2" transform="translate(17.372 5.293) rotate(-45)" fill="#ffce5a"/>
        <rect id="Rectángulo_38752" data-name="Rectángulo 38752" width="2" height="4.243" transform="translate(6.372 3.707) rotate(-45)" fill="#ffce5a"/>
      </g>
    </g>
  </g>
</svg>
