<svg xmlns="http://www.w3.org/2000/svg" xmlns:xlink="http://www.w3.org/1999/xlink" width="1097.92" height="365" viewBox="0 0 1097.92 365">
  <defs>
    <clipPath id="clip-path">
      <path id="Trazado_150608" data-name="Trazado 150608" d="M374.378,124.286A49.122,49.122,0,1,0,423.5,75.106a49.152,49.152,0,0,0-49.122,49.18" transform="translate(-374.378 -75.106)" fill="none"/>
    </clipPath>
    <linearGradient id="linear-gradient" x1="-2.757" y1="1.435" x2="-2.749" y2="1.435" gradientUnits="objectBoundingBox">
      <stop offset="0" stop-color="#fff"/>
      <stop offset="1" stop-color="#e6e7e8"/>
    </linearGradient>
    <clipPath id="clip-path-2">
      <path id="Trazado_150610" data-name="Trazado 150610" d="M490.323,124.286a49.122,49.122,0,1,0,49.122-49.18,49.151,49.151,0,0,0-49.122,49.18" transform="translate(-490.323 -75.106)" fill="none"/>
    </clipPath>
    <linearGradient id="linear-gradient-2" x1="-3.656" y1="1.435" x2="-3.649" y2="1.435" xlink:href="#linear-gradient"/>
    <clipPath id="clip-path-3">
      <path id="Trazado_150612" data-name="Trazado 150612" d="M606.622,124.286a49.122,49.122,0,1,0,49.122-49.18,49.151,49.151,0,0,0-49.122,49.18" transform="translate(-606.622 -75.106)" fill="none"/>
    </clipPath>
    <linearGradient id="linear-gradient-3" x1="-4.558" y1="1.435" x2="-4.551" y2="1.435" xlink:href="#linear-gradient"/>
    <clipPath id="clip-path-4">
      <path id="Trazado_150614" data-name="Trazado 150614" d="M722.851,124.286a49.122,49.122,0,1,0,49.122-49.18,49.152,49.152,0,0,0-49.122,49.18" transform="translate(-722.851 -75.106)" fill="none"/>
    </clipPath>
    <linearGradient id="linear-gradient-4" x1="-5.46" y1="1.435" x2="-5.452" y2="1.435" xlink:href="#linear-gradient"/>
    <clipPath id="clip-path-5">
      <path id="Trazado_150616" data-name="Trazado 150616" d="M839.969,124.286a49.122,49.122,0,1,0,49.122-49.18,49.152,49.152,0,0,0-49.122,49.18" transform="translate(-839.969 -75.106)" fill="none"/>
    </clipPath>
    <linearGradient id="linear-gradient-5" x1="-6.368" y1="1.435" x2="-6.36" y2="1.435" xlink:href="#linear-gradient"/>
    <clipPath id="clip-path-6">
      <path id="Trazado_150618" data-name="Trazado 150618" d="M257.689,124.286a49.122,49.122,0,1,0,49.122-49.18,49.152,49.152,0,0,0-49.122,49.18" transform="translate(-257.689 -75.106)" fill="none"/>
    </clipPath>
    <linearGradient id="linear-gradient-6" x1="-1.852" y1="1.435" x2="-1.844" y2="1.435" xlink:href="#linear-gradient"/>
    <clipPath id="clip-path-7">
      <path id="Trazado_150620" data-name="Trazado 150620" d="M141.288,124.286a49.122,49.122,0,1,0,49.122-49.18,49.152,49.152,0,0,0-49.122,49.18" transform="translate(-141.288 -75.106)" fill="none"/>
    </clipPath>
    <linearGradient id="linear-gradient-7" x1="-0.949" y1="1.435" x2="-0.941" y2="1.435" xlink:href="#linear-gradient"/>
    <clipPath id="clip-path-8">
      <path id="Trazado_150622" data-name="Trazado 150622" d="M24.963,124.286a49.122,49.122,0,1,0,49.122-49.18,49.152,49.152,0,0,0-49.122,49.18" transform="translate(-24.963 -75.106)" fill="none"/>
    </clipPath>
    <linearGradient id="linear-gradient-8" x1="-0.047" y1="1.435" x2="-0.039" y2="1.435" xlink:href="#linear-gradient"/>
    <filter id="Trazado_150623" x="0" y="97.565" width="174" height="174" filterUnits="userSpaceOnUse">
      <feOffset dx="5" dy="5" input="SourceAlpha"/>
      <feGaussianBlur stdDeviation="12.5" result="blur"/>
      <feFlood flood-opacity="0.063"/>
      <feComposite operator="in" in2="blur"/>
      <feComposite in="SourceGraphic"/>
    </filter>
    <filter id="Trazado_150687" x="123.132" y="96.385" width="174" height="174" filterUnits="userSpaceOnUse">
      <feOffset dx="5" dy="5" input="SourceAlpha"/>
      <feGaussianBlur stdDeviation="12.5" result="blur-2"/>
      <feFlood flood-opacity="0.063"/>
      <feComposite operator="in" in2="blur-2"/>
      <feComposite in="SourceGraphic"/>
    </filter>
    <filter id="Trazado_150688" x="251.015" y="96.385" width="174" height="174" filterUnits="userSpaceOnUse">
      <feOffset dx="5" dy="5" input="SourceAlpha"/>
      <feGaussianBlur stdDeviation="12.5" result="blur-3"/>
      <feFlood flood-opacity="0.063"/>
      <feComposite operator="in" in2="blur-3"/>
      <feComposite in="SourceGraphic"/>
    </filter>
    <filter id="Trazado_150689" x="375.28" y="96.385" width="174" height="174" filterUnits="userSpaceOnUse">
      <feOffset dx="5" dy="5" input="SourceAlpha"/>
      <feGaussianBlur stdDeviation="12.5" result="blur-4"/>
      <feFlood flood-opacity="0.063"/>
      <feComposite operator="in" in2="blur-4"/>
      <feComposite in="SourceGraphic"/>
    </filter>
    <filter id="Trazado_150690" x="501.101" y="96.385" width="174" height="174" filterUnits="userSpaceOnUse">
      <feOffset dx="5" dy="5" input="SourceAlpha"/>
      <feGaussianBlur stdDeviation="12.5" result="blur-5"/>
      <feFlood flood-opacity="0.063"/>
      <feComposite operator="in" in2="blur-5"/>
      <feComposite in="SourceGraphic"/>
    </filter>
    <filter id="Trazado_150691" x="625.428" y="96.385" width="174" height="174" filterUnits="userSpaceOnUse">
      <feOffset dx="5" dy="5" input="SourceAlpha"/>
      <feGaussianBlur stdDeviation="12.5" result="blur-6"/>
      <feFlood flood-opacity="0.063"/>
      <feComposite operator="in" in2="blur-6"/>
      <feComposite in="SourceGraphic"/>
    </filter>
    <filter id="Trazado_150692" x="751.452" y="96.385" width="174" height="174" filterUnits="userSpaceOnUse">
      <feOffset dx="5" dy="5" input="SourceAlpha"/>
      <feGaussianBlur stdDeviation="12.5" result="blur-7"/>
      <feFlood flood-opacity="0.063"/>
      <feComposite operator="in" in2="blur-7"/>
      <feComposite in="SourceGraphic"/>
    </filter>
    <filter id="Trazado_150693" x="876.354" y="96.385" width="174" height="174" filterUnits="userSpaceOnUse">
      <feOffset dx="5" dy="5" input="SourceAlpha"/>
      <feGaussianBlur stdDeviation="12.5" result="blur-8"/>
      <feFlood flood-opacity="0.063"/>
      <feComposite operator="in" in2="blur-8"/>
      <feComposite in="SourceGraphic"/>
    </filter>
    <clipPath id="clip-path-9">
      <rect id="Rectángulo_38725" data-name="Rectángulo 38725" width="44.998" height="44.998" fill="#43a99b"/>
    </clipPath>
    <clipPath id="clip-path-10">
      <rect id="Rectángulo_38726" data-name="Rectángulo 38726" width="46.276" height="48.414" transform="translate(0 0)" fill="#43a99b"/>
    </clipPath>
    <clipPath id="clip-path-11">
      <rect id="Rectángulo_38732" data-name="Rectángulo 38732" width="45" height="46" fill="#a4a3ff"/>
    </clipPath>
    <clipPath id="clip-path-12">
      <rect id="Rectángulo_38738" data-name="Rectángulo 38738" width="47.536" height="45.776" transform="translate(0 0)" fill="#5263e2"/>
    </clipPath>
    <clipPath id="clip-path-13">
      <rect id="Rectángulo_38739" data-name="Rectángulo 38739" width="47.376" height="48.084" fill="#ff8578"/>
    </clipPath>
    <clipPath id="clip-path-14">
      <rect id="Rectángulo_38755" data-name="Rectángulo 38755" width="42" height="42" fill="#ff8578"/>
    </clipPath>
    <clipPath id="clip-path-15">
      <rect id="Rectángulo_38749" data-name="Rectángulo 38749" width="38" height="47" fill="#ffce5a"/>
    </clipPath>
    <clipPath id="clip-path-16">
      <rect id="Rectángulo_38753" data-name="Rectángulo 38753" width="41.077" height="44" fill="#ffce5a"/>
    </clipPath>
  </defs>
  <g id="Grupo_145346" data-name="Grupo 145346" transform="translate(-280.08 -6458)">
    <g id="Grupo_145345" data-name="Grupo 145345">
      <g id="Grupo_145315" data-name="Grupo 145315">
        <text id="Misión_" data-name="Misión " transform="translate(356 6458)" fill="#12263f" font-size="18" font-family="ArialMT, Arial"><tspan x="-26.007" y="16">Misión </tspan></text>
        <text id="Recursos" transform="translate(619 6458)" fill="#12263f" font-size="18" font-family="ArialMT, Arial"><tspan x="-38.013" y="16">Recursos</tspan></text>
        <text id="Reconocimientos" transform="translate(855 6458)" fill="#12263f" font-size="18" font-family="ArialMT, Arial"><tspan x="-69.034" y="16">Reconocimientos</tspan></text>
        <text id="Servicios" transform="translate(1125 6458)" fill="#12263f" font-size="18" font-family="ArialMT, Arial"><tspan x="-36.51" y="16">Servicios</tspan></text>
        <text id="Visión" transform="translate(495 6779)" fill="#12263f" font-size="18" font-family="ArialMT, Arial"><tspan x="-24.35" y="16">Visión</tspan></text>
        <text id="Alianzas_estratégicas" data-name="Alianzas estratégicas" transform="translate(746 6779)" fill="#12263f" font-size="18" font-family="ArialMT, Arial"><tspan x="-34.018" y="16">Alianzas </tspan><tspan x="-48.524" y="40">estratégicas</tspan></text>
        <text id="Labor_Social" data-name="Labor Social" transform="translate(980 6779)" fill="#12263f" font-size="18" font-family="ArialMT, Arial"><tspan x="-50.032" y="16">Labor Social</tspan></text>
        <text id="Información_de_contacto" data-name="Información de contacto" transform="translate(1252 6777)" fill="#12263f" font-size="18" font-family="ArialMT, Arial"><tspan x="-59.533" y="16">Información de </tspan><tspan x="-34.022" y="40">contacto</tspan></text>
        <g id="Grupo_145314" data-name="Grupo 145314" transform="translate(0 75)">
          <path id="Trazado_150588" data-name="Trazado 150588" d="M187.526,245.248a5.312,5.312,0,0,1-1.078-10.514V191.271a1.078,1.078,0,0,1,2.156,0v43.463a5.312,5.312,0,0,1-1.078,10.514" transform="translate(299.257 6446.284)" fill="#ffe3a7"/>
          <path id="Trazado_150589" data-name="Trazado 150589" d="M420.321,245.248a5.312,5.312,0,0,1-1.078-10.514V191.271a1.078,1.078,0,0,1,2.156,0v43.463a5.312,5.312,0,0,1-1.078,10.514" transform="translate(317.472 6446.284)" fill="#ffa298"/>
          <path id="Trazado_150590" data-name="Trazado 150590" d="M653.117,245.248a5.312,5.312,0,0,1-1.078-10.514V191.271a1.078,1.078,0,0,1,2.157,0v43.463a5.312,5.312,0,0,1-1.078,10.514" transform="translate(335.687 6446.284)" fill="#a4a3ff"/>
          <path id="Trazado_150591" data-name="Trazado 150591" d="M891.224,239.936a5.312,5.312,0,1,1-6.39-5.2V191.271a1.078,1.078,0,0,1,2.156,0v43.463a5.313,5.313,0,0,1,4.233,5.2" transform="translate(353.901 6446.284)" fill="#64d3c4"/>
          <path id="Trazado_150592" data-name="Trazado 150592" d="M890.2,76.879a49.288,49.288,0,0,1,49.288,49.288H966.3a76.107,76.107,0,0,0-152.214,0h26.819A49.288,49.288,0,0,1,890.2,76.879" transform="translate(348.698 6435.32)" fill="#f1f2f2"/>
          <path id="Trazado_150593" data-name="Trazado 150593" d="M823.219,120.644h0a49.288,49.288,0,0,1-98.576,0H697.825a76.106,76.106,0,1,0,152.212,0Z" transform="translate(339.601 6440.842)" fill="#f1f2f2"/>
          <path id="Trazado_150594" data-name="Trazado 150594" d="M125.394,120.644h0a49.288,49.288,0,0,1-98.576,0H0a76.106,76.106,0,1,0,152.212,0Z" transform="translate(285 6440.842)" fill="#f1f2f2"/>
          <path id="Trazado_150595" data-name="Trazado 150595" d="M192.406,76.879a49.288,49.288,0,0,1,49.288,49.288h26.819a76.107,76.107,0,0,0-152.214,0h26.819a49.288,49.288,0,0,1,49.288-49.288" transform="translate(294.1 6435.32)" fill="#f1f2f2"/>
          <path id="Trazado_150596" data-name="Trazado 150596" d="M358.091,120.644h0a49.288,49.288,0,0,1-98.576,0H232.7a76.106,76.106,0,1,0,152.212,0Z" transform="translate(303.207 6440.842)" fill="#f1f2f2"/>
          <path id="Trazado_150597" data-name="Trazado 150597" d="M425.1,76.879a49.288,49.288,0,0,1,49.288,49.288h26.818a76.107,76.107,0,0,0-152.214,0h26.82A49.288,49.288,0,0,1,425.1,76.879" transform="translate(312.307 6435.32)" fill="#f1f2f2"/>
          <path id="Trazado_150598" data-name="Trazado 150598" d="M590.691,120.644h0a49.288,49.288,0,0,1-98.576,0H465.3a76.106,76.106,0,1,0,152.212,0Z" transform="translate(321.407 6440.842)" fill="#f1f2f2"/>
          <path id="Trazado_150599" data-name="Trazado 150599" d="M657.7,76.879a49.288,49.288,0,0,1,49.288,49.288h26.819a76.107,76.107,0,0,0-152.214,0h26.819A49.288,49.288,0,0,1,657.7,76.879" transform="translate(330.506 6435.32)" fill="#f1f2f2"/>
          <path id="Trazado_150600" data-name="Trazado 150600" d="M706.989,120.644h0a49.288,49.288,0,0,1-98.576,0H581.595a76.106,76.106,0,1,0,152.213,0Z" transform="translate(330.506 6440.842)" fill="#a4a3ff"/>
          <path id="Trazado_150601" data-name="Trazado 150601" d="M76.107,76.879a49.288,49.288,0,0,1,49.288,49.288h26.819A76.107,76.107,0,0,0,0,126.167H26.819A49.288,49.288,0,0,1,76.107,76.879" transform="translate(285 6435.32)" fill="#fed981"/>
          <path id="Trazado_150602" data-name="Trazado 150602" d="M241.694,120.644h0a49.288,49.288,0,0,1-98.576,0H116.3a76.106,76.106,0,1,0,152.212,0Z" transform="translate(294.1 6440.842)" fill="#ffe3a7"/>
          <path id="Trazado_150603" data-name="Trazado 150603" d="M308.8,76.879a49.288,49.288,0,0,1,49.288,49.288h26.819a76.107,76.107,0,0,0-152.214,0h26.819A49.288,49.288,0,0,1,308.8,76.879" transform="translate(303.207 6435.32)" fill="#ff8578"/>
          <path id="Trazado_150604" data-name="Trazado 150604" d="M474.387,120.644h0a49.288,49.288,0,0,1-98.576,0H348.993a76.106,76.106,0,1,0,152.212,0Z" transform="translate(312.307 6440.842)" fill="#ffa298"/>
          <path id="Trazado_150605" data-name="Trazado 150605" d="M541.4,76.879a49.288,49.288,0,0,1,49.288,49.288H617.51a76.107,76.107,0,0,0-152.214,0h26.819A49.288,49.288,0,0,1,541.4,76.879" transform="translate(321.407 6435.32)" fill="#5263e2"/>
          <path id="Trazado_150606" data-name="Trazado 150606" d="M773.932,76.879a49.288,49.288,0,0,1,49.288,49.288h26.818a76.107,76.107,0,0,0-152.214,0h26.82a49.287,49.287,0,0,1,49.288-49.288" transform="translate(339.601 6435.32)" fill="#43a99b"/>
          <path id="Trazado_150607" data-name="Trazado 150607" d="M939.484,120.644h0a49.288,49.288,0,0,1-98.576,0H814.09a76.106,76.106,0,1,0,152.212,0Z" transform="translate(348.698 6440.842)" fill="#64d3c4"/>
          <g id="Grupo_145285" data-name="Grupo 145285" transform="translate(688.671 6512.385)">
            <g id="Grupo_145284" data-name="Grupo 145284" clip-path="url(#clip-path)">
              <rect id="Rectángulo_38710" data-name="Rectángulo 38710" width="139.02" height="139.02" transform="translate(-49.18 49.18) rotate(-45)" fill="url(#linear-gradient)"/>
            </g>
          </g>
          <g id="Grupo_145289" data-name="Grupo 145289" transform="translate(813.688 6512.385)">
            <g id="Grupo_145288" data-name="Grupo 145288" clip-path="url(#clip-path-2)">
              <rect id="Rectángulo_38712" data-name="Rectángulo 38712" width="139.02" height="139.02" transform="translate(-49.18 49.18) rotate(-45)" fill="url(#linear-gradient-2)"/>
            </g>
          </g>
          <g id="Grupo_145293" data-name="Grupo 145293" transform="translate(939.086 6512.385)">
            <g id="Grupo_145292" data-name="Grupo 145292" clip-path="url(#clip-path-3)">
              <rect id="Rectángulo_38714" data-name="Rectángulo 38714" width="139.019" height="139.019" transform="translate(-49.18 49.18) rotate(-45)" fill="url(#linear-gradient-3)"/>
            </g>
          </g>
          <g id="Grupo_145297" data-name="Grupo 145297" transform="translate(1064.41 6512.385)">
            <g id="Grupo_145296" data-name="Grupo 145296" clip-path="url(#clip-path-4)">
              <rect id="Rectángulo_38716" data-name="Rectángulo 38716" width="139.019" height="139.019" transform="translate(-49.18 49.18) rotate(-45)" fill="url(#linear-gradient-4)"/>
            </g>
          </g>
          <g id="Grupo_145301" data-name="Grupo 145301" transform="translate(1190.691 6512.385)">
            <g id="Grupo_145300" data-name="Grupo 145300" clip-path="url(#clip-path-5)">
              <rect id="Rectángulo_38718" data-name="Rectángulo 38718" width="139.019" height="139.019" transform="translate(-49.18 49.18) rotate(-45)" fill="url(#linear-gradient-5)"/>
            </g>
          </g>
          <g id="Grupo_145305" data-name="Grupo 145305" transform="translate(562.852 6512.385)">
            <g id="Grupo_145304" data-name="Grupo 145304" clip-path="url(#clip-path-6)">
              <rect id="Rectángulo_38720" data-name="Rectángulo 38720" width="139.019" height="139.019" transform="translate(-49.18 49.18) rotate(-45)" fill="url(#linear-gradient-6)"/>
            </g>
          </g>
          <g id="Grupo_145309" data-name="Grupo 145309" transform="translate(437.343 6512.385)">
            <g id="Grupo_145308" data-name="Grupo 145308" clip-path="url(#clip-path-7)">
              <rect id="Rectángulo_38722" data-name="Rectángulo 38722" width="139.019" height="139.019" transform="translate(-49.18 49.18) rotate(-45)" fill="url(#linear-gradient-7)"/>
            </g>
          </g>
          <g id="Grupo_145313" data-name="Grupo 145313" transform="translate(311.916 6512.385)">
            <g id="Grupo_145312" data-name="Grupo 145312" clip-path="url(#clip-path-8)">
              <rect id="Rectángulo_38724" data-name="Rectángulo 38724" width="139.019" height="139.019" transform="translate(-49.18 49.18) rotate(-45)" fill="url(#linear-gradient-8)"/>
            </g>
          </g>
          <path id="Trazado_150624" data-name="Trazado 150624" d="M71.128,0a5.312,5.312,0,0,0-1.078,10.514V53.977a1.078,1.078,0,1,0,2.156,0V10.514A5.312,5.312,0,0,0,71.128,0" transform="translate(290.149 6431.403)" fill="#fed981"/>
          <path id="Trazado_150625" data-name="Trazado 150625" d="M303.924,0a5.312,5.312,0,0,0-1.078,10.514V53.977a1.078,1.078,0,0,0,2.156,0V10.514A5.312,5.312,0,0,0,303.924,0" transform="translate(308.364 6431.403)" fill="#ff8578"/>
          <path id="Trazado_150626" data-name="Trazado 150626" d="M536.719,0a5.312,5.312,0,0,0-1.078,10.514V53.977a1.078,1.078,0,0,0,2.157,0V10.514A5.312,5.312,0,0,0,536.719,0" transform="translate(326.579 6431.403)" fill="#5263e2"/>
          <path id="Trazado_150627" data-name="Trazado 150627" d="M774.826,5.313a5.312,5.312,0,1,0-6.39,5.2V53.977a1.078,1.078,0,0,0,2.157,0V10.514a5.313,5.313,0,0,0,4.233-5.2" transform="translate(344.794 6431.403)" fill="#43a99b"/>
          <g transform="matrix(1, 0, 0, 1, 280.08, 6383)" filter="url(#Trazado_150623)">
            <path id="Trazado_150623-2" data-name="Trazado 150623" d="M26.948,125.093a48,48,0,1,0,48-48,48,48,0,0,0-48,48" transform="translate(7.05 54.47)" fill="#f8f8f8" stroke="#fff" stroke-width="3"/>
          </g>
          <g transform="matrix(1, 0, 0, 1, 280.08, 6383)" filter="url(#Trazado_150687)">
            <path id="Trazado_150687-2" data-name="Trazado 150687" d="M26.948,125.093a48,48,0,1,0,48-48,48,48,0,0,0-48,48" transform="translate(130.18 53.29)" fill="#f8f8f8" stroke="#fff" stroke-width="3"/>
          </g>
          <g transform="matrix(1, 0, 0, 1, 280.08, 6383)" filter="url(#Trazado_150688)">
            <path id="Trazado_150688-2" data-name="Trazado 150688" d="M26.948,125.093a48,48,0,1,0,48-48,48,48,0,0,0-48,48" transform="translate(258.07 53.29)" fill="#f8f8f8" stroke="#fff" stroke-width="3"/>
          </g>
          <g transform="matrix(1, 0, 0, 1, 280.08, 6383)" filter="url(#Trazado_150689)">
            <path id="Trazado_150689-2" data-name="Trazado 150689" d="M26.948,125.093a48,48,0,1,0,48-48,48,48,0,0,0-48,48" transform="translate(382.33 53.29)" fill="#f8f8f8" stroke="#fff" stroke-width="3"/>
          </g>
          <g transform="matrix(1, 0, 0, 1, 280.08, 6383)" filter="url(#Trazado_150690)">
            <path id="Trazado_150690-2" data-name="Trazado 150690" d="M26.948,125.093a48,48,0,1,0,48-48,48,48,0,0,0-48,48" transform="translate(508.15 53.29)" fill="#f8f8f8" stroke="#fff" stroke-width="3"/>
          </g>
          <g transform="matrix(1, 0, 0, 1, 280.08, 6383)" filter="url(#Trazado_150691)">
            <path id="Trazado_150691-2" data-name="Trazado 150691" d="M26.948,125.093a48,48,0,1,0,48-48,48,48,0,0,0-48,48" transform="translate(632.48 53.29)" fill="#f8f8f8" stroke="#fff" stroke-width="3"/>
          </g>
          <g transform="matrix(1, 0, 0, 1, 280.08, 6383)" filter="url(#Trazado_150692)">
            <path id="Trazado_150692-2" data-name="Trazado 150692" d="M26.948,125.093a48,48,0,1,0,48-48,48,48,0,0,0-48,48" transform="translate(758.5 53.29)" fill="#f8f8f8" stroke="#fff" stroke-width="3"/>
          </g>
          <g transform="matrix(1, 0, 0, 1, 280.08, 6383)" filter="url(#Trazado_150693)">
            <path id="Trazado_150693-2" data-name="Trazado 150693" d="M26.948,125.093a48,48,0,1,0,48-48,48,48,0,0,0-48,48" transform="translate(883.41 53.29)" fill="#f8f8f8" stroke="#fff" stroke-width="3"/>
          </g>
        </g>
      </g>
      <g id="Grupo_145330" data-name="Grupo 145330" transform="translate(166 -264)">
        <g id="Grupo_145317" data-name="Grupo 145317" transform="translate(1052 6879)">
          <g id="Grupo_145316" data-name="Grupo 145316" clip-path="url(#clip-path-9)">
            <path id="Trazado_150628" data-name="Trazado 150628" d="M17,34A17,17,0,1,1,34,17,17.019,17.019,0,0,1,17,34M17,2A15,15,0,1,0,32,17,15.017,15.017,0,0,0,17,2" fill="#43a99b"/>
            <path id="Trazado_150629" data-name="Trazado 150629" d="M41.171,45a3.817,3.817,0,0,1-2.707-1.119L28.293,33.707l1.414-1.414L39.878,42.465a1.829,1.829,0,0,0,2.586-2.586L32.293,29.707l1.414-1.414L43.878,38.465A3.826,3.826,0,0,1,41.171,45" fill="#43a99b"/>
            <path id="Trazado_150630" data-name="Trazado 150630" d="M20.369,19.316A5.974,5.974,0,0,0,17,18a5.967,5.967,0,0,0-3.366,1.316l-1.265-1.549A7.932,7.932,0,0,1,17,16a7.929,7.929,0,0,1,4.632,1.767Z" fill="#43a99b"/>
            <path id="Trazado_150631" data-name="Trazado 150631" d="M17,18a4.138,4.138,0,0,1-4-4.429V12.429A4.138,4.138,0,0,1,17,8a4.138,4.138,0,0,1,4,4.429v1.142A4.138,4.138,0,0,1,17,18m0-8a2.167,2.167,0,0,0-2,2.429v1.142A2.167,2.167,0,0,0,17,16a2.167,2.167,0,0,0,2-2.429V12.429A2.167,2.167,0,0,0,17,10" fill="#43a99b"/>
            <path id="Trazado_150632" data-name="Trazado 150632" d="M14,26H12V23c-.136-.515-2.207-2-4-2a5.5,5.5,0,0,0-3.368.774L3.368,20.226A7.174,7.174,0,0,1,8,19c2.509,0,6,2.016,6,4Z" fill="#43a99b"/>
            <path id="Trazado_150633" data-name="Trazado 150633" d="M8,21a4.138,4.138,0,0,1-4-4.429V15.429A4.138,4.138,0,0,1,8,11a4.138,4.138,0,0,1,4,4.429v1.142A4.138,4.138,0,0,1,8,21m0-8a2.167,2.167,0,0,0-2,2.429v1.142A2.167,2.167,0,0,0,8,19a2.167,2.167,0,0,0,2-2.429V15.429A2.167,2.167,0,0,0,8,13" fill="#43a99b"/>
            <path id="Trazado_150634" data-name="Trazado 150634" d="M22,26H20V23c0-1.984,3.491-4,6-4a7.174,7.174,0,0,1,4.632,1.226l-1.264,1.548A5.5,5.5,0,0,0,26,21c-1.793,0-3.864,1.485-4,2.041Z" fill="#43a99b"/>
            <path id="Trazado_150635" data-name="Trazado 150635" d="M26,21a4.138,4.138,0,0,1-4-4.429V15.429a4.021,4.021,0,1,1,8,0v1.142A4.138,4.138,0,0,1,26,21m0-8a2.167,2.167,0,0,0-2,2.429v1.142A2.167,2.167,0,0,0,26,19a2.167,2.167,0,0,0,2-2.429V15.429A2.167,2.167,0,0,0,26,13" fill="#43a99b"/>
            <path id="Trazado_150636" data-name="Trazado 150636" d="M28,35.414l-3.707-3.707,1.414-1.414L28,32.586,32.586,28l-2.293-2.293,1.414-1.414L35.414,28Z" fill="#43a99b"/>
          </g>
        </g>
        <rect id="Rectángulo_38754" data-name="Rectángulo 38754" width="67" height="67" transform="translate(1041 6867)" fill="none"/>
      </g>
      <g id="Grupo_145331" data-name="Grupo 145331" transform="translate(41 -264)">
        <rect id="Rectángulo_38754-2" data-name="Rectángulo 38754" width="67" height="67" transform="translate(1041 6867)" fill="none"/>
        <g id="Grupo_145332" data-name="Grupo 145332" transform="translate(1051.362 6876.293)">
          <g id="Grupo_145318" data-name="Grupo 145318" clip-path="url(#clip-path-10)">
            <path id="Trazado_150637" data-name="Trazado 150637" d="M16.121,42.707l-1.414-1.414.125-.132A3.178,3.178,0,0,1,17.414,40H32.033c1.134-.474,6.2-5.38,7.351-6.666a57.54,57.54,0,0,0,4.523-7.085,3.6,3.6,0,0,0-2.55-.275c-1.3.3-2.17,1.213-3.337,3.483l-.145.284-4.868,2.527-.921-1.775,4.3-2.235c1.188-2.248,2.39-3.739,4.515-4.232A4.917,4.917,0,0,1,45.933,25.4l.343.461-.226.528a54.131,54.131,0,0,1-5.173,8.272C40.811,34.739,33.994,42,32.131,42H17.414a1.239,1.239,0,0,0-1.117.523Z" fill="#43a99b"/>
            <path id="Trazado_150638" data-name="Trazado 150638" d="M30.13,36h-9V34h9c1.382,0,2-.753,2-1.5s-.618-1.5-2-1.5h-6a3.685,3.685,0,0,1-2.059-1.035A4.392,4.392,0,0,0,20.414,29h-5A6.112,6.112,0,0,0,12.1,30.732c-1.466,1.467-4.11,3.969-4.136,4L6.584,33.273c.026-.024,2.65-2.508,4.123-3.98A7.923,7.923,0,0,1,15.414,27h5a5.088,5.088,0,0,1,2.873,1.377,5.544,5.544,0,0,0,.927.632L30.13,29c2.626,0,4,1.761,4,3.5s-1.374,3.5-4,3.5" fill="#43a99b"/>
            <path id="Trazado_150639" data-name="Trazado 150639" d="M12.414,48.414,0,36l5.414-5.414L17.828,43ZM2.828,36l9.586,9.586L15,43,5.414,33.414Z" fill="#43a99b"/>
            <path id="Trazado_150640" data-name="Trazado 150640" d="M30.131,16h-2V1h2V5.181a2.929,2.929,0,0,1,1-.181,4,4,0,0,1,0,8,2.929,2.929,0,0,1-1-.181ZM28.406,9l1.4,1.257a2.545,2.545,0,0,0,1.33.743,2,2,0,0,0,0-4,2.545,2.545,0,0,0-1.33.743Z" fill="#43a99b"/>
            <path id="Trazado_150641" data-name="Trazado 150641" d="M36.13,22a4,4,0,0,1-4-4,2.91,2.91,0,0,1,.182-1H29.13V15h15v2H39.948a2.91,2.91,0,0,1,.182,1,4,4,0,0,1-4,4m0-6.728-1.257,1.4A2.574,2.574,0,0,0,34.13,18a2,2,0,0,0,4,0,2.574,2.574,0,0,0-.743-1.332Z" fill="#43a99b"/>
            <path id="Trazado_150642" data-name="Trazado 150642" d="M30.13,30h-2V26.819a2.938,2.938,0,0,1-1,.181,4,4,0,0,1,0-8,2.938,2.938,0,0,1,1,.181V16h2Zm-3-9a2,2,0,0,0,0,4,2.545,2.545,0,0,0,1.33-.743L29.855,23l-1.4-1.257A2.545,2.545,0,0,0,27.13,21" fill="#43a99b"/>
            <path id="Trazado_150643" data-name="Trazado 150643" d="M29.13,17h-15V15h4.181a2.938,2.938,0,0,1-.181-1,4,4,0,0,1,8,0,2.914,2.914,0,0,1-.182,1H29.13Zm-7-5a2,2,0,0,0-2,2,2.56,2.56,0,0,0,.743,1.331l1.257,1.395,1.257-1.395A2.56,2.56,0,0,0,24.13,14a2,2,0,0,0-2-2" fill="#43a99b"/>
            <path id="Trazado_150644" data-name="Trazado 150644" d="M17.2,26.665a16,16,0,1,1,26.081-3.2l-1.768-.935a14,14,0,1,0-22.823,2.8Z" fill="#43a99b"/>
          </g>
        </g>
      </g>
      <g id="Grupo_145333" data-name="Grupo 145333" transform="translate(-84 -264)">
        <rect id="Rectángulo_38754-3" data-name="Rectángulo 38754" width="67" height="67" transform="translate(1041 6867)" fill="none"/>
        <g id="Grupo_145342" data-name="Grupo 145342" transform="translate(1052 6878)">
          <g id="Grupo_145320" data-name="Grupo 145320" clip-path="url(#clip-path-11)">
            <path id="Trazado_150645" data-name="Trazado 150645" d="M17,33V31a3.206,3.206,0,0,0,3-3V19c0-2.282-5.46-4-9-4s-9,1.718-9,4v9a3.206,3.206,0,0,0,3,3v2a5.2,5.2,0,0,1-5-5V19c0-4.188,7.284-6,11-6s11,1.812,11,6v9a5.2,5.2,0,0,1-5,5" fill="#a4a3ff"/>
            <path id="Trazado_150646" data-name="Trazado 150646" d="M28,33V31c1.246,0,3-.621,3-2V19c0-2.282-4.853-4-8-4H21V13h2c3.378,0,10,1.812,10,6V29c0,2.6-2.576,4-5,4" fill="#a4a3ff"/>
            <path id="Trazado_150647" data-name="Trazado 150647" d="M11,12A4.836,4.836,0,0,1,6,7V5a4.836,4.836,0,0,1,5-5,4.836,4.836,0,0,1,5,5V7a4.836,4.836,0,0,1-5,5M11,2A2.841,2.841,0,0,0,8,5V7a2.841,2.841,0,0,0,3,3,2.841,2.841,0,0,0,3-3V5a2.841,2.841,0,0,0-3-3" fill="#a4a3ff"/>
            <rect id="Rectángulo_38727" data-name="Rectángulo 38727" width="2" height="25" transform="translate(27 21)" fill="#a4a3ff"/>
            <rect id="Rectángulo_38728" data-name="Rectángulo 38728" width="2" height="25" transform="translate(16 21)" fill="#a4a3ff"/>
            <rect id="Rectángulo_38729" data-name="Rectángulo 38729" width="2" height="25" transform="translate(4 21)" fill="#a4a3ff"/>
            <rect id="Rectángulo_38730" data-name="Rectángulo 38730" width="2" height="15" transform="translate(10 31)" fill="#a4a3ff"/>
            <path id="Trazado_150648" data-name="Trazado 150648" d="M23,12a4.836,4.836,0,0,1-5-5V5a4.836,4.836,0,0,1,5-5,4.836,4.836,0,0,1,5,5V7a4.836,4.836,0,0,1-5,5M23,2a2.841,2.841,0,0,0-3,3V7a2.841,2.841,0,0,0,3,3,2.841,2.841,0,0,0,3-3V5a2.841,2.841,0,0,0-3-3" fill="#a4a3ff"/>
            <path id="Trazado_150649" data-name="Trazado 150649" d="M40,33V31c1.246,0,3-.621,3-2V19c0-2.282-4.853-4-8-4H33V13h2c3.378,0,10,1.812,10,6V29c0,2.6-2.576,4-5,4" fill="#a4a3ff"/>
            <rect id="Rectángulo_38731" data-name="Rectángulo 38731" width="2" height="25" transform="translate(39 21)" fill="#a4a3ff"/>
            <path id="Trazado_150650" data-name="Trazado 150650" d="M35,12a4.836,4.836,0,0,1-5-5V5A5,5,0,0,1,40,5V7a4.836,4.836,0,0,1-5,5M35,2a2.841,2.841,0,0,0-3,3V7a3,3,0,0,0,6,0V5a2.841,2.841,0,0,0-3-3" fill="#a4a3ff"/>
          </g>
        </g>
      </g>
      <g id="Grupo_145334" data-name="Grupo 145334" transform="translate(-209 -264)">
        <rect id="Rectángulo_38754-4" data-name="Rectángulo 38754" width="67" height="67" transform="translate(1041 6867)" fill="none"/>
        <g id="Grupo_145343" data-name="Grupo 145343" transform="translate(1050.732 6877.612)">
          <g id="Grupo_145322" data-name="Grupo 145322" clip-path="url(#clip-path-12)">
            <path id="Trazado_150651" data-name="Trazado 150651" d="M15.621,29.394a4.5,4.5,0,1,1,4.5-4.5,4.505,4.505,0,0,1-4.5,4.5m0-7a2.5,2.5,0,1,0,2.5,2.5,2.5,2.5,0,0,0-2.5-2.5" fill="#5263e2"/>
            <path id="Trazado_150652" data-name="Trazado 150652" d="M5.621,33.394a4.5,4.5,0,1,1,4.5-4.5,4.505,4.505,0,0,1-4.5,4.5m0-7a2.5,2.5,0,1,0,2.5,2.5,2.5,2.5,0,0,0-2.5-2.5" fill="#5263e2"/>
            <path id="Trazado_150653" data-name="Trazado 150653" d="M10.1,45.6l-1.956-.419L10.48,34.28c.449-2.1,1.949-3.4,4.457-3.868l5.731-.956,6.642-6,.622,1.061c.1.166,2.342,4.085-.388,6.664l-4.448,4.4L16.3,37.664l-.585-1.914,6.322-1.932,4.115-4.072a2.918,2.918,0,0,0,.534-3.03l-5.114,4.617-6.288,1.048c-1.713.321-2.571,1.015-2.85,2.318Z" fill="#5263e2"/>
            <rect id="Rectángulo_38733" data-name="Rectángulo 38733" width="10.198" height="2" transform="matrix(0.197, -0.981, 0.981, 0.197, 17.139, 45.197)" fill="#5263e2"/>
            <path id="Trazado_150654" data-name="Trazado 150654" d="M38.159,32.394a4.5,4.5,0,1,1,4.5-4.5,4.505,4.505,0,0,1-4.5,4.5m0-7a2.5,2.5,0,1,0,2.5,2.5,2.5,2.5,0,0,0-2.5-2.5" fill="#5263e2"/>
            <path id="Trazado_150655" data-name="Trazado 150655" d="M45.614,45.67l-2.241-7.795c-.285-1.321-.919-2.481-3.715-2.481H29.012a2.939,2.939,0,0,0,2.646,2h8v2h-8c-3.307,0-4.707-3.163-4.986-4.836l-.194-1.164h13.18c3.184,0,5.086,1.344,5.654,3.995l2.224,7.728Z" fill="#5263e2"/>
            <rect id="Rectángulo_38734" data-name="Rectángulo 38734" width="2" height="7.447" transform="translate(35.718 38.735) rotate(-19.958)" fill="#5263e2"/>
            <path id="Trazado_150656" data-name="Trazado 150656" d="M1.956,45.6,0,45.185,1.48,38.28c.449-2.1,1.949-3.4,4.457-3.868l4.988-1,.392,1.961-5,1C4.573,36.7,3.715,37.4,3.436,38.7Z" fill="#5263e2"/>
            <path id="Trazado_150657" data-name="Trazado 150657" d="M5.2,20.821l.742-6.815L.482,9.788,15.872,3.2l.787,1.839L4.4,10.287l3.649,2.821-.493,4.528,12.253-5.244.787,1.839Z" fill="#5263e2"/>
            <rect id="Rectángulo_38735" data-name="Rectángulo 38735" width="2" height="28.11" transform="matrix(0.919, -0.394, 0.394, 0.919, 13.74, 0.788)" fill="#5263e2"/>
            <rect id="Rectángulo_38736" data-name="Rectángulo 38736" width="2" height="4.784" transform="translate(26.362 30.346) rotate(-22.437)" fill="#5263e2"/>
            <rect id="Rectángulo_38737" data-name="Rectángulo 38737" width="2" height="7.568" transform="translate(29.846 38.781) rotate(-22.441)" fill="#5263e2"/>
          </g>
        </g>
      </g>
      <g id="Grupo_145335" data-name="Grupo 145335" transform="translate(-335 -264)">
        <rect id="Rectángulo_38754-5" data-name="Rectángulo 38754" width="67" height="67" transform="translate(1041 6867)" fill="none"/>
        <g id="Grupo_145341" data-name="Grupo 145341" transform="translate(1050.812 6876.458)">
          <g id="Grupo_145324" data-name="Grupo 145324" clip-path="url(#clip-path-13)">
            <path id="Trazado_150658" data-name="Trazado 150658" d="M21.92,31.82l-7.071-7.071a3.083,3.083,0,0,1,.057-4.3l1.357-1.357,1.414,1.415L16.32,21.863a1.071,1.071,0,0,0-.057,1.472l7.071,7.071Z" fill="#ff8578"/>
            <path id="Trazado_150659" data-name="Trazado 150659" d="M24.749,28.991,15.557,19.8a2.969,2.969,0,0,1-.872-2.135,3.011,3.011,0,0,1,.886-2.122,2.953,2.953,0,0,1,4.228.014l9.193,9.193-1.415,1.414L18.385,16.97A.971.971,0,0,0,17,16.942a1.043,1.043,0,0,0-.315.736.989.989,0,0,0,.287.707l9.192,9.192Z" fill="#ff8578"/>
            <path id="Trazado_150660" data-name="Trazado 150660" d="M31.113,43.841l-2.124-2.123a5.8,5.8,0,0,0-2.1-.973,8.577,8.577,0,0,1-3.554-1.856l-8.483-8.483a3.082,3.082,0,0,1,.058-4.3l1.356-1.357,1.414,1.414L16.321,27.52a1.071,1.071,0,0,0-.057,1.472l8.483,8.483a7,7,0,0,0,2.766,1.371A7.126,7.126,0,0,1,30.4,40.3l2.123,2.123Z" fill="#ff8578"/>
            <path id="Trazado_150661" data-name="Trazado 150661" d="M31.113,24.042l-7.778-7.778a1.053,1.053,0,0,0-.707-.323.908.908,0,0,0-.65.265l-1.472,1.472-1.414-1.414,1.472-1.472a2.807,2.807,0,0,1,2.121-.85,3.046,3.046,0,0,1,2.064.908l7.778,7.778Z" fill="#ff8578"/>
            <path id="Trazado_150662" data-name="Trazado 150662" d="M41.719,33.234,39.6,31.111a8.161,8.161,0,0,1-2.151-4.644,6.864,6.864,0,0,0-2.092-3.841L31.82,19.091a.853.853,0,0,0-1.415,0l-1.414,1.415-1.415-1.414,1.414-1.415a2.812,2.812,0,0,1,4.244,0l3.533,3.535A8.807,8.807,0,0,1,39.41,26.1a6.173,6.173,0,0,0,1.6,3.6l2.123,2.123Z" fill="#ff8578"/>
            <path id="Trazado_150663" data-name="Trazado 150663" d="M33.941,48.084,29.7,43.841,43.133,30.406l4.243,4.242-1.414,1.415-2.829-2.829L32.527,43.841l2.828,2.829Z" fill="#ff8578"/>
            <path id="Trazado_150664" data-name="Trazado 150664" d="M12.021,27.577,9.194,24.751A8.568,8.568,0,0,1,7.339,21.2a5.839,5.839,0,0,0-.973-2.1L4.243,16.971l1.414-1.415L7.78,17.68a7.116,7.116,0,0,1,1.458,2.89,6.984,6.984,0,0,0,1.37,2.767l2.827,2.826Z" fill="#ff8578"/>
            <path id="Trazado_150665" data-name="Trazado 150665" d="M28.991,16.264l-3.533-3.533a6.87,6.87,0,0,0-3.842-2.093,8.149,8.149,0,0,1-4.644-2.15L14.849,6.365l1.414-1.414,2.124,2.123a6.16,6.16,0,0,0,3.6,1.6,8.819,8.819,0,0,1,4.886,2.644l3.533,3.533Z" fill="#ff8578"/>
            <path id="Trazado_150666" data-name="Trazado 150666" d="M4.243,18.385,0,14.143l1.414-1.414,2.829,2.828L14.849,4.95,12.021,2.122,13.435.708,17.678,4.95Z" fill="#ff8578"/>
            <path id="Trazado_150667" data-name="Trazado 150667" d="M16.263,43.134,14.849,41.72,16.971,39.6a7.123,7.123,0,0,1,2.89-1.459c.448-.149.908-.3,1.352-.486l.778,1.841c-.493.209-1,.379-1.5.543a5.811,5.811,0,0,0-2.1.975Z" fill="#ff8578"/>
            <path id="Trazado_150668" data-name="Trazado 150668" d="M5.657,32.527,4.243,31.113l2.121-2.121a5.933,5.933,0,0,0,1.548-3.325l1.961.392a7.78,7.78,0,0,1-2.1,4.347Z" fill="#ff8578"/>
            <path id="Trazado_150669" data-name="Trazado 150669" d="M13.435,47.376l-1.414-1.414,2.828-2.828L4.243,32.527,1.414,35.355,0,33.941,4.243,29.7,17.677,43.134Z" fill="#ff8578"/>
            <path id="Trazado_150670" data-name="Trazado 150670" d="M39.495,21.993l-1.842-.779c.187-.444.339-.9.487-1.352A7.132,7.132,0,0,1,39.6,16.971l2.122-2.122,1.414,1.415-2.121,2.121a5.833,5.833,0,0,0-.975,2.1c-.164.5-.335,1.01-.543,1.5" fill="#ff8578"/>
            <path id="Trazado_150671" data-name="Trazado 150671" d="M26.053,9.874l-.392-1.961a5.93,5.93,0,0,0,3.33-1.549l2.122-2.121,1.414,1.414L30.406,7.778a7.782,7.782,0,0,1-4.353,2.1" fill="#ff8578"/>
            <path id="Trazado_150672" data-name="Trazado 150672" d="M43.133,17.678,29.7,4.243,33.941,0l1.414,1.414L32.527,4.243,43.133,14.85l2.829-2.828,1.414,1.414Z" fill="#ff8578"/>
          </g>
        </g>
      </g>
      <g id="Grupo_145336" data-name="Grupo 145336" transform="translate(-461 -264)">
        <rect id="Rectángulo_38754-6" data-name="Rectángulo 38754" width="67" height="67" transform="translate(1041 6867)" fill="none"/>
        <g id="Grupo_145344" data-name="Grupo 145344" transform="translate(1054 6880)">
          <g id="Grupo_145344-2" data-name="Grupo 145344" clip-path="url(#clip-path-14)">
            <path id="Trazado_150694" data-name="Trazado 150694" d="M21,42H5a5.006,5.006,0,0,1-5-5V20H10L8.8,21.6A3.538,3.538,0,0,0,8,24a3,3,0,0,0,3.574,2.947,3.1,3.1,0,0,0,2.406-3.422A3.406,3.406,0,0,0,13.2,21.6L12,20h9v2H15.688a5.376,5.376,0,0,1,.285,1.352,5.085,5.085,0,0,1-4.039,5.562A5,5,0,0,1,6,24a5.868,5.868,0,0,1,.312-2H2V37a3,3,0,0,0,3,3H21Z" fill="#ff8578"/>
            <path id="Trazado_150695" data-name="Trazado 150695" d="M37,42H20V32l1.6,1.2A3.538,3.538,0,0,0,24,34a3,3,0,0,0,2.947-3.574,3.1,3.1,0,0,0-3.422-2.406,3.406,3.406,0,0,0-1.924.78L20,30V21h2v5.312a5.376,5.376,0,0,1,1.352-.285,5.08,5.08,0,0,1,5.562,4.039A5,5,0,0,1,24,36a5.868,5.868,0,0,1-2-.312V40H37a3,3,0,0,0,3-3V21h2V37a5.006,5.006,0,0,1-5,5" fill="#ff8578"/>
            <path id="Trazado_150696" data-name="Trazado 150696" d="M42,22H32l1.2-1.6A3.538,3.538,0,0,0,34,18a3,3,0,0,0-3.575-2.948,3.1,3.1,0,0,0-2.4,3.423A3.406,3.406,0,0,0,28.8,20.4L30,22H21V20h5.312a5.376,5.376,0,0,1-.285-1.352,5.086,5.086,0,0,1,4.038-5.563A5,5,0,0,1,36,18a5.868,5.868,0,0,1-.312,2H40V5a3,3,0,0,0-3-3H21V0H37a5.006,5.006,0,0,1,5,5Z" fill="#ff8578"/>
            <path id="Trazado_150697" data-name="Trazado 150697" d="M22,21H20V15.688a5.384,5.384,0,0,1-1.353.285,5.078,5.078,0,0,1-5.561-4.039A5,5,0,0,1,18,6a5.868,5.868,0,0,1,2,.312V2H5A3,3,0,0,0,2,5V21H0V5A5.006,5.006,0,0,1,5,0H22V10L20.4,8.8A3.538,3.538,0,0,0,18,8a3,3,0,0,0-2.947,3.574,3.1,3.1,0,0,0,3.421,2.406A3.406,3.406,0,0,0,20.4,13.2L22,12Z" fill="#ff8578"/>
          </g>
        </g>
      </g>
      <g id="Grupo_145337" data-name="Grupo 145337" transform="translate(-587 -264)">
        <rect id="Rectángulo_38754-7" data-name="Rectángulo 38754" width="67" height="67" transform="translate(1041 6867)" fill="none"/>
        <g id="Grupo_145340" data-name="Grupo 145340" transform="translate(1056 6877)">
          <g id="Grupo_145326" data-name="Grupo 145326" clip-path="url(#clip-path-15)">
            <path id="Trazado_150673" data-name="Trazado 150673" d="M26,47H24V45c-.208-.481-2.7-2-5-2s-4.792,1.519-5.013,2.091L14,47H12V45c0-1.983,4.07-4,7-4h0c2.928,0,7,2.017,7,4Z" fill="#ffce5a"/>
            <path id="Trazado_150674" data-name="Trazado 150674" d="M19,43a5.035,5.035,0,0,1-5-5.285V36.286a5.008,5.008,0,1,1,10,0v1.429A5.035,5.035,0,0,1,19,43m0-10a3.015,3.015,0,0,0-3,3.286v1.429a3.012,3.012,0,1,0,6,0V36.286A3.015,3.015,0,0,0,19,33" fill="#ffce5a"/>
            <path id="Trazado_150675" data-name="Trazado 150675" d="M38,47H36V45c-.208-.481-2.7-2-5-2s-4.792,1.519-5.013,2.091L24,45c0-1.983,4.07-4,7-4h0c2.928,0,7,2.017,7,4Z" fill="#ffce5a"/>
            <path id="Trazado_150676" data-name="Trazado 150676" d="M31,43a5.035,5.035,0,0,1-5-5.285V36.286a5.008,5.008,0,1,1,10,0v1.429A5.035,5.035,0,0,1,31,43m0-10a3.015,3.015,0,0,0-3,3.286v1.429a3.012,3.012,0,1,0,6,0V36.286A3.015,3.015,0,0,0,31,33" fill="#ffce5a"/>
            <path id="Trazado_150677" data-name="Trazado 150677" d="M2,47H0V45c0-1.983,4.07-4,7-4H7c2.928,0,7,2.017,7,4H12c-.208-.481-2.7-2-5-2s-4.792,1.519-5.013,2.091Z" fill="#ffce5a"/>
            <path id="Trazado_150678" data-name="Trazado 150678" d="M7,43a5.035,5.035,0,0,1-5-5.285V36.286a5.008,5.008,0,1,1,10,0v1.429A5.035,5.035,0,0,1,7,43M7,33a3.015,3.015,0,0,0-3,3.286v1.429a3.012,3.012,0,1,0,6,0V36.286A3.015,3.015,0,0,0,7,33" fill="#ffce5a"/>
            <rect id="Rectángulo_38740" data-name="Rectángulo 38740" width="2" height="6" transform="translate(18)" fill="#ffce5a"/>
            <rect id="Rectángulo_38741" data-name="Rectángulo 38741" width="6" height="2" transform="translate(26.284 9.634) rotate(-30.001)" fill="#ffce5a"/>
            <rect id="Rectángulo_38742" data-name="Rectángulo 38742" width="2" height="6" transform="translate(26.294 20.366) rotate(-59.999)" fill="#ffce5a"/>
            <rect id="Rectángulo_38743" data-name="Rectángulo 38743" width="2" height="2.545" transform="translate(12.362 5.501) rotate(-29.991)" fill="#ffce5a"/>
            <rect id="Rectángulo_38744" data-name="Rectángulo 38744" width="3" height="2" transform="translate(28 14)" fill="#ffce5a"/>
            <rect id="Rectángulo_38745" data-name="Rectángulo 38745" width="2.547" height="2" transform="translate(22.634 6.705) rotate(-59.999)" fill="#ffce5a"/>
            <rect id="Rectángulo_38746" data-name="Rectángulo 38746" width="2" height="6" transform="matrix(0.5, -0.866, 0.866, 0.5, 5.02, 8.366)" fill="#ffce5a"/>
            <rect id="Rectángulo_38747" data-name="Rectángulo 38747" width="6" height="2" transform="translate(5.01 21.634) rotate(-30.001)" fill="#ffce5a"/>
            <rect id="Rectángulo_38748" data-name="Rectángulo 38748" width="3" height="2" transform="translate(7 14)" fill="#ffce5a"/>
            <path id="Trazado_150679" data-name="Trazado 150679" d="M20.414,29H17.586L15,26.414V23h2v2.586L18.414,27h1.172L21,25.586V23h2v3.414Z" fill="#ffce5a"/>
            <path id="Trazado_150680" data-name="Trazado 150680" d="M23,24H15V22a2.566,2.566,0,0,0-.844-1.955,7,7,0,1,1,9.682,0A2.564,2.564,0,0,0,23,22Zm-6-2h4a4.545,4.545,0,0,1,1.41-3.355,5,5,0,1,0-6.826,0A4.546,4.546,0,0,1,17,22" fill="#ffce5a"/>
          </g>
        </g>
      </g>
      <g id="Grupo_145338" data-name="Grupo 145338" transform="translate(-713 -264)">
        <rect id="Rectángulo_38754-8" data-name="Rectángulo 38754" width="67" height="67" transform="translate(1041 6867)" fill="none"/>
        <g id="Grupo_145339" data-name="Grupo 145339" transform="translate(1053.961 6878.5)">
          <g id="Grupo_145328" data-name="Grupo 145328" clip-path="url(#clip-path-16)">
            <path id="Trazado_150681" data-name="Trazado 150681" d="M20.039,34h-2V23.63l6.185-7.215L25.96,13.5a3.592,3.592,0,0,0-.252-2.468,3.029,3.029,0,0,0-.362-.6l-2.6,4.274-4,4A5.419,5.419,0,0,1,15.156,20H12.922a5.422,5.422,0,0,1-3.6-1.305l-4.138-4.18-2.45-4.083a3.029,3.029,0,0,0-.362.6A3.6,3.6,0,0,0,2.117,13.5l1.737,2.915,6.185,7.215V26h-2V24.37L2.18,17.512l-1.9-3.2a5.487,5.487,0,0,1,.272-4.118A3.851,3.851,0,0,1,2.723,8.051l.76-.253,3.35,5.582,3.913,3.913A3.591,3.591,0,0,0,12.922,18h2.234a3.6,3.6,0,0,0,2.164-.695l3.925-3.925L24.595,7.8l.76.254a3.846,3.846,0,0,1,2.167,2.14,5.489,5.489,0,0,1,.271,4.117l-.069.14-1.926,3.2L20.039,24.37Z" fill="#ffce5a"/>
            <path id="Trazado_150682" data-name="Trazado 150682" d="M14.039,17.014a3.915,3.915,0,0,1-4-4.006v-1a3.915,3.915,0,0,1,4-4.006,3.915,3.915,0,0,1,4,4.006v1a3.915,3.915,0,0,1-4,4.006m0-7.014a1.916,1.916,0,0,0-2,2.006v1a1.916,1.916,0,0,0,2,2.006,1.916,1.916,0,0,0,2-2.006v-1a1.916,1.916,0,0,0-2-2.006" fill="#ffce5a"/>
            <path id="Trazado_150683" data-name="Trazado 150683" d="M27.039,33.014a3.915,3.915,0,0,1-4-4.006v-1a4,4,0,1,1,8,0v1a3.915,3.915,0,0,1-4,4.006m0-7.014a1.916,1.916,0,0,0-2,2.006v1a2,2,0,1,0,4,0v-1a1.916,1.916,0,0,0-2-2.006" fill="#ffce5a"/>
            <path id="Trazado_150684" data-name="Trazado 150684" d="M33.079,44h-2V39.534l6.142-5.153,1.731-3.855a5.689,5.689,0,0,0-.439-3.59c-.039-.082-.078-.16-.117-.231L35.813,32.73l-4.8,2.375a7.642,7.642,0,0,1-2.86.9H27.039c-1.853,0-4.96.39-4.96,3v5h-2V39c0-3.131,2.6-5,6.96-5h1.117a7.125,7.125,0,0,0,2.039-.719l.439-.2,3.631-1.815,3.217-7.51.873.291a3.59,3.59,0,0,1,1.972,2.044,7.477,7.477,0,0,1,.466,5.213l-1.936,4.311-5.778,4.847Z" fill="#ffce5a"/>
            <path id="Trazado_150685" data-name="Trazado 150685" d="M11.039,36.014a3.915,3.915,0,0,1-4-4.006v-1a3.915,3.915,0,0,1,4-4.006,3.915,3.915,0,0,1,4,4.006v1a3.915,3.915,0,0,1-4,4.006m0-7.014a1.916,1.916,0,0,0-2,2.006v1a1.916,1.916,0,0,0,2,2.006,1.916,1.916,0,0,0,2-2.006v-1a1.916,1.916,0,0,0-2-2.006" fill="#ffce5a"/>
            <path id="Trazado_150686" data-name="Trazado 150686" d="M18.039,44h-2V42c0-2.708-3.5-3-5-3s-5,.292-5,3v2h-2V42c0-3.131,2.617-5,7-5s7,1.869,7,5Z" fill="#ffce5a"/>
            <rect id="Rectángulo_38750" data-name="Rectángulo 38750" width="2" height="5" transform="translate(13.039)" fill="#ffce5a"/>
            <rect id="Rectángulo_38751" data-name="Rectángulo 38751" width="4.243" height="2" transform="translate(17.372 5.293) rotate(-45)" fill="#ffce5a"/>
            <rect id="Rectángulo_38752" data-name="Rectángulo 38752" width="2" height="4.243" transform="translate(6.372 3.707) rotate(-45)" fill="#ffce5a"/>
          </g>
        </g>
      </g>
    </g>
  </g>
</svg>
