<svg id="Grupo_145412" data-name="Grupo 145412" xmlns="http://www.w3.org/2000/svg" xmlns:xlink="http://www.w3.org/1999/xlink" width="237.652" height="210.641" viewBox="0 0 237.652 210.641">
  <defs>
    <clipPath id="clip-path">
      <rect id="Rectángulo_38803" data-name="Rectángulo 38803" width="237.652" height="210.641" fill="none"/>
    </clipPath>
    <clipPath id="clip-path-3">
      <rect id="Rectángulo_38788" data-name="Rectángulo 38788" width="64.361" height="68.569" fill="none"/>
    </clipPath>
    <clipPath id="clip-path-4">
      <rect id="Rectángulo_38790" data-name="Rectángulo 38790" width="84.526" height="45.473" fill="none"/>
    </clipPath>
    <clipPath id="clip-path-6">
      <rect id="Rectángulo_38792" data-name="Rectángulo 38792" width="84.525" height="45.473" fill="none"/>
    </clipPath>
    <clipPath id="clip-path-8">
      <rect id="Rectángulo_38793" data-name="Rectángulo 38793" width="58.388" height="21.895" fill="none"/>
    </clipPath>
    <clipPath id="clip-path-9">
      <rect id="Rectángulo_38794" data-name="Rectángulo 38794" width="120.957" height="77.442" fill="none"/>
    </clipPath>
    <clipPath id="clip-path-10">
      <rect id="Rectángulo_38795" data-name="Rectángulo 38795" width="89.115" height="7.403" fill="none"/>
    </clipPath>
    <clipPath id="clip-path-12">
      <rect id="Rectángulo_38798" data-name="Rectángulo 38798" width="84.844" height="50.679" fill="none"/>
    </clipPath>
    <clipPath id="clip-path-13">
      <path id="Trazado_150801" data-name="Trazado 150801" d="M108.612,107.619v57.8h48.4v-57.8a24.2,24.2,0,0,0-48.4,0" transform="translate(-108.612 -83.418)" fill="none"/>
    </clipPath>
    <clipPath id="clip-path-14">
      <rect id="Rectángulo_38800" data-name="Rectángulo 38800" width="45.371" height="28.77" fill="none"/>
    </clipPath>
    <clipPath id="clip-path-16">
      <rect id="Rectángulo_38801" data-name="Rectángulo 38801" width="52.451" height="33.26" fill="none"/>
    </clipPath>
  </defs>
  <g id="Grupo_145411" data-name="Grupo 145411" clip-path="url(#clip-path)">
    <g id="Grupo_145400" data-name="Grupo 145400">
      <g id="Grupo_145399" data-name="Grupo 145399" clip-path="url(#clip-path)">
        <path id="Trazado_150751" data-name="Trazado 150751" d="M172.7,68.569H126.624a9.144,9.144,0,0,1-9.144-9.144V9.144A9.144,9.144,0,0,1,126.624,0H172.7a9.144,9.144,0,0,1,9.144,9.144v50.28a9.144,9.144,0,0,1-9.144,9.144" transform="translate(-50.584)" fill="#fff"/>
        <g id="Grupo_145371" data-name="Grupo 145371" transform="translate(66.896)" opacity="0.39">
          <g id="Grupo_145370" data-name="Grupo 145370">
            <g id="Grupo_145369" data-name="Grupo 145369" clip-path="url(#clip-path-3)">
              <path id="Trazado_150752" data-name="Trazado 150752" d="M172.7,68.569H126.624a9.144,9.144,0,0,1-9.144-9.144V9.144A9.144,9.144,0,0,1,126.624,0H172.7a9.144,9.144,0,0,1,9.144,9.144v50.28a9.144,9.144,0,0,1-9.144,9.144" transform="translate(-117.48)" fill="#ffb8b3"/>
            </g>
          </g>
        </g>
        <path id="Trazado_150753" data-name="Trazado 150753" d="M157.459.017V0H105.765A10.774,10.774,0,0,0,94.991,10.774v4.092H147.27V10.774A10.773,10.773,0,0,1,157.459.017" transform="translate(-40.901)" fill="#ffb8b3"/>
        <path id="Trazado_150754" data-name="Trazado 150754" d="M174.052,39.057H138.681a.569.569,0,0,1,0-1.139h35.371a.569.569,0,1,1,0,1.139" transform="translate(-59.468 -16.327)" fill="#fff"/>
        <path id="Trazado_150755" data-name="Trazado 150755" d="M174.052,65.211H138.681a.569.569,0,0,1,0-1.139h35.371a.569.569,0,0,1,0,1.139" transform="translate(-59.468 -27.588)" fill="#fff"/>
        <path id="Trazado_150756" data-name="Trazado 150756" d="M157.472,52.145H138.681a.569.569,0,0,1,0-1.139h18.791a.569.569,0,0,1,0,1.139" transform="translate(-59.468 -21.962)" fill="#fff"/>
        <path id="Trazado_150757" data-name="Trazado 150757" d="M195.625,52.145H179.681a.569.569,0,1,1,0-1.139h15.944a.569.569,0,1,1,0,1.139" transform="translate(-77.121 -21.962)" fill="#fff"/>
        <g id="Grupo_145377" data-name="Grupo 145377" transform="translate(39.904 146.905)" opacity="0.81">
          <g id="Grupo_145376" data-name="Grupo 145376">
            <g id="Grupo_145375" data-name="Grupo 145375" clip-path="url(#clip-path-4)">
              <path id="Trazado_150758" data-name="Trazado 150758" d="M187.794,288.748H174.647a.569.569,0,1,1,0-1.139h13.147a.569.569,0,1,1,0,1.139" transform="translate(-114.857 -270.743)" fill="#fff"/>
              <path id="Trazado_150759" data-name="Trazado 150759" d="M187.794,312.748H174.647a.569.569,0,1,1,0-1.139h13.147a.569.569,0,1,1,0,1.139" transform="translate(-114.857 -281.076)" fill="#fff"/>
              <path id="Trazado_150760" data-name="Trazado 150760" d="M153.06,303.462H71.622a1.545,1.545,0,0,1-1.544-1.544V259.533a1.546,1.546,0,0,1,1.544-1.544H153.06a1.546,1.546,0,0,1,1.544,1.544v42.385a1.545,1.545,0,0,1-1.544,1.544M71.622,259.128a.405.405,0,0,0-.4.405v42.385a.405.405,0,0,0,.4.4H153.06a.405.405,0,0,0,.4-.4V259.533a.405.405,0,0,0-.4-.405Z" transform="translate(-70.078 -257.989)" fill="#fff"/>
              <g id="Grupo_145374" data-name="Grupo 145374" opacity="0.66">
                <g id="Grupo_145373" data-name="Grupo 145373">
                  <g id="Grupo_145372" data-name="Grupo 145372" clip-path="url(#clip-path-4)">
                    <path id="Trazado_150761" data-name="Trazado 150761" d="M153.06,303.462H71.622a1.545,1.545,0,0,1-1.544-1.544V259.533a1.546,1.546,0,0,1,1.544-1.544H153.06a1.546,1.546,0,0,1,1.544,1.544v42.385a1.545,1.545,0,0,1-1.544,1.544M71.622,259.128a.405.405,0,0,0-.4.405v42.385a.405.405,0,0,0,.4.4H153.06a.405.405,0,0,0,.4-.4V259.533a.405.405,0,0,0-.4-.405Z" transform="translate(-70.078 -257.989)" fill="#fff"/>
                  </g>
                </g>
              </g>
              <path id="Trazado_150762" data-name="Trazado 150762" d="M87.118,300.575h20.619a.7.7,0,0,0,.7-.7v-27.89a.7.7,0,0,0-.7-.7H87.118a.7.7,0,0,0-.7.7v27.89a.7.7,0,0,0,.7.7" transform="translate(-77.112 -263.711)" fill="#fff"/>
              <path id="Trazado_150763" data-name="Trazado 150763" d="M170.394,277.1H134.235a.569.569,0,0,1,0-1.139h36.159a.569.569,0,0,1,0,1.139" transform="translate(-97.457 -265.728)" fill="#fff"/>
              <path id="Trazado_150764" data-name="Trazado 150764" d="M170.394,300.4H134.235a.569.569,0,0,1,0-1.139h36.159a.569.569,0,0,1,0,1.139" transform="translate(-97.457 -275.758)" fill="#fff"/>
              <path id="Trazado_150765" data-name="Trazado 150765" d="M153.729,288.748H134.234a.569.569,0,1,1,0-1.139h19.494a.569.569,0,1,1,0,1.139" transform="translate(-97.457 -270.743)" fill="#fff"/>
              <path id="Trazado_150766" data-name="Trazado 150766" d="M153.729,312.748H134.234a.569.569,0,1,1,0-1.139h19.494a.569.569,0,1,1,0,1.139" transform="translate(-97.457 -281.076)" fill="#fff"/>
              <path id="Trazado_150767" data-name="Trazado 150767" d="M147.381,323.867H134.234a.569.569,0,1,1,0-1.139h13.147a.569.569,0,0,1,0,1.139" transform="translate(-97.457 -285.864)" fill="#fff"/>
            </g>
          </g>
        </g>
        <g id="Grupo_145383" data-name="Grupo 145383" transform="translate(153.126 73.973)" opacity="0.81">
          <g id="Grupo_145382" data-name="Grupo 145382">
            <g id="Grupo_145381" data-name="Grupo 145381" clip-path="url(#clip-path-6)">
              <path id="Trazado_150768" data-name="Trazado 150768" d="M386.629,160.667H373.482a.569.569,0,1,1,0-1.139h13.147a.569.569,0,0,1,0,1.139" transform="translate(-313.693 -142.662)" fill="#fff"/>
              <path id="Trazado_150769" data-name="Trazado 150769" d="M386.629,184.667H373.482a.569.569,0,1,1,0-1.139h13.147a.569.569,0,0,1,0,1.139" transform="translate(-313.693 -152.995)" fill="#fff"/>
              <path id="Trazado_150770" data-name="Trazado 150770" d="M351.9,175.381H270.458a1.546,1.546,0,0,1-1.544-1.544V131.452a1.546,1.546,0,0,1,1.544-1.544H351.9a1.545,1.545,0,0,1,1.544,1.544v42.384a1.546,1.546,0,0,1-1.544,1.544m-81.438-44.334a.406.406,0,0,0-.405.405v42.384a.406.406,0,0,0,.405.405H351.9a.406.406,0,0,0,.4-.405V131.452a.406.406,0,0,0-.4-.405Z" transform="translate(-268.914 -129.908)" fill="#fff"/>
              <g id="Grupo_145380" data-name="Grupo 145380" opacity="0.66">
                <g id="Grupo_145379" data-name="Grupo 145379">
                  <g id="Grupo_145378" data-name="Grupo 145378" clip-path="url(#clip-path-6)">
                    <path id="Trazado_150771" data-name="Trazado 150771" d="M351.9,175.381H270.458a1.546,1.546,0,0,1-1.544-1.544V131.452a1.546,1.546,0,0,1,1.544-1.544H351.9a1.545,1.545,0,0,1,1.544,1.544v42.384a1.546,1.546,0,0,1-1.544,1.544m-81.438-44.334a.406.406,0,0,0-.405.405v42.384a.406.406,0,0,0,.405.405H351.9a.406.406,0,0,0,.4-.405V131.452a.406.406,0,0,0-.4-.405Z" transform="translate(-268.914 -129.908)" fill="#fff"/>
                  </g>
                </g>
              </g>
              <path id="Trazado_150772" data-name="Trazado 150772" d="M285.953,172.492h20.619a.7.7,0,0,0,.7-.7V143.9a.7.7,0,0,0-.7-.7H285.953a.7.7,0,0,0-.7.7v27.89a.7.7,0,0,0,.7.7" transform="translate(-275.948 -135.629)" fill="#fff"/>
              <path id="Trazado_150773" data-name="Trazado 150773" d="M369.229,149.019H333.07a.569.569,0,1,1,0-1.139h36.159a.569.569,0,1,1,0,1.139" transform="translate(-296.293 -137.646)" fill="#fff"/>
              <path id="Trazado_150774" data-name="Trazado 150774" d="M369.229,172.314H333.07a.569.569,0,0,1,0-1.139h36.159a.569.569,0,1,1,0,1.139" transform="translate(-296.293 -147.677)" fill="#fff"/>
              <path id="Trazado_150775" data-name="Trazado 150775" d="M352.566,160.667H333.071a.569.569,0,1,1,0-1.139h19.494a.569.569,0,1,1,0,1.139" transform="translate(-296.293 -142.662)" fill="#fff"/>
              <path id="Trazado_150776" data-name="Trazado 150776" d="M352.566,184.667H333.071a.569.569,0,1,1,0-1.139h19.494a.569.569,0,1,1,0,1.139" transform="translate(-296.293 -152.995)" fill="#fff"/>
              <path id="Trazado_150777" data-name="Trazado 150777" d="M346.218,195.784H333.07a.569.569,0,1,1,0-1.139h13.147a.569.569,0,0,1,0,1.139" transform="translate(-296.293 -157.782)" fill="#fff"/>
            </g>
          </g>
        </g>
        <path id="Trazado_150778" data-name="Trazado 150778" d="M318.568,246.268H270.6a1.9,1.9,0,0,1-1.9-1.9V227.015a1.9,1.9,0,0,1,1.9-1.9h47.97a1.9,1.9,0,0,1,1.9,1.9V244.37a1.9,1.9,0,0,1-1.9,1.9" transform="translate(-115.696 -96.93)" fill="#ffb8b3"/>
        <path id="Trazado_150779" data-name="Trazado 150779" d="M288.733,254.41h52.609a2.9,2.9,0,0,1,2.89,2.89v16.116a2.9,2.9,0,0,1-2.89,2.89H288.733a2.9,2.9,0,0,1-2.89-2.89V257.3a2.9,2.9,0,0,1,2.89-2.89" transform="translate(-123.077 -109.543)" fill="#fff"/>
        <g id="Grupo_145386" data-name="Grupo 145386" transform="translate(162.766 144.867)" opacity="0.74">
          <g id="Grupo_145385" data-name="Grupo 145385">
            <g id="Grupo_145384" data-name="Grupo 145384" clip-path="url(#clip-path-8)">
              <path id="Trazado_150780" data-name="Trazado 150780" d="M288.733,254.41h52.609a2.9,2.9,0,0,1,2.89,2.89v16.116a2.9,2.9,0,0,1-2.89,2.89H288.733a2.9,2.9,0,0,1-2.89-2.89V257.3a2.9,2.9,0,0,1,2.89-2.89" transform="translate(-285.843 -254.41)" fill="#9dadf9"/>
            </g>
          </g>
        </g>
        <path id="Trazado_150781" data-name="Trazado 150781" d="M353.941,274.295a2.5,2.5,0,1,1,2.5-2.5,2.5,2.5,0,0,1-2.5,2.5m0-4.434a1.932,1.932,0,1,0,1.933,1.933,1.935,1.935,0,0,0-1.933-1.933" transform="translate(-151.321 -115.95)" fill="#fff"/>
        <path id="Trazado_150782" data-name="Trazado 150782" d="M335.563,274.295a2.5,2.5,0,1,1,2.5-2.5,2.5,2.5,0,0,1-2.5,2.5m0-4.434a1.932,1.932,0,1,0,1.933,1.933,1.935,1.935,0,0,0-1.933-1.933" transform="translate(-143.408 -115.95)" fill="#fff"/>
        <path id="Trazado_150783" data-name="Trazado 150783" d="M318.432,274.295a2.5,2.5,0,1,1,2.5-2.5,2.5,2.5,0,0,1-2.5,2.5m0-4.434a1.932,1.932,0,1,0,1.933,1.933,1.934,1.934,0,0,0-1.933-1.933" transform="translate(-136.031 -115.95)" fill="#fff"/>
        <path id="Trazado_150784" data-name="Trazado 150784" d="M28.8,170.086h-.569a.285.285,0,0,1,0-.569H28.8a.285.285,0,1,1,0,.569" transform="translate(-12.035 -72.99)" fill="#fff"/>
        <path id="Trazado_150785" data-name="Trazado 150785" d="M181.465,265.111h-1.128a.285.285,0,0,1,0-.569h1.128a.285.285,0,0,1,0,.569m-12.4,0h-1.127a.285.285,0,0,1,0-.569h1.127a.285.285,0,1,1,0,.569m-12.4,0h-1.127a.285.285,0,0,1,0-.569h1.127a.285.285,0,0,1,0,.569m-12.4,0h-1.127a.285.285,0,0,1,0-.569h1.127a.285.285,0,0,1,0,.569m-12.4,0h-1.128a.285.285,0,0,1,0-.569h1.128a.285.285,0,0,1,0,.569m-12.4,0h-1.128a.285.285,0,0,1,0-.569h1.128a.285.285,0,0,1,0,.569m-12.4,0h-1.127a.285.285,0,0,1,0-.569h1.127a.285.285,0,0,1,0,.569m-12.4,0H93.509a.285.285,0,0,1,0-.569h1.127a.285.285,0,0,1,0,.569m-12.4,0h-.344q-.408,0-.809-.037a.285.285,0,0,1,.052-.567c.249.023.5.035.756.035h.344a.285.285,0,0,1,0,.569m107.979-5.752a.275.275,0,0,1-.09-.015.285.285,0,0,1-.181-.36,7.974,7.974,0,0,0,.274-1.053.285.285,0,1,1,.559.105,8.794,8.794,0,0,1-.293,1.128.287.287,0,0,1-.27.195M73.554,257.854a.285.285,0,0,1-.282-.246,8.888,8.888,0,0,1-.081-1.162.284.284,0,0,1,.284-.285h0a.284.284,0,0,1,.285.284,8.346,8.346,0,0,0,.076,1.087.284.284,0,0,1-.243.32.227.227,0,0,1-.039,0m-.119-12.4a.284.284,0,0,1-.283-.257,8.209,8.209,0,0,0-.179-1.073.285.285,0,1,1,.554-.132,8.78,8.78,0,0,1,.191,1.149.286.286,0,0,1-.256.311h-.028m-8.391-7.579H63.917a.285.285,0,1,1,0-.569h1.127a.285.285,0,1,1,0,.569m-12.4,0H51.512a.285.285,0,0,1,0-.569H52.64a.285.285,0,0,1,0,.569m-12.4,0H39.108a.285.285,0,0,1,0-.569h1.127a.285.285,0,1,1,0,.569m-12.4,0H26.7a.285.285,0,0,1,0-.569h1.127a.285.285,0,0,1,0,.569m-12.4,0H14.3a.285.285,0,0,1,0-.569h1.127a.285.285,0,1,1,0,.569m-11.247-3.53a.283.283,0,0,1-.232-.119,8.734,8.734,0,0,1-.612-.991.285.285,0,1,1,.5-.266,8.172,8.172,0,0,0,.572.926.285.285,0,0,1-.231.45M2.62,222.27a.284.284,0,0,1-.285-.285v-1.128a.285.285,0,1,1,.569,0v1.128a.285.285,0,0,1-.285.285m0-12.4a.284.284,0,0,1-.285-.285v-1.127a.285.285,0,0,1,.569,0v1.127a.285.285,0,0,1-.285.285m0-12.4a.284.284,0,0,1-.285-.285V196.05a.285.285,0,1,1,.569,0v1.128a.285.285,0,0,1-.285.285m0-12.4a.284.284,0,0,1-.285-.285v-1.127a.285.285,0,1,1,.569,0v1.127a.284.284,0,0,1-.285.285m2.733-11.629a.285.285,0,0,1-.192-.495,8.727,8.727,0,0,1,.909-.727.284.284,0,1,1,.325.467,8.2,8.2,0,0,0-.85.68.283.283,0,0,1-.192.075" transform="translate(-1.005 -74.126)" fill="#fff"/>
        <path id="Trazado_150786" data-name="Trazado 150786" d="M332.816,302.674a.285.285,0,0,1-.285-.285v-.569a.285.285,0,0,1,.569,0v.569a.285.285,0,0,1-.285.285" transform="translate(-143.179 -129.833)" fill="#fff"/>
        <path id="Trazado_150787" data-name="Trazado 150787" d="M230.581,303.394H214.872a3.76,3.76,0,0,1-3.76-3.76V215.418H235.6v82.96a5.016,5.016,0,0,1-5.016,5.016" transform="translate(-90.899 -92.754)" fill="#5263e2"/>
        <path id="Trazado_150788" data-name="Trazado 150788" d="M240.169,303.394H230.112V215.418h13.666v84.367a3.609,3.609,0,0,1-3.609,3.609" transform="translate(-99.08 -92.754)" fill="#758af2"/>
        <path id="Trazado_150789" data-name="Trazado 150789" d="M133.691,73.418H212A31.687,31.687,0,0,1,243.691,105.1v55.678a2.32,2.32,0,0,1-2.32,2.32h-137.5a.259.259,0,0,1-.259-.26V103.5a30.079,30.079,0,0,1,30.079-30.079" transform="translate(-44.613 -31.612)" fill="#a4a3ff"/>
        <g id="Grupo_145389" data-name="Grupo 145389" transform="translate(68.68 54.049)" opacity="0.07">
          <g id="Grupo_145388" data-name="Grupo 145388">
            <g id="Grupo_145387" data-name="Grupo 145387" clip-path="url(#clip-path-9)">
              <path id="Trazado_150790" data-name="Trazado 150790" d="M150.691,94.918h59.191A31.687,31.687,0,0,1,241.569,126.6V170.04a2.32,2.32,0,0,1-2.32,2.32H120.871a.259.259,0,0,1-.259-.26V125a30.079,30.079,0,0,1,30.079-30.079" transform="translate(-120.612 -94.918)" fill="#ecf1f7"/>
            </g>
          </g>
        </g>
        <g id="Grupo_145392" data-name="Grupo 145392" transform="translate(109.963 124.373)" opacity="0.65">
          <g id="Grupo_145391" data-name="Grupo 145391">
            <g id="Grupo_145390" data-name="Grupo 145390" clip-path="url(#clip-path-10)">
              <path id="Trazado_150791" data-name="Trazado 150791" d="M279.615,225.821h-86.5v-7.4h89.115v4.79a2.612,2.612,0,0,1-2.613,2.613" transform="translate(-193.112 -218.418)" fill="#758af2"/>
            </g>
          </g>
        </g>
        <g id="Grupo_145395" data-name="Grupo 145395" transform="translate(109.963 124.373)" opacity="0.65">
          <g id="Grupo_145394" data-name="Grupo 145394">
            <g id="Grupo_145393" data-name="Grupo 145393" clip-path="url(#clip-path-10)">
              <path id="Trazado_150792" data-name="Trazado 150792" d="M279.615,225.821h-86.5v-7.4h89.115v4.79a2.612,2.612,0,0,1-2.613,2.613" transform="translate(-193.112 -218.418)" fill="#758af2"/>
            </g>
          </g>
        </g>
        <path id="Trazado_150793" data-name="Trazado 150793" d="M316.368,225.7H276.994v-6.9h41.351v4.924a1.976,1.976,0,0,1-1.976,1.976" transform="translate(-119.267 -94.21)" fill="#5263e2"/>
        <g id="Grupo_145398" data-name="Grupo 145398" transform="translate(114.234 73.694)" opacity="0.07">
          <g id="Grupo_145397" data-name="Grupo 145397">
            <g id="Grupo_145396" data-name="Grupo 145396" clip-path="url(#clip-path-12)">
              <rect id="Rectángulo_38797" data-name="Rectángulo 38797" width="84.844" height="50.679" fill="#373449"/>
            </g>
          </g>
        </g>
        <path id="Trazado_150794" data-name="Trazado 150794" d="M155.43,162.4h-48.4a3.416,3.416,0,0,1-3.417-3.417v-54.95a27.617,27.617,0,0,1,55.234,0v54.95a3.416,3.416,0,0,1-3.417,3.417" transform="translate(-44.613 -32.904)" fill="#758af2"/>
        <path id="Trazado_150795" data-name="Trazado 150795" d="M157.013,165.415h-48.4v-57.8a24.2,24.2,0,0,1,48.4,0Z" transform="translate(-46.766 -35.918)" fill="#373449"/>
      </g>
    </g>
    <g id="Grupo_145405" data-name="Grupo 145405" transform="translate(61.846 47.5)">
      <g id="Grupo_145404" data-name="Grupo 145404" clip-path="url(#clip-path-13)">
        <path id="Trazado_150796" data-name="Trazado 150796" d="M164.72,191.718h-40.1A2.624,2.624,0,0,1,122,189.094v-24.12a3.276,3.276,0,0,1,3.277-3.276h38.1a3.971,3.971,0,0,1,3.971,3.971v23.426a2.624,2.624,0,0,1-2.624,2.624" transform="translate(-114.377 -117.123)" fill="#9dadf9"/>
        <g id="Grupo_145403" data-name="Grupo 145403" transform="translate(7.623 45.824)" opacity="0.56">
          <g id="Grupo_145402" data-name="Grupo 145402">
            <g id="Grupo_145401" data-name="Grupo 145401" clip-path="url(#clip-path-14)">
              <path id="Trazado_150797" data-name="Trazado 150797" d="M165.284,192.663H124.06A2.06,2.06,0,0,1,122,190.6V165.526a1.28,1.28,0,0,1,.316-.842.669.669,0,0,1,.928-.075L139,177.653l3.26,2.7a3.73,3.73,0,0,0,4.792-.03l19.351-16.427a2.566,2.566,0,0,1,.938,2.308v24.4a2.06,2.06,0,0,1-2.06,2.06" transform="translate(-122 -163.893)" fill="#5263e2"/>
            </g>
          </g>
        </g>
        <path id="Trazado_150798" data-name="Trazado 150798" d="M123.217,202.571a.569.569,0,0,1-.379-.995l17-15.124a.569.569,0,1,1,.757.851l-17,15.125a.565.565,0,0,1-.378.144" transform="translate(-114.655 -127.72)" fill="#9dadf9"/>
        <path id="Trazado_150799" data-name="Trazado 150799" d="M185.964,202.936a.566.566,0,0,1-.378-.143L169.067,188.15a.57.57,0,1,1,.756-.852l16.518,14.643a.569.569,0,0,1-.378,1" transform="translate(-134.56 -128.084)" fill="#9dadf9"/>
        <path id="Trazado_150800" data-name="Trazado 150800" d="M160.1,221.821H115.112v-2.78a4.622,4.622,0,0,1,4.623-4.623H160.1Z" transform="translate(-111.411 -139.823)" fill="#ff8578"/>
      </g>
    </g>
    <g id="Grupo_145410" data-name="Grupo 145410">
      <g id="Grupo_145409" data-name="Grupo 145409" clip-path="url(#clip-path)">
        <path id="Trazado_150802" data-name="Trazado 150802" d="M125.5,237.668H44.155a5.543,5.543,0,0,1-5.543-5.543v-4.706H132v3.751a6.5,6.5,0,0,1-6.5,6.5" transform="translate(-16.625 -97.92)" fill="#a4a3ff"/>
        <path id="Trazado_150803" data-name="Trazado 150803" d="M167.7,237.668h-25.54a5.543,5.543,0,0,1-5.543-5.543v-4.706h37.582v3.751a6.5,6.5,0,0,1-6.5,6.5" transform="translate(-58.822 -97.92)" fill="#758af2"/>
        <path id="Trazado_150804" data-name="Trazado 150804" d="M241.556,126.39a7.972,7.972,0,1,1-7.972-7.972,7.972,7.972,0,0,1,7.972,7.972" transform="translate(-97.143 -50.988)" fill="#5263e2"/>
        <path id="Trazado_150805" data-name="Trazado 150805" d="M237.674,94.722h0a2.563,2.563,0,0,1-2.562-2.562V41.48a2.562,2.562,0,1,1,5.125,0V92.159a2.563,2.563,0,0,1-2.562,2.562" transform="translate(-101.233 -16.757)" fill="#5263e2"/>
        <path id="Trazado_150806" data-name="Trazado 150806" d="M243.278,127.251a6.833,6.833,0,1,1-6.833-6.833,6.833,6.833,0,0,1,6.833,6.833" transform="translate(-98.865 -51.849)" fill="#758af2"/>
        <path id="Trazado_150807" data-name="Trazado 150807" d="M245.612,55.749h0V43.418h23.363Z" transform="translate(-105.754 -18.695)" fill="#9dadf9"/>
        <path id="Trazado_150808" data-name="Trazado 150808" d="M245.612,55.749h0V43.418h23.363Z" transform="translate(-105.754 -18.695)" fill="#9dadf9"/>
        <path id="Trazado_150809" data-name="Trazado 150809" d="M239.674,94.722h0a2.563,2.563,0,0,1-2.562-2.562V41.48a2.562,2.562,0,0,1,5.125,0V92.159a2.563,2.563,0,0,1-2.562,2.562" transform="translate(-102.094 -16.757)" fill="#758af2"/>
        <path id="Trazado_150810" data-name="Trazado 150810" d="M238.49,133.175a4.128,4.128,0,1,1,4.128-4.128,4.133,4.133,0,0,1-4.128,4.128m0-7.687a3.559,3.559,0,1,0,3.559,3.559,3.563,3.563,0,0,0-3.559-3.559" transform="translate(-100.91 -53.787)" fill="#5263e2"/>
        <path id="Trazado_150811" data-name="Trazado 150811" d="M49.8,108.4H2.624A2.624,2.624,0,0,1,0,105.778v-28.8A3.277,3.277,0,0,1,3.277,73.7H48.45a3.971,3.971,0,0,1,3.971,3.971v28.111A2.624,2.624,0,0,1,49.8,108.4" transform="translate(0 -31.732)" fill="#9dadf9"/>
        <g id="Grupo_145408" data-name="Grupo 145408" transform="translate(0 43.411)" opacity="0.59">
          <g id="Grupo_145407" data-name="Grupo 145407">
            <g id="Grupo_145406" data-name="Grupo 145406" clip-path="url(#clip-path-16)">
              <path id="Trazado_150812" data-name="Trazado 150812" d="M50.038,109.5H2.381A2.382,2.382,0,0,1,0,107.114V78.124a1.477,1.477,0,0,1,.366-.973.771.771,0,0,1,1.073-.087L19.657,92.143l3.768,3.118a4.312,4.312,0,0,0,5.539-.035l22.37-18.99A2.968,2.968,0,0,1,52.42,78.9v28.209a2.382,2.382,0,0,1-2.382,2.382" transform="translate(0 -76.236)" fill="#5263e2"/>
            </g>
          </g>
        </g>
        <path id="Trazado_150813" data-name="Trazado 150813" d="M2.4,120.457a.569.569,0,0,1-.379-.995l19.124-17.013a.57.57,0,0,1,.757.851L2.782,120.313a.568.568,0,0,1-.378.144" transform="translate(-0.79 -44.05)" fill="#9dadf9"/>
        <path id="Trazado_150814" data-name="Trazado 150814" d="M74.012,121.028a.568.568,0,0,1-.374-.14l-19.1-16.607a.569.569,0,1,1,.748-.859l19.1,16.607a.569.569,0,0,1-.374,1" transform="translate(-23.4 -44.471)" fill="#9dadf9"/>
        <path id="Trazado_150815" data-name="Trazado 150815" d="M93.8,67.054a9.136,9.136,0,1,1-9.136-9.136A9.136,9.136,0,0,1,93.8,67.054" transform="translate(-32.519 -24.938)" fill="#ff8578"/>
        <path id="Trazado_150816" data-name="Trazado 150816" d="M86.491,74.765h-1V68.719l-1.016.624V68.307l1.016-.678h1Z" transform="translate(-36.372 -29.119)" fill="#fff"/>
        <path id="Trazado_150817" data-name="Trazado 150817" d="M91.379,74.237a2.057,2.057,0,0,1-.518-1.492V69.5a2.049,2.049,0,0,1,.52-1.495,2.434,2.434,0,0,1,3.036,0,2.054,2.054,0,0,1,.518,1.5v3.244a2.048,2.048,0,0,1-.52,1.494,2.426,2.426,0,0,1-3.036,0m2.3-.695a1.143,1.143,0,0,0,.253-.8V69.5a1.151,1.151,0,0,0-.251-.8,1.25,1.25,0,0,0-1.57,0,1.151,1.151,0,0,0-.251.8v3.244a1.143,1.143,0,0,0,.253.8,1.243,1.243,0,0,0,1.565,0" transform="translate(-39.122 -29.053)" fill="#fff"/>
        <path id="Trazado_150818" data-name="Trazado 150818" d="M101.249,157.2H40.211A3.211,3.211,0,0,1,37,153.987V116.316a3.62,3.62,0,0,1,3.62-3.62H99.9a4.314,4.314,0,0,1,4.314,4.314v37.221a2.967,2.967,0,0,1-2.967,2.967" transform="translate(-15.931 -48.524)" fill="#ffb8b3"/>
        <path id="Trazado_150819" data-name="Trazado 150819" d="M101.163,158.6H40.055A3.054,3.054,0,0,1,37,155.547V118.374a1.894,1.894,0,0,1,.469-1.248.989.989,0,0,1,1.375-.11L62.207,136.35l4.832,4a5.528,5.528,0,0,0,7.1-.044l28.684-24.351a3.8,3.8,0,0,1,1.391,3.422v36.172a3.054,3.054,0,0,1-3.053,3.054" transform="translate(-15.932 -49.926)" fill="#ff8578"/>
        <path id="Trazado_150820" data-name="Trazado 150820" d="M39.677,172.843a.569.569,0,0,1-.379-.995L64.12,149.807a.569.569,0,1,1,.756.851L40.055,172.7a.569.569,0,0,1-.378.143" transform="translate(-16.839 -64.441)" fill="#ffb8b3"/>
        <path id="Trazado_150821" data-name="Trazado 150821" d="M132.1,173.433a.566.566,0,0,1-.374-.14l-24.566-21.378a.569.569,0,0,1,.747-.859l24.567,21.379a.569.569,0,0,1-.374,1" transform="translate(-46.058 -64.981)" fill="#ffb8b3"/>
        <path id="Trazado_150822" data-name="Trazado 150822" d="M362.123,93.264A12.522,12.522,0,1,1,349.6,80.742a12.521,12.521,0,0,1,12.522,12.522" transform="translate(-145.138 -34.765)" fill="#5263e2"/>
        <path id="Trazado_150823" data-name="Trazado 150823" d="M334.021,56.287a20.428,20.428,0,1,1-20.428-20.428,20.427,20.427,0,0,1,20.428,20.428" transform="translate(-126.229 -15.44)" fill="#ff8578"/>
        <path id="Trazado_150824" data-name="Trazado 150824" d="M325.609,92.284a4.528,4.528,0,0,1-4.5-4l-.037-.318h9.072l-.036.318a4.527,4.527,0,0,1-4.5,4m-3.884-3.753a3.961,3.961,0,0,0,7.768,0Z" transform="translate(-138.246 -37.874)" fill="#fff"/>
        <path id="Trazado_150825" data-name="Trazado 150825" d="M331.084,68.765H314.316V61.1a8.042,8.042,0,0,1,8.032-8.033h.7a8.042,8.042,0,0,1,8.032,8.033Zm-16.2-.569h15.629V61.1a7.472,7.472,0,0,0-7.463-7.463h-.7a7.472,7.472,0,0,0-7.463,7.463Z" transform="translate(-135.337 -22.849)" fill="#fff"/>
        <path id="Trazado_150826" data-name="Trazado 150826" d="M329.086,84.945H312.879a2.555,2.555,0,0,1-2.552-2.552v-.206a2.555,2.555,0,0,1,2.552-2.552h16.207a2.555,2.555,0,0,1,2.553,2.552v.206a2.555,2.555,0,0,1-2.553,2.552m-16.2-4.741a1.986,1.986,0,0,0-1.987,1.983v.206a1.985,1.985,0,0,0,1.983,1.983h16.207a1.985,1.985,0,0,0,1.983-1.983v-.206a1.985,1.985,0,0,0-1.983-1.983Z" transform="translate(-133.619 -34.289)" fill="#fff"/>
        <path id="Trazado_150827" data-name="Trazado 150827" d="M320.982,75.941H314.6a.285.285,0,0,1,0-.569h6.382a.285.285,0,0,1,0,.569" transform="translate(-135.337 -32.453)" fill="#fff"/>
        <path id="Trazado_150828" data-name="Trazado 150828" d="M327.487,75.94a.309.309,0,0,1-.2-.08.306.306,0,0,1-.057-.091.264.264,0,0,1-.023-.108.255.255,0,0,1,.023-.114.305.305,0,0,1,.057-.091.564.564,0,0,1,.1-.063.293.293,0,0,1,.307.063.238.238,0,0,1,.063.091.255.255,0,0,1,.023.114.264.264,0,0,1-.023.108.238.238,0,0,1-.063.091.367.367,0,0,1-.091.063.357.357,0,0,1-.108.017" transform="translate(-140.885 -32.454)" fill="#fff"/>
        <path id="Trazado_150829" data-name="Trazado 150829" d="M328.985,46.756a.285.285,0,0,1-.285-.285V42.29a.285.285,0,1,1,.569,0v4.181a.285.285,0,0,1-.285.285" transform="translate(-141.53 -18.086)" fill="#fff"/>
        <path id="Trazado_150830" data-name="Trazado 150830" d="M338.752,50.733a.285.285,0,0,1-.236-.445l1.174-1.729a.285.285,0,0,1,.472.32l-1.174,1.729a.286.286,0,0,1-.236.125" transform="translate(-145.735 -20.854)" fill="#fff"/>
        <path id="Trazado_150831" data-name="Trazado 150831" d="M318.01,50.733a.286.286,0,0,1-.236-.125L316.6,48.879a.285.285,0,0,1,.471-.32l1.175,1.729a.285.285,0,0,1-.236.445" transform="translate(-136.299 -20.854)" fill="#fff"/>
      </g>
    </g>
  </g>
</svg>
