<svg xmlns="http://www.w3.org/2000/svg" xmlns:xlink="http://www.w3.org/1999/xlink" width="509.271" height="526.901" viewBox="0 0 509.271 526.901">
  <defs>
    <filter id="Trazado_150876" x="257.313" y="45.586" width="216.497" height="216.497" filterUnits="userSpaceOnUse">
      <feOffset dx="8" dy="8" input="SourceAlpha"/>
      <feGaussianBlur stdDeviation="12.5" result="blur"/>
      <feFlood flood-opacity="0.071"/>
      <feComposite operator="in" in2="blur"/>
      <feComposite in="SourceGraphic"/>
    </filter>
    <filter id="Trazado_150877" x="264.195" y="292.447" width="216.497" height="216.497" filterUnits="userSpaceOnUse">
      <feOffset dx="8" dy="8" input="SourceAlpha"/>
      <feGaussianBlur stdDeviation="12.5" result="blur-2"/>
      <feFlood flood-opacity="0.071"/>
      <feComposite operator="in" in2="blur-2"/>
      <feComposite in="SourceGraphic"/>
    </filter>
    <filter id="Trazado_150871" x="13.128" y="45.586" width="216.497" height="216.497" filterUnits="userSpaceOnUse">
      <feOffset dx="8" dy="8" input="SourceAlpha"/>
      <feGaussianBlur stdDeviation="12.5" result="blur-3"/>
      <feFlood flood-opacity="0.071"/>
      <feComposite operator="in" in2="blur-3"/>
      <feComposite in="SourceGraphic"/>
    </filter>
    <filter id="Trazado_150878" x="18.094" y="293.102" width="216.497" height="216.497" filterUnits="userSpaceOnUse">
      <feOffset dx="8" dy="8" input="SourceAlpha"/>
      <feGaussianBlur stdDeviation="12.5" result="blur-4"/>
      <feFlood flood-opacity="0.071"/>
      <feComposite operator="in" in2="blur-4"/>
      <feComposite in="SourceGraphic"/>
    </filter>
  </defs>
  <g id="Grupo_145435" data-name="Grupo 145435" transform="translate(11532.063 6493.664)">
    <path id="Trazado_150870" data-name="Trazado 150870" d="M210.792,28.321A200.91,200.91,0,0,0,9.882,229.231h200.91Z" transform="translate(-11509.656 -6446.825)" fill="#a4a3ff"/>
    <path id="Trazado_150873" data-name="Trazado 150873" d="M0,104.026a233.2,233.2,0,0,0,233.2,233.2v-233.2Z" transform="translate(-11532.063 -6321.621)" fill="#43a99b"/>
    <path id="Trazado_150874" data-name="Trazado 150874" d="M85.587,354.857A250.83,250.83,0,0,0,336.418,104.026H85.587Z" transform="translate(-11384.451 -6321.621)" fill="#ff8578"/>
    <path id="Trazado_150875" data-name="Trazado 150875" d="M85.587,0V276.072H361.659A276.074,276.074,0,0,0,85.587,0" transform="translate(-11384.451 -6493.664)" fill="#ffde96"/>
    <path id="Trazado_150872" data-name="Trazado 150872" d="M69.866,88.305a132.154,132.154,0,1,1,0,186.894,132.155,132.155,0,0,1,0-186.894" transform="translate(-11462.178 -6399.347)" fill="#fff"/>
    <g transform="matrix(1, 0, 0, 1, -11532.06, -6493.66)" filter="url(#Trazado_150876)">
      <path id="Trazado_150876-2" data-name="Trazado 150876" d="M105.79,57.19v95.852a16.75,16.75,0,0,0,16.748,16.748H218.39a28.978,28.978,0,0,0,27.953-36.355,145.326,145.326,0,0,0-104.2-104.2A28.978,28.978,0,0,0,105.79,57.19" transform="translate(181.02 46.79)" fill="#ffebc1"/>
    </g>
    <g transform="matrix(1, 0, 0, 1, -11532.06, -6493.66)" filter="url(#Trazado_150877)">
      <path id="Trazado_150877-2" data-name="Trazado 150877" d="M220.983,121.313H125.131a16.75,16.75,0,0,0-16.748,16.748v95.852a28.978,28.978,0,0,0,36.355,27.953,145.326,145.326,0,0,0,104.2-104.2,28.978,28.978,0,0,0-27.953-36.355" transform="translate(185.31 200.63)" fill="#ffa298"/>
    </g>
    <g transform="matrix(1, 0, 0, 1, -11532.06, -6493.66)" filter="url(#Trazado_150871)">
      <path id="Trazado_150871-2" data-name="Trazado 150871" d="M155.275,57.19v95.852a16.75,16.75,0,0,1-16.748,16.748H42.675a28.978,28.978,0,0,1-27.953-36.355,145.326,145.326,0,0,1,104.2-104.2A28.978,28.978,0,0,1,155.275,57.19" transform="translate(28.85 46.79)" fill="#c8c7ff"/>
    </g>
    <g transform="matrix(1, 0, 0, 1, -11532.06, -6493.66)" filter="url(#Trazado_150878)">
      <path id="Trazado_150878-2" data-name="Trazado 150878" d="M44.546,121.56H140.4a16.75,16.75,0,0,1,16.748,16.748V234.16a28.978,28.978,0,0,1-36.355,27.953,145.326,145.326,0,0,1-104.2-104.2A28.978,28.978,0,0,1,44.546,121.56" transform="translate(31.94 201.04)" fill="#68cec0"/>
    </g>
    <path id="Trazado_150879" data-name="Trazado 150879" d="M12.585,12.667a4.673,4.673,0,0,1-.721,2.36,4.35,4.35,0,0,1-1.85,1.586,6.3,6.3,0,0,1-2.72.563,5.025,5.025,0,0,1-3.973-1.644,6.786,6.786,0,0,1-1.45-4.641v-.633a7.746,7.746,0,0,1,.655-3.292,4.961,4.961,0,0,1,1.885-2.18,5.26,5.26,0,0,1,2.848-.769A5.516,5.516,0,0,1,11,5.245a4.844,4.844,0,0,1,1.608,3.379H9.535a2.292,2.292,0,0,0-.589-1.679,2.422,2.422,0,0,0-1.687-.51A1.843,1.843,0,0,0,5.571,7.3a5.536,5.536,0,0,0-.562,2.751v.905a6.125,6.125,0,0,0,.514,2.927,1.882,1.882,0,0,0,1.771.879,2.369,2.369,0,0,0,1.626-.5,2.126,2.126,0,0,0,.6-1.591Zm.949-.51a5.613,5.613,0,0,1,.554-2.536,3.96,3.96,0,0,1,1.591-1.709,4.791,4.791,0,0,1,2.435-.6,4.373,4.373,0,0,1,3.366,1.323,5.076,5.076,0,0,1,1.23,3.6v.105a4.925,4.925,0,0,1-1.235,3.529,4.384,4.384,0,0,1-3.344,1.305,4.434,4.434,0,0,1-3.261-1.217,4.761,4.761,0,0,1-1.327-3.3Zm2.962.185a3.538,3.538,0,0,0,.413,1.934,1.376,1.376,0,0,0,1.222.615q1.582,0,1.617-2.435v-.3q0-2.558-1.635-2.558-1.485,0-1.608,2.206ZM26.735,7.49l.1,1.116a3.225,3.225,0,0,1,2.716-1.292,2.713,2.713,0,0,1,2.219.888,4.226,4.226,0,0,1,.76,2.672V17H29.557V11a1.6,1.6,0,0,0-.29-1.059A1.342,1.342,0,0,0,28.212,9.6a1.413,1.413,0,0,0-1.292.686V17H23.958V7.49ZM37.616,5.126V7.49h1.564V9.547H37.616V13.9a1.111,1.111,0,0,0,.193.747,1.037,1.037,0,0,0,.765.211,4.345,4.345,0,0,0,.738-.053v2.118a5.466,5.466,0,0,1-1.67.255,3.1,3.1,0,0,1-2.259-.721,2.954,2.954,0,0,1-.729-2.188V9.547H33.441V7.49h1.213V5.126Zm7.33,12.05A4.889,4.889,0,0,1,41.4,15.871a4.507,4.507,0,0,1-1.354-3.4v-.246a5.84,5.84,0,0,1,.541-2.575,3.955,3.955,0,0,1,1.578-1.727,4.763,4.763,0,0,1,2.461-.611,4.117,4.117,0,0,1,3.164,1.244,4.887,4.887,0,0,1,1.16,3.467v1.151H43.065a2.135,2.135,0,0,0,.694,1.257,2.066,2.066,0,0,0,1.389.457,2.662,2.662,0,0,0,2.2-.984l1.354,1.6a3.784,3.784,0,0,1-1.569,1.217A5.3,5.3,0,0,1,44.946,17.176ZM44.612,9.6q-1.3,0-1.547,1.723h2.988v-.229a1.467,1.467,0,0,0-.36-1.1A1.434,1.434,0,0,0,44.612,9.6Zm9.387.51,1.38-2.619h3.076l-2.5,4.632L58.578,17H55.484L53.99,14.188,52.522,17H49.411l2.637-4.878-2.5-4.632h3.111Zm8.859-4.983V7.49h1.564V9.547H62.858V13.9a1.111,1.111,0,0,0,.193.747,1.037,1.037,0,0,0,.765.211,4.345,4.345,0,0,0,.738-.053v2.118a5.466,5.466,0,0,1-1.67.255,3.1,3.1,0,0,1-2.259-.721,2.954,2.954,0,0,1-.729-2.188V9.547H58.684V7.49H59.9V5.126Zm2.092,7.031A5.613,5.613,0,0,1,65.5,9.622a3.96,3.96,0,0,1,1.591-1.709,4.791,4.791,0,0,1,2.435-.6A4.373,4.373,0,0,1,72.9,8.637a5.076,5.076,0,0,1,1.23,3.6v.105a4.925,4.925,0,0,1-1.235,3.529,4.384,4.384,0,0,1-3.344,1.305,4.434,4.434,0,0,1-3.261-1.217,4.761,4.761,0,0,1-1.327-3.3Zm2.962.185a3.538,3.538,0,0,0,.413,1.934,1.376,1.376,0,0,0,1.222.615q1.582,0,1.617-2.435v-.3q0-2.558-1.635-2.558-1.485,0-1.608,2.206Zm16.98,1.986a.684.684,0,0,0-.4-.606,6.016,6.016,0,0,0-1.5-.475,6.853,6.853,0,0,1-1.828-.646,3.062,3.062,0,0,1-1.1-.971,2.319,2.319,0,0,1-.378-1.31,2.628,2.628,0,0,1,1.081-2.158,4.453,4.453,0,0,1,2.83-.848,4.934,4.934,0,0,1,3.023.853,2.666,2.666,0,0,1,1.143,2.241H84.8q0-1.143-1.2-1.143a1.194,1.194,0,0,0-.782.259.8.8,0,0,0-.316.646.737.737,0,0,0,.387.642,3.654,3.654,0,0,0,1.235.4,10.671,10.671,0,0,1,1.49.378,2.706,2.706,0,0,1,2.145,2.646,2.491,2.491,0,0,1-1.156,2.118,5.068,5.068,0,0,1-2.993.817,5.172,5.172,0,0,1-2.18-.439,3.645,3.645,0,0,1-1.494-1.2,2.707,2.707,0,0,1-.536-1.591h2.769a1.145,1.145,0,0,0,.439.962,1.808,1.808,0,0,0,1.081.3,1.422,1.422,0,0,0,.91-.246A.787.787,0,0,0,84.893,14.328Zm8.842,2.848a4.889,4.889,0,0,1-3.542-1.305,4.507,4.507,0,0,1-1.354-3.4v-.246a5.84,5.84,0,0,1,.541-2.575,3.955,3.955,0,0,1,1.578-1.727,4.763,4.763,0,0,1,2.461-.611,4.117,4.117,0,0,1,3.164,1.244,4.887,4.887,0,0,1,1.16,3.467v1.151H91.854a2.135,2.135,0,0,0,.694,1.257,2.066,2.066,0,0,0,1.389.457,2.662,2.662,0,0,0,2.2-.984l1.354,1.6a3.784,3.784,0,0,1-1.569,1.217A5.3,5.3,0,0,1,93.734,17.176ZM93.4,9.6q-1.3,0-1.547,1.723h2.988v-.229a1.467,1.467,0,0,0-.36-1.1A1.434,1.434,0,0,0,93.4,9.6Zm11.285.571-.976-.07a1.752,1.752,0,0,0-1.793.879V17H98.955V7.49h2.777l.1,1.222a2.294,2.294,0,0,1,2.083-1.4,2.888,2.888,0,0,1,.826.105Zm5.019,3.3,1.5-5.985h3.12l-3.1,9.51H108.2l-3.1-9.51h3.129ZM118.335,17h-2.971V7.49h2.971ZM115.188,5.029a1.334,1.334,0,0,1,.457-1.043,1.934,1.934,0,0,1,2.373,0,1.334,1.334,0,0,1,.457,1.043,1.334,1.334,0,0,1-.457,1.043,1.934,1.934,0,0,1-2.373,0A1.334,1.334,0,0,1,115.188,5.029Zm8.991,9.861a1.317,1.317,0,0,0,.967-.338,1.241,1.241,0,0,0,.334-.945h2.777a3.288,3.288,0,0,1-1.121,2.566,4.168,4.168,0,0,1-2.887,1,4.22,4.22,0,0,1-3.27-1.3,5.125,5.125,0,0,1-1.2-3.6v-.123a5.792,5.792,0,0,1,.532-2.544,3.872,3.872,0,0,1,1.534-1.7,4.573,4.573,0,0,1,2.373-.593,4.116,4.116,0,0,1,2.944,1.028,3.647,3.647,0,0,1,1.09,2.786H125.48A1.626,1.626,0,0,0,125.12,10a1.244,1.244,0,0,0-.967-.4q-1.151,0-1.345,1.468a10.357,10.357,0,0,0-.062,1.283,4.068,4.068,0,0,0,.343,1.986A1.187,1.187,0,0,0,124.18,14.891ZM132.635,17h-2.971V7.49h2.971ZM129.488,5.029a1.334,1.334,0,0,1,.457-1.043,1.934,1.934,0,0,1,2.373,0,1.334,1.334,0,0,1,.457,1.043,1.334,1.334,0,0,1-.457,1.043,1.934,1.934,0,0,1-2.373,0A1.334,1.334,0,0,1,129.488,5.029Zm4.6,7.128a5.613,5.613,0,0,1,.554-2.536,3.96,3.96,0,0,1,1.591-1.709,4.791,4.791,0,0,1,2.435-.6,4.373,4.373,0,0,1,3.366,1.323,5.076,5.076,0,0,1,1.23,3.6v.105a4.925,4.925,0,0,1-1.235,3.529,4.384,4.384,0,0,1-3.344,1.305,4.434,4.434,0,0,1-3.261-1.217,4.761,4.761,0,0,1-1.327-3.3Zm2.962.185a3.538,3.538,0,0,0,.413,1.934,1.376,1.376,0,0,0,1.222.615q1.582,0,1.617-2.435v-.3q0-2.558-1.635-2.558-1.485,0-1.608,2.206ZM41.606,41a3.344,3.344,0,0,1-.281-.853,2.754,2.754,0,0,1-2.285,1.028,3.374,3.374,0,0,1-2.285-.813,2.588,2.588,0,0,1-.94-2.043,2.66,2.66,0,0,1,1.143-2.338,5.821,5.821,0,0,1,3.322-.791h.914v-.5q0-1.316-1.134-1.316A.927.927,0,0,0,39,34.413H36.043a2.655,2.655,0,0,1,1.173-2.239,4.931,4.931,0,0,1,2.993-.86,4.323,4.323,0,0,1,2.874.888,3.086,3.086,0,0,1,1.081,2.435v4.21a4.311,4.311,0,0,0,.4,2V41Zm-1.854-1.934a1.652,1.652,0,0,0,.918-.237,1.487,1.487,0,0,0,.523-.536V36.772h-.861q-1.547,0-1.547,1.389a.848.848,0,0,0,.272.655A.986.986,0,0,0,39.752,39.066ZM48.928,41H45.957V27.5h2.971Zm10.327-2.109a1.317,1.317,0,0,0,.967-.338,1.241,1.241,0,0,0,.334-.945h2.777a3.288,3.288,0,0,1-1.121,2.566,4.168,4.168,0,0,1-2.887,1,4.22,4.22,0,0,1-3.27-1.3,5.125,5.125,0,0,1-1.2-3.6v-.123a5.792,5.792,0,0,1,.532-2.544,3.872,3.872,0,0,1,1.534-1.7,4.573,4.573,0,0,1,2.373-.593,4.116,4.116,0,0,1,2.944,1.028,3.647,3.647,0,0,1,1.09,2.786H60.556A1.626,1.626,0,0,0,60.2,34a1.244,1.244,0,0,0-.967-.4q-1.151,0-1.345,1.468a10.357,10.357,0,0,0-.062,1.283,4.068,4.068,0,0,0,.343,1.986A1.187,1.187,0,0,0,59.255,38.891ZM67.71,41H64.739V27.5H67.71Zm4.948,0H69.688V31.49h2.971ZM69.512,29.029a1.334,1.334,0,0,1,.457-1.043,1.934,1.934,0,0,1,2.373,0,1.42,1.42,0,0,1,0,2.087,1.934,1.934,0,0,1-2.373,0A1.334,1.334,0,0,1,69.512,29.029Zm9.571,12.146a4.889,4.889,0,0,1-3.542-1.305,4.507,4.507,0,0,1-1.354-3.4v-.246a5.84,5.84,0,0,1,.541-2.575,3.955,3.955,0,0,1,1.578-1.727,4.763,4.763,0,0,1,2.461-.611,4.117,4.117,0,0,1,3.164,1.244,4.887,4.887,0,0,1,1.16,3.467v1.151H77.2a2.135,2.135,0,0,0,.694,1.257,2.066,2.066,0,0,0,1.389.457,2.662,2.662,0,0,0,2.2-.984l1.354,1.6a3.784,3.784,0,0,1-1.569,1.217A5.3,5.3,0,0,1,79.083,41.176ZM78.749,33.6q-1.3,0-1.547,1.723H80.19v-.229a1.467,1.467,0,0,0-.36-1.1A1.434,1.434,0,0,0,78.749,33.6ZM87,31.49l.1,1.116a3.225,3.225,0,0,1,2.716-1.292,2.713,2.713,0,0,1,2.219.888,4.226,4.226,0,0,1,.76,2.672V41H89.823V35a1.6,1.6,0,0,0-.29-1.059,1.342,1.342,0,0,0-1.055-.338,1.413,1.413,0,0,0-1.292.686V41H84.225V31.49Zm10.881-2.364V31.49h1.564v2.057H97.883V37.9a1.111,1.111,0,0,0,.193.747,1.037,1.037,0,0,0,.765.211,4.345,4.345,0,0,0,.738-.053v2.118a5.466,5.466,0,0,1-1.67.255,3.1,3.1,0,0,1-2.259-.721,2.954,2.954,0,0,1-.729-2.188v-4.72H93.708V31.49h1.213V29.126Zm7.33,12.05a4.889,4.889,0,0,1-3.542-1.305,4.507,4.507,0,0,1-1.354-3.4v-.246a5.84,5.84,0,0,1,.541-2.575,3.955,3.955,0,0,1,1.578-1.727,4.763,4.763,0,0,1,2.461-.611,4.117,4.117,0,0,1,3.164,1.244,4.887,4.887,0,0,1,1.16,3.467v1.151h-5.889a2.135,2.135,0,0,0,.694,1.257,2.066,2.066,0,0,0,1.389.457,2.662,2.662,0,0,0,2.2-.984l1.354,1.6a3.784,3.784,0,0,1-1.569,1.217A5.3,5.3,0,0,1,105.213,41.176Zm-.334-7.576q-1.3,0-1.547,1.723h2.988v-.229a1.467,1.467,0,0,0-.36-1.1A1.434,1.434,0,0,0,104.879,33.6Z" transform="translate(-11366 -6211.664)" fill="#12263f"/>
    <path id="Trazado_150880" data-name="Trazado 150880" d="M11.816,14.608A7.468,7.468,0,0,1,10.393,19.5a4.919,4.919,0,0,1-4.012,1.719,4.945,4.945,0,0,1-4.039-1.729A7.457,7.457,0,0,1,.913,14.608V11.751A7.468,7.468,0,0,1,2.336,6.863,4.931,4.931,0,0,1,6.359,5.145a4.933,4.933,0,0,1,4.028,1.729,7.475,7.475,0,0,1,1.429,4.888ZM8.2,11.289a5.578,5.578,0,0,0-.44-2.519,1.472,1.472,0,0,0-1.4-.833A1.437,1.437,0,0,0,5,8.711a5.255,5.255,0,0,0-.457,2.342v4a5.62,5.62,0,0,0,.44,2.562,1.478,1.478,0,0,0,1.4.811,1.458,1.458,0,0,0,1.364-.79A5.366,5.366,0,0,0,8.2,15.156ZM21.721,21H18.09V9.441l-3.566,1.042V7.733l6.864-2.374h.333Z" transform="translate(-11233 -6374.664)" fill="#12263f"/>
    <path id="Trazado_150881" data-name="Trazado 150881" d="M11.816,14.608A7.468,7.468,0,0,1,10.393,19.5a4.919,4.919,0,0,1-4.012,1.719,4.945,4.945,0,0,1-4.039-1.729A7.457,7.457,0,0,1,.913,14.608V11.751A7.468,7.468,0,0,1,2.336,6.863,4.931,4.931,0,0,1,6.359,5.145a4.933,4.933,0,0,1,4.028,1.729,7.475,7.475,0,0,1,1.429,4.888ZM8.2,11.289a5.578,5.578,0,0,0-.44-2.519,1.472,1.472,0,0,0-1.4-.833A1.437,1.437,0,0,0,5,8.711a5.255,5.255,0,0,0-.457,2.342v4a5.62,5.62,0,0,0,.44,2.562,1.478,1.478,0,0,0,1.4.811,1.458,1.458,0,0,0,1.364-.79A5.366,5.366,0,0,0,8.2,15.156ZM24.61,21H13.7V18.637l5.027-5.285q1.858-2.116,1.858-3.362a2.339,2.339,0,0,0-.44-1.536,1.572,1.572,0,0,0-1.278-.526,1.592,1.592,0,0,0-1.343.7A2.892,2.892,0,0,0,17,10.387H13.374a5.136,5.136,0,0,1,.72-2.659,5.047,5.047,0,0,1,2-1.907,5.935,5.935,0,0,1,2.857-.687,5.839,5.839,0,0,1,3.9,1.171,4.18,4.18,0,0,1,1.37,3.362,4.883,4.883,0,0,1-.344,1.8A7.891,7.891,0,0,1,22.811,13.3a26.924,26.924,0,0,1-2.336,2.573l-2.02,2.331H24.61Z" transform="translate(-11225 -6149.664)" fill="#12263f"/>
    <path id="Trazado_150882" data-name="Trazado 150882" d="M11.816,14.608A7.468,7.468,0,0,1,10.393,19.5a4.919,4.919,0,0,1-4.012,1.719,4.945,4.945,0,0,1-4.039-1.729A7.457,7.457,0,0,1,.913,14.608V11.751A7.468,7.468,0,0,1,2.336,6.863,4.931,4.931,0,0,1,6.359,5.145a4.933,4.933,0,0,1,4.028,1.729,7.475,7.475,0,0,1,1.429,4.888ZM8.2,11.289a5.578,5.578,0,0,0-.44-2.519,1.472,1.472,0,0,0-1.4-.833A1.437,1.437,0,0,0,5,8.711a5.255,5.255,0,0,0-.457,2.342v4a5.62,5.62,0,0,0,.44,2.562,1.478,1.478,0,0,0,1.4.811,1.458,1.458,0,0,0,1.364-.79A5.366,5.366,0,0,0,8.2,15.156ZM17,11.665h1.708a1.776,1.776,0,0,0,2.03-1.987,1.718,1.718,0,0,0-.483-1.262A1.833,1.833,0,0,0,18.9,7.927a1.962,1.962,0,0,0-1.251.419,1.278,1.278,0,0,0-.532,1.042h-3.62a3.706,3.706,0,0,1,.688-2.2,4.54,4.54,0,0,1,1.907-1.509,6.519,6.519,0,0,1,2.68-.542,6.405,6.405,0,0,1,4.1,1.192A3.964,3.964,0,0,1,24.363,9.6a3.3,3.3,0,0,1-.618,1.907,4.4,4.4,0,0,1-1.8,1.456,4.205,4.205,0,0,1,1.955,1.37,3.607,3.607,0,0,1,.709,2.272A4.036,4.036,0,0,1,23,19.958a6.688,6.688,0,0,1-4.232,1.257,6.936,6.936,0,0,1-2.852-.585,4.468,4.468,0,0,1-1.993-1.622,4.217,4.217,0,0,1-.677-2.358h3.642a1.63,1.63,0,0,0,.58,1.246,2.048,2.048,0,0,0,1.429.526,2.145,2.145,0,0,0,1.525-.532,1.777,1.777,0,0,0,.569-1.359,2.078,2.078,0,0,0-.591-1.676,2.47,2.47,0,0,0-1.633-.494H17Z" transform="translate(-11388 -6149.664)" fill="#12263f"/>
    <path id="Trazado_150883" data-name="Trazado 150883" d="M16.336,14.608A7.468,7.468,0,0,1,14.913,19.5,4.919,4.919,0,0,1,10.9,21.215a4.945,4.945,0,0,1-4.039-1.729,7.457,7.457,0,0,1-1.429-4.877V11.751A7.468,7.468,0,0,1,6.856,6.863a4.931,4.931,0,0,1,4.023-1.719,4.933,4.933,0,0,1,4.028,1.729,7.475,7.475,0,0,1,1.429,4.888Zm-3.62-3.319a5.578,5.578,0,0,0-.44-2.519,1.472,1.472,0,0,0-1.4-.833,1.437,1.437,0,0,0-1.359.773,5.255,5.255,0,0,0-.457,2.342v4a5.62,5.62,0,0,0,.44,2.562,1.478,1.478,0,0,0,1.4.811,1.458,1.458,0,0,0,1.364-.79,5.366,5.366,0,0,0,.451-2.476Zm15.061,3.6h1.59v2.793h-1.59V21h-3.62V17.681H18.108l-.215-2.213L24.156,5.392V5.359h3.62Zm-6.435,0h2.814V10.075l-.226.365Z" transform="translate(-11393 -6389.664)" fill="#12263f"/>
    <path id="Trazado_150884" data-name="Trazado 150884" d="M4.768,12.132l3.047-8.8H9.353L5.4,14H4.153L.205,3.336H1.736ZM15.125,14a2.846,2.846,0,0,1-.19-.835,3.023,3.023,0,0,1-2.256.981,2.8,2.8,0,0,1-1.923-.663A2.145,2.145,0,0,1,10,11.8a2.24,2.24,0,0,1,.941-1.923A4.437,4.437,0,0,1,13.594,9.2h1.318V8.573a1.522,1.522,0,0,0-.425-1.132,1.707,1.707,0,0,0-1.252-.421,1.976,1.976,0,0,0-1.216.366,1.079,1.079,0,0,0-.491.886H10.166a1.87,1.87,0,0,1,.421-1.146,2.874,2.874,0,0,1,1.143-.875,3.844,3.844,0,0,1,1.586-.322,3.133,3.133,0,0,1,2.146.685A2.47,2.47,0,0,1,16.267,8.5v3.647a4.459,4.459,0,0,0,.278,1.736V14Zm-2.249-1.033a2.381,2.381,0,0,0,1.208-.33,1.994,1.994,0,0,0,.828-.857V10.155H13.85q-2.49,0-2.49,1.458a1.234,1.234,0,0,0,.425,1A1.633,1.633,0,0,0,12.876,12.967ZM19.863,14H18.508V2.75h1.355Zm1.809-4.036A4.681,4.681,0,0,1,22.13,7.87,3.415,3.415,0,0,1,23.4,6.434a3.469,3.469,0,0,1,1.864-.505,3.342,3.342,0,0,1,2.618,1.121,4.311,4.311,0,0,1,1,2.981v.1a4.722,4.722,0,0,1-.443,2.076,3.365,3.365,0,0,1-1.267,1.432,3.509,3.509,0,0,1-1.893.513,3.334,3.334,0,0,1-2.611-1.121,4.29,4.29,0,0,1-1-2.966Zm1.362.161a3.39,3.39,0,0,0,.612,2.117,2.072,2.072,0,0,0,3.278-.011,3.707,3.707,0,0,0,.608-2.267,3.384,3.384,0,0,0-.619-2.113,1.968,1.968,0,0,0-1.644-.809,1.946,1.946,0,0,0-1.619.8A3.68,3.68,0,0,0,23.035,10.125ZM34.417,7.291a4.061,4.061,0,0,0-.667-.051,1.786,1.786,0,0,0-1.809,1.135V14H30.586V6.075H31.9l.022.916a2.11,2.11,0,0,1,1.89-1.062,1.384,1.384,0,0,1,.6.1ZM5.918,34a2.846,2.846,0,0,1-.19-.835,3.023,3.023,0,0,1-2.256.981,2.8,2.8,0,0,1-1.923-.663A2.145,2.145,0,0,1,.8,31.8,2.24,2.24,0,0,1,1.74,29.88,4.437,4.437,0,0,1,4.387,29.2H5.706v-.623a1.522,1.522,0,0,0-.425-1.132,1.707,1.707,0,0,0-1.252-.421,1.976,1.976,0,0,0-1.216.366,1.079,1.079,0,0,0-.491.886H.959a1.87,1.87,0,0,1,.421-1.146,2.874,2.874,0,0,1,1.143-.875,3.844,3.844,0,0,1,1.586-.322,3.133,3.133,0,0,1,2.146.685A2.47,2.47,0,0,1,7.061,28.5v3.647a4.459,4.459,0,0,0,.278,1.736V34ZM3.669,32.967a2.381,2.381,0,0,0,1.208-.33,1.994,1.994,0,0,0,.828-.857V30.155H4.644q-2.49,0-2.49,1.458a1.234,1.234,0,0,0,.425,1A1.633,1.633,0,0,0,3.669,32.967Zm5.193-3a4.658,4.658,0,0,1,.857-2.948,2.741,2.741,0,0,1,2.271-1.095,2.726,2.726,0,0,1,2.263,1.025l.066-.879h1.238V33.81a3.224,3.224,0,0,1-.912,2.424,3.365,3.365,0,0,1-2.45.886,4.076,4.076,0,0,1-1.677-.366,2.887,2.887,0,0,1-1.252-1l.7-.813A2.65,2.65,0,0,0,12.1,36.014a2.076,2.076,0,0,0,1.542-.557,2.128,2.128,0,0,0,.553-1.567v-.681a2.785,2.785,0,0,1-2.219.938,2.707,2.707,0,0,1-2.252-1.121A4.9,4.9,0,0,1,8.862,29.972Zm1.362.154a3.553,3.553,0,0,0,.549,2.106A1.785,1.785,0,0,0,12.312,33a1.985,1.985,0,0,0,1.882-1.165V28.214a2.008,2.008,0,0,0-1.868-1.135,1.8,1.8,0,0,0-1.545.769A3.87,3.87,0,0,0,10.225,30.125Zm11.206-2.834a4.06,4.06,0,0,0-.667-.051,1.786,1.786,0,0,0-1.809,1.135V34H17.6V26.075h1.318l.022.916a2.11,2.11,0,0,1,1.89-1.062,1.384,1.384,0,0,1,.6.1Zm4.395,6.855A3.463,3.463,0,0,1,23.2,33.088a3.928,3.928,0,0,1-1.011-2.831v-.249a4.756,4.756,0,0,1,.45-2.106,3.514,3.514,0,0,1,1.26-1.45,3.167,3.167,0,0,1,1.754-.524,2.968,2.968,0,0,1,2.4,1.018,4.408,4.408,0,0,1,.857,2.915v.564H23.547a2.817,2.817,0,0,0,.685,1.893,2.153,2.153,0,0,0,1.666.721,2.36,2.36,0,0,0,1.216-.293,3.055,3.055,0,0,0,.872-.776l.828.645A3.328,3.328,0,0,1,25.825,34.146Zm-.168-7.1a1.807,1.807,0,0,0-1.377.6,2.9,2.9,0,0,0-.688,1.674h3.97v-.1A2.581,2.581,0,0,0,27,27.61,1.7,1.7,0,0,0,25.657,27.042Zm4.5,2.93a4.658,4.658,0,0,1,.857-2.948,2.954,2.954,0,0,1,4.534-.07l.066-.879h1.238V33.81a3.224,3.224,0,0,1-.912,2.424,3.365,3.365,0,0,1-2.45.886,4.076,4.076,0,0,1-1.677-.366,2.887,2.887,0,0,1-1.252-1l.7-.813A2.65,2.65,0,0,0,33.4,36.014a2.076,2.076,0,0,0,1.542-.557,2.128,2.128,0,0,0,.553-1.567v-.681a2.785,2.785,0,0,1-2.219.938,2.707,2.707,0,0,1-2.252-1.121A4.9,4.9,0,0,1,30.161,29.972Zm1.362.154a3.553,3.553,0,0,0,.549,2.106A1.785,1.785,0,0,0,33.611,33a1.985,1.985,0,0,0,1.882-1.165V28.214a2.008,2.008,0,0,0-1.868-1.135,1.8,1.8,0,0,0-1.545.769A3.87,3.87,0,0,0,31.523,30.125ZM43.792,34a2.846,2.846,0,0,1-.19-.835,3.023,3.023,0,0,1-2.256.981,2.8,2.8,0,0,1-1.923-.663,2.145,2.145,0,0,1-.751-1.681,2.24,2.24,0,0,1,.941-1.923,4.437,4.437,0,0,1,2.648-.685h1.318v-.623a1.522,1.522,0,0,0-.425-1.132A1.707,1.707,0,0,0,41.9,27.02a1.976,1.976,0,0,0-1.216.366,1.079,1.079,0,0,0-.491.886H38.833a1.87,1.87,0,0,1,.421-1.146,2.874,2.874,0,0,1,1.143-.875,3.844,3.844,0,0,1,1.586-.322,3.133,3.133,0,0,1,2.146.685,2.47,2.47,0,0,1,.806,1.886v3.647a4.459,4.459,0,0,0,.278,1.736V34Zm-2.249-1.033a2.381,2.381,0,0,0,1.208-.33,1.994,1.994,0,0,0,.828-.857V30.155H42.517q-2.49,0-2.49,1.458a1.234,1.234,0,0,0,.425,1A1.633,1.633,0,0,0,41.543,32.967Zm5.186-3a4.642,4.642,0,0,1,.864-2.933,2.941,2.941,0,0,1,4.468-.157V22.75h1.355V34H52.17l-.066-.85a2.759,2.759,0,0,1-2.263,1A2.707,2.707,0,0,1,47.6,33.019a4.7,4.7,0,0,1-.868-2.944Zm1.355.154a3.515,3.515,0,0,0,.557,2.109A1.8,1.8,0,0,0,50.178,33a1.977,1.977,0,0,0,1.882-1.157V28.2a1.992,1.992,0,0,0-1.868-1.121,1.808,1.808,0,0,0-1.553.769A3.87,3.87,0,0,0,48.083,30.125Zm7.075-.161a4.681,4.681,0,0,1,.458-2.095,3.415,3.415,0,0,1,1.274-1.436,3.469,3.469,0,0,1,1.864-.505,3.342,3.342,0,0,1,2.618,1.121,4.311,4.311,0,0,1,1,2.981v.1A4.722,4.722,0,0,1,61.93,32.2a3.365,3.365,0,0,1-1.267,1.432,3.509,3.509,0,0,1-1.893.513,3.334,3.334,0,0,1-2.611-1.121,4.29,4.29,0,0,1-1-2.966Zm1.362.161a3.39,3.39,0,0,0,.612,2.117,2.072,2.072,0,0,0,3.278-.011,3.707,3.707,0,0,0,.608-2.267,3.384,3.384,0,0,0-.619-2.113,1.968,1.968,0,0,0-1.644-.809,1.946,1.946,0,0,0-1.619.8A3.68,3.68,0,0,0,56.521,30.125Z" transform="translate(-11232 -6341.664)" fill="#12263f"/>
    <path id="Trazado_150885" data-name="Trazado 150885" d="M4.38,9.247A6.612,6.612,0,0,1,1.747,7.969,2.442,2.442,0,0,1,.923,6.1,2.58,2.58,0,0,1,1.93,4.013a4,4,0,0,1,2.618-.824,4.369,4.369,0,0,1,1.959.425A3.222,3.222,0,0,1,7.841,4.786a3,3,0,0,1,.472,1.633H6.9a1.95,1.95,0,0,0-.615-1.525,2.5,2.5,0,0,0-1.736-.555A2.561,2.561,0,0,0,2.926,4.8a1.53,1.53,0,0,0-.582,1.273,1.376,1.376,0,0,0,.553,1.1A5.424,5.424,0,0,0,4.779,8a8.734,8.734,0,0,1,2.08.825A3.157,3.157,0,0,1,7.972,9.876a2.683,2.683,0,0,1,.363,1.414,2.492,2.492,0,0,1-1.011,2.076,4.31,4.31,0,0,1-2.7.78,5.013,5.013,0,0,1-2.051-.421A3.451,3.451,0,0,1,1.1,12.572a2.815,2.815,0,0,1-.516-1.663H2a1.837,1.837,0,0,0,.714,1.527A3.007,3.007,0,0,0,4.622,13a2.764,2.764,0,0,0,1.707-.454A1.475,1.475,0,0,0,6.921,11.3a1.448,1.448,0,0,0-.549-1.212A6.333,6.333,0,0,0,4.38,9.247ZM14.817,14a2.846,2.846,0,0,1-.19-.835,3.023,3.023,0,0,1-2.256.981,2.8,2.8,0,0,1-1.923-.663A2.145,2.145,0,0,1,9.7,11.8a2.24,2.24,0,0,1,.941-1.923A4.437,4.437,0,0,1,13.286,9.2H14.6V8.573a1.522,1.522,0,0,0-.425-1.132,1.707,1.707,0,0,0-1.252-.421,1.976,1.976,0,0,0-1.216.366,1.079,1.079,0,0,0-.491.886H9.858a1.87,1.87,0,0,1,.421-1.146,2.874,2.874,0,0,1,1.143-.875,3.844,3.844,0,0,1,1.586-.322,3.133,3.133,0,0,1,2.146.685A2.47,2.47,0,0,1,15.959,8.5v3.647a4.459,4.459,0,0,0,.278,1.736V14Zm-2.249-1.033a2.381,2.381,0,0,0,1.208-.33,1.994,1.994,0,0,0,.828-.857V10.155H13.542q-2.49,0-2.49,1.458a1.234,1.234,0,0,0,.425,1A1.633,1.633,0,0,0,12.568,12.967Zm7.354-8.811V6.075H21.4V7.123H19.922v4.921a1.1,1.1,0,0,0,.2.715.832.832,0,0,0,.674.238,3.281,3.281,0,0,0,.645-.088V14a3.951,3.951,0,0,1-1.04.146,1.687,1.687,0,0,1-1.37-.549,2.36,2.36,0,0,1-.461-1.56V7.123H17.124V6.075h1.443V4.156ZM24.456,14H23.1V6.075h1.355ZM22.991,3.973a.809.809,0,0,1,.2-.557.756.756,0,0,1,.6-.227.768.768,0,0,1,.6.227.8.8,0,0,1,.205.557.774.774,0,0,1-.205.549.782.782,0,0,1-.6.22.77.77,0,0,1-.6-.22A.782.782,0,0,1,22.991,3.973ZM31.238,11.9a1,1,0,0,0-.414-.853,3.983,3.983,0,0,0-1.443-.524,6.822,6.822,0,0,1-1.633-.527,2.324,2.324,0,0,1-.894-.732,1.752,1.752,0,0,1-.289-1.011A2.056,2.056,0,0,1,27.389,6.6a3.218,3.218,0,0,1,2.106-.674,3.311,3.311,0,0,1,2.186.7A2.21,2.21,0,0,1,32.52,8.4H31.157a1.223,1.223,0,0,0-.472-.959,1.77,1.77,0,0,0-1.19-.4,1.852,1.852,0,0,0-1.157.322,1.014,1.014,0,0,0-.417.842.822.822,0,0,0,.388.74,4.776,4.776,0,0,0,1.4.476,7.308,7.308,0,0,1,1.644.542,2.4,2.4,0,0,1,.934.758,1.864,1.864,0,0,1,.3,1.08,2.028,2.028,0,0,1-.85,1.7,3.564,3.564,0,0,1-2.2.641,3.991,3.991,0,0,1-1.685-.337,2.74,2.74,0,0,1-1.146-.941,2.268,2.268,0,0,1-.414-1.307h1.355a1.4,1.4,0,0,0,.546,1.08,2.117,2.117,0,0,0,1.344.4,2.185,2.185,0,0,0,1.234-.311A.956.956,0,0,0,31.238,11.9ZM35.024,14V7.123H33.772V6.075h1.252V5.262a2.7,2.7,0,0,1,.681-1.97,2.573,2.573,0,0,1,1.926-.7,3.578,3.578,0,0,1,.93.124l-.073,1.092a3.892,3.892,0,0,0-.732-.066,1.322,1.322,0,0,0-1.018.386,1.564,1.564,0,0,0-.359,1.106v.838h1.692V7.123H36.379V14Zm9.434,0a2.846,2.846,0,0,1-.19-.835,3.023,3.023,0,0,1-2.256.981,2.8,2.8,0,0,1-1.923-.663,2.145,2.145,0,0,1-.751-1.681A2.24,2.24,0,0,1,40.28,9.88,4.437,4.437,0,0,1,42.927,9.2h1.318V8.573a1.522,1.522,0,0,0-.425-1.132,1.707,1.707,0,0,0-1.252-.421,1.976,1.976,0,0,0-1.216.366,1.079,1.079,0,0,0-.491.886H39.5a1.87,1.87,0,0,1,.421-1.146,2.874,2.874,0,0,1,1.143-.875,3.844,3.844,0,0,1,1.586-.322,3.133,3.133,0,0,1,2.146.685A2.47,2.47,0,0,1,45.6,8.5v3.647a4.459,4.459,0,0,0,.278,1.736V14Zm-2.249-1.033a2.381,2.381,0,0,0,1.208-.33,1.994,1.994,0,0,0,.828-.857V10.155H43.184q-2.49,0-2.49,1.458a1.234,1.234,0,0,0,.425,1A1.633,1.633,0,0,0,42.209,12.967Zm8.694.073A1.952,1.952,0,0,0,52.17,12.6a1.546,1.546,0,0,0,.6-1.1h1.282a2.457,2.457,0,0,1-.469,1.3,3.087,3.087,0,0,1-1.154.981,3.329,3.329,0,0,1-1.527.366,3.265,3.265,0,0,1-2.574-1.08,4.3,4.3,0,0,1-.956-2.955V9.884A4.771,4.771,0,0,1,47.8,7.826a3.236,3.236,0,0,1,1.219-1.4,3.464,3.464,0,0,1,1.879-.5,3.178,3.178,0,0,1,2.216.8A2.853,2.853,0,0,1,54.053,8.8H52.771a1.867,1.867,0,0,0-.582-1.263A1.811,1.811,0,0,0,50.9,7.042a1.9,1.9,0,0,0-1.6.743,3.491,3.491,0,0,0-.568,2.15v.256a3.422,3.422,0,0,0,.564,2.109A1.906,1.906,0,0,0,50.9,13.041Zm7.852,0a1.952,1.952,0,0,0,1.267-.439,1.546,1.546,0,0,0,.6-1.1H61.9a2.457,2.457,0,0,1-.469,1.3,3.087,3.087,0,0,1-1.154.981,3.329,3.329,0,0,1-1.527.366,3.265,3.265,0,0,1-2.574-1.08,4.3,4.3,0,0,1-.956-2.955V9.884a4.771,4.771,0,0,1,.425-2.058,3.236,3.236,0,0,1,1.219-1.4,3.464,3.464,0,0,1,1.879-.5,3.178,3.178,0,0,1,2.216.8A2.853,2.853,0,0,1,61.9,8.8H60.623a1.867,1.867,0,0,0-.582-1.263,1.811,1.811,0,0,0-1.293-.494,1.9,1.9,0,0,0-1.6.743,3.491,3.491,0,0,0-.568,2.15v.256a3.422,3.422,0,0,0,.564,2.109A1.906,1.906,0,0,0,58.755,13.041ZM64.9,14H63.545V6.075H64.9ZM63.435,3.973a.809.809,0,0,1,.2-.557.756.756,0,0,1,.6-.227.768.768,0,0,1,.6.227.8.8,0,0,1,.205.557.774.774,0,0,1-.205.549.782.782,0,0,1-.6.22.77.77,0,0,1-.6-.22A.782.782,0,0,1,63.435,3.973Zm3.274,5.991a4.681,4.681,0,0,1,.458-2.095,3.415,3.415,0,0,1,1.274-1.436,3.469,3.469,0,0,1,1.864-.505,3.342,3.342,0,0,1,2.618,1.121,4.311,4.311,0,0,1,1,2.981v.1A4.722,4.722,0,0,1,73.48,12.2a3.365,3.365,0,0,1-1.267,1.432,3.509,3.509,0,0,1-1.893.513,3.334,3.334,0,0,1-2.611-1.121,4.29,4.29,0,0,1-1-2.966Zm1.362.161a3.39,3.39,0,0,0,.612,2.117,2.072,2.072,0,0,0,3.278-.011,3.707,3.707,0,0,0,.608-2.267,3.384,3.384,0,0,0-.619-2.113,1.968,1.968,0,0,0-1.644-.809,1.946,1.946,0,0,0-1.619.8A3.68,3.68,0,0,0,68.071,10.125ZM70.92,2.765h1.641L70.6,4.918l-1.091,0ZM76.9,6.075l.044,1a2.888,2.888,0,0,1,2.373-1.143q2.512,0,2.534,2.834V14H80.5V8.756a1.824,1.824,0,0,0-.392-1.267,1.57,1.57,0,0,0-1.2-.41,1.956,1.956,0,0,0-1.157.352,2.387,2.387,0,0,0-.776.923V14H75.623V6.075ZM.7,29.972a4.642,4.642,0,0,1,.864-2.933,2.733,2.733,0,0,1,2.263-1.11,2.748,2.748,0,0,1,2.2.952V22.75H7.383V34H6.138l-.066-.85a2.759,2.759,0,0,1-2.263,1,2.707,2.707,0,0,1-2.245-1.128A4.7,4.7,0,0,1,.7,30.074Zm1.355.154a3.515,3.515,0,0,0,.557,2.109A1.8,1.8,0,0,0,4.146,33a1.977,1.977,0,0,0,1.882-1.157V28.2A1.992,1.992,0,0,0,4.16,27.079a1.808,1.808,0,0,0-1.553.769A3.87,3.87,0,0,0,2.051,30.125Zm10.723,4.021a3.463,3.463,0,0,1-2.622-1.058,3.928,3.928,0,0,1-1.011-2.831v-.249a4.756,4.756,0,0,1,.45-2.106,3.514,3.514,0,0,1,1.26-1.45,3.167,3.167,0,0,1,1.754-.524,2.968,2.968,0,0,1,2.4,1.018,4.408,4.408,0,0,1,.857,2.915v.564H10.5a2.817,2.817,0,0,0,.685,1.893,2.153,2.153,0,0,0,1.666.721,2.36,2.36,0,0,0,1.216-.293,3.055,3.055,0,0,0,.872-.776l.828.645A3.328,3.328,0,0,1,12.773,34.146Zm-.168-7.1a1.807,1.807,0,0,0-1.377.6,2.9,2.9,0,0,0-.688,1.674h3.97v-.1a2.581,2.581,0,0,0-.557-1.6A1.7,1.7,0,0,0,12.6,27.042ZM18.9,34H17.549V22.75H18.9Zm9.06-.959a1.952,1.952,0,0,0,1.267-.439,1.546,1.546,0,0,0,.6-1.1h1.282a2.457,2.457,0,0,1-.469,1.3,3.087,3.087,0,0,1-1.154.981,3.329,3.329,0,0,1-1.527.366,3.265,3.265,0,0,1-2.574-1.08,4.3,4.3,0,0,1-.956-2.955v-.227a4.771,4.771,0,0,1,.425-2.058,3.236,3.236,0,0,1,1.219-1.4,3.464,3.464,0,0,1,1.879-.5,3.178,3.178,0,0,1,2.216.8,2.853,2.853,0,0,1,.941,2.073H29.832a1.867,1.867,0,0,0-.582-1.263,1.811,1.811,0,0,0-1.293-.494,1.9,1.9,0,0,0-1.6.743,3.491,3.491,0,0,0-.568,2.15v.256a3.422,3.422,0,0,0,.564,2.109A1.906,1.906,0,0,0,27.964,33.041ZM34.109,34H32.754V22.75h1.355Zm3.64,0H36.394V26.075h1.355ZM36.284,23.973a.809.809,0,0,1,.2-.557.756.756,0,0,1,.6-.227.768.768,0,0,1,.6.227.8.8,0,0,1,.205.557.774.774,0,0,1-.205.549.782.782,0,0,1-.6.22.77.77,0,0,1-.6-.22A.782.782,0,0,1,36.284,23.973Zm6.921,10.173a3.463,3.463,0,0,1-2.622-1.058,3.928,3.928,0,0,1-1.011-2.831v-.249a4.756,4.756,0,0,1,.45-2.106,3.514,3.514,0,0,1,1.26-1.45,3.167,3.167,0,0,1,1.754-.524,2.968,2.968,0,0,1,2.4,1.018,4.408,4.408,0,0,1,.857,2.915v.564H40.928a2.817,2.817,0,0,0,.685,1.893,2.153,2.153,0,0,0,1.666.721,2.36,2.36,0,0,0,1.216-.293,3.055,3.055,0,0,0,.872-.776l.828.645A3.328,3.328,0,0,1,43.206,34.146Zm-.168-7.1a1.807,1.807,0,0,0-1.377.6,2.9,2.9,0,0,0-.688,1.674h3.97v-.1a2.581,2.581,0,0,0-.557-1.6A1.7,1.7,0,0,0,43.037,27.042Zm6.108-.967.044,1a2.888,2.888,0,0,1,2.373-1.143q2.512,0,2.534,2.834V34H52.742V28.756a1.824,1.824,0,0,0-.392-1.267,1.57,1.57,0,0,0-1.2-.41A1.956,1.956,0,0,0,50,27.43a2.387,2.387,0,0,0-.776.923V34H47.864V26.075Zm8.833-1.919v1.919h1.479v1.047H57.979v4.921a1.1,1.1,0,0,0,.2.715A.832.832,0,0,0,58.85,33a3.281,3.281,0,0,0,.645-.088V34a3.951,3.951,0,0,1-1.04.146,1.687,1.687,0,0,1-1.37-.549,2.36,2.36,0,0,1-.461-1.56V27.123H55.181V26.075h1.443V24.156Zm6.35,9.99a3.463,3.463,0,0,1-2.622-1.058A3.928,3.928,0,0,1,60.7,30.257v-.249a4.756,4.756,0,0,1,.45-2.106,3.514,3.514,0,0,1,1.26-1.45,3.167,3.167,0,0,1,1.754-.524,2.968,2.968,0,0,1,2.4,1.018,4.408,4.408,0,0,1,.857,2.915v.564H62.051a2.817,2.817,0,0,0,.685,1.893,2.153,2.153,0,0,0,1.666.721,2.36,2.36,0,0,0,1.216-.293,3.055,3.055,0,0,0,.872-.776l.828.645A3.328,3.328,0,0,1,64.329,34.146Zm-.168-7.1a1.807,1.807,0,0,0-1.377.6,2.9,2.9,0,0,0-.688,1.674h3.97v-.1a2.581,2.581,0,0,0-.557-1.6A1.7,1.7,0,0,0,64.16,27.042Z" transform="translate(-11225 -6113.664)" fill="#12263f"/>
    <path id="Trazado_150886" data-name="Trazado 150886" d="M11.209,14H9.8V3.336h1.406Zm3.64-7.925.044,1a2.888,2.888,0,0,1,2.373-1.143q2.512,0,2.534,2.834V14H18.446V8.756a1.824,1.824,0,0,0-.392-1.267,1.57,1.57,0,0,0-1.2-.41A1.956,1.956,0,0,0,15.7,7.43a2.387,2.387,0,0,0-.776.923V14H13.568V6.075Zm8.833-1.919V6.075h1.479V7.123H23.683v4.921a1.1,1.1,0,0,0,.2.715.832.832,0,0,0,.674.238,3.281,3.281,0,0,0,.645-.088V14a3.951,3.951,0,0,1-1.04.146,1.687,1.687,0,0,1-1.37-.549,2.36,2.36,0,0,1-.461-1.56V7.123H20.885V6.075h1.443V4.156Zm6.35,9.99a3.463,3.463,0,0,1-2.622-1.058A3.928,3.928,0,0,1,26.4,10.257v-.249A4.756,4.756,0,0,1,26.85,7.9a3.514,3.514,0,0,1,1.26-1.45,3.167,3.167,0,0,1,1.754-.524,2.968,2.968,0,0,1,2.4,1.018,4.408,4.408,0,0,1,.857,2.915v.564H27.755a2.817,2.817,0,0,0,.685,1.893,2.153,2.153,0,0,0,1.666.721,2.36,2.36,0,0,0,1.216-.293,3.055,3.055,0,0,0,.872-.776l.828.645A3.328,3.328,0,0,1,30.033,14.146Zm-.168-7.1a1.807,1.807,0,0,0-1.377.6A2.9,2.9,0,0,0,27.8,9.313h3.97v-.1a2.581,2.581,0,0,0-.557-1.6A1.7,1.7,0,0,0,29.864,7.042Zm4.5,2.93a4.658,4.658,0,0,1,.857-2.948,2.954,2.954,0,0,1,4.534-.07l.066-.879h1.238V13.81a3.224,3.224,0,0,1-.912,2.424,3.365,3.365,0,0,1-2.45.886,4.076,4.076,0,0,1-1.677-.366,2.887,2.887,0,0,1-1.252-1l.7-.813a2.65,2.65,0,0,0,2.131,1.077,2.076,2.076,0,0,0,1.542-.557A2.128,2.128,0,0,0,39.7,13.89v-.681a2.785,2.785,0,0,1-2.219.938,2.707,2.707,0,0,1-2.252-1.121A4.9,4.9,0,0,1,34.369,9.972Zm1.362.154a3.553,3.553,0,0,0,.549,2.106A1.785,1.785,0,0,0,37.818,13,1.985,1.985,0,0,0,39.7,11.832V8.214a2.008,2.008,0,0,0-1.868-1.135,1.8,1.8,0,0,0-1.545.769A3.87,3.87,0,0,0,35.731,10.125ZM46.937,7.291a4.061,4.061,0,0,0-.667-.051,1.786,1.786,0,0,0-1.809,1.135V14H43.106V6.075h1.318l.022.916a2.11,2.11,0,0,1,1.89-1.062,1.384,1.384,0,0,1,.6.1ZM52.782,14a2.846,2.846,0,0,1-.19-.835,3.023,3.023,0,0,1-2.256.981,2.8,2.8,0,0,1-1.923-.663,2.145,2.145,0,0,1-.751-1.681A2.24,2.24,0,0,1,48.6,9.88,4.437,4.437,0,0,1,51.251,9.2h1.318V8.573a1.522,1.522,0,0,0-.425-1.132,1.707,1.707,0,0,0-1.252-.421,1.976,1.976,0,0,0-1.216.366,1.079,1.079,0,0,0-.491.886H47.823a1.87,1.87,0,0,1,.421-1.146,2.874,2.874,0,0,1,1.143-.875,3.844,3.844,0,0,1,1.586-.322,3.133,3.133,0,0,1,2.146.685A2.47,2.47,0,0,1,53.924,8.5v3.647a4.459,4.459,0,0,0,.278,1.736V14Zm-2.249-1.033a2.381,2.381,0,0,0,1.208-.33,1.994,1.994,0,0,0,.828-.857V10.155H51.507q-2.49,0-2.49,1.458a1.234,1.234,0,0,0,.425,1A1.633,1.633,0,0,0,50.533,12.967Zm6.8-6.892.044,1a2.888,2.888,0,0,1,2.373-1.143q2.512,0,2.534,2.834V14H60.926V8.756a1.824,1.824,0,0,0-.392-1.267,1.57,1.57,0,0,0-1.2-.41,1.956,1.956,0,0,0-1.157.352,2.387,2.387,0,0,0-.776.923V14H56.048V6.075Zm8.833-1.919V6.075h1.479V7.123H66.163v4.921a1.1,1.1,0,0,0,.2.715.832.832,0,0,0,.674.238,3.281,3.281,0,0,0,.645-.088V14a3.951,3.951,0,0,1-1.04.146,1.687,1.687,0,0,1-1.37-.549,2.36,2.36,0,0,1-.461-1.56V7.123H63.365V6.075h1.443V4.156Zm6.35,9.99a3.463,3.463,0,0,1-2.622-1.058,3.928,3.928,0,0,1-1.011-2.831v-.249a4.756,4.756,0,0,1,.45-2.106,3.514,3.514,0,0,1,1.26-1.45,3.167,3.167,0,0,1,1.754-.524,2.968,2.968,0,0,1,2.4,1.018A4.408,4.408,0,0,1,75.6,9.862v.564H70.235a2.817,2.817,0,0,0,.685,1.893,2.153,2.153,0,0,0,1.666.721,2.36,2.36,0,0,0,1.216-.293,3.055,3.055,0,0,0,.872-.776l.828.645A3.328,3.328,0,0,1,72.513,14.146Zm-.168-7.1a1.807,1.807,0,0,0-1.377.6,2.9,2.9,0,0,0-.688,1.674h3.97v-.1a2.581,2.581,0,0,0-.557-1.6A1.7,1.7,0,0,0,72.345,7.042ZM81.786,11.9a1,1,0,0,0-.414-.853,3.983,3.983,0,0,0-1.443-.524A6.822,6.822,0,0,1,78.3,9.994a2.324,2.324,0,0,1-.894-.732,1.752,1.752,0,0,1-.289-1.011A2.056,2.056,0,0,1,77.937,6.6a3.218,3.218,0,0,1,2.106-.674,3.311,3.311,0,0,1,2.186.7,2.21,2.21,0,0,1,.839,1.78H81.705a1.223,1.223,0,0,0-.472-.959,1.77,1.77,0,0,0-1.19-.4,1.852,1.852,0,0,0-1.157.322,1.014,1.014,0,0,0-.417.842.822.822,0,0,0,.388.74,4.776,4.776,0,0,0,1.4.476,7.308,7.308,0,0,1,1.644.542,2.4,2.4,0,0,1,.934.758,1.864,1.864,0,0,1,.3,1.08,2.028,2.028,0,0,1-.85,1.7,3.564,3.564,0,0,1-2.2.641A3.991,3.991,0,0,1,78.4,13.81a2.74,2.74,0,0,1-1.146-.941,2.268,2.268,0,0,1-.414-1.307H78.2a1.4,1.4,0,0,0,.546,1.08,2.117,2.117,0,0,0,1.344.4,2.185,2.185,0,0,0,1.234-.311A.956.956,0,0,0,81.786,11.9Zm6.5-1.926a4.642,4.642,0,0,1,.864-2.933,2.941,2.941,0,0,1,4.468-.157V2.75h1.355V14H93.731l-.066-.85a2.759,2.759,0,0,1-2.263,1,2.707,2.707,0,0,1-2.245-1.128,4.7,4.7,0,0,1-.868-2.944Zm1.355.154a3.515,3.515,0,0,0,.557,2.109A1.8,1.8,0,0,0,91.739,13a1.977,1.977,0,0,0,1.882-1.157V8.2a1.992,1.992,0,0,0-1.868-1.121,1.808,1.808,0,0,0-1.553.769A3.87,3.87,0,0,0,89.645,10.125Zm10.723,4.021a3.463,3.463,0,0,1-2.622-1.058,3.928,3.928,0,0,1-1.011-2.831v-.249a4.756,4.756,0,0,1,.45-2.106,3.514,3.514,0,0,1,1.26-1.45,3.167,3.167,0,0,1,1.754-.524,2.968,2.968,0,0,1,2.4,1.018,4.408,4.408,0,0,1,.857,2.915v.564H98.089a2.817,2.817,0,0,0,.685,1.893,2.153,2.153,0,0,0,1.666.721,2.36,2.36,0,0,0,1.216-.293,3.055,3.055,0,0,0,.872-.776l.828.645A3.328,3.328,0,0,1,100.367,14.146Zm-.168-7.1a1.807,1.807,0,0,0-1.377.6,2.9,2.9,0,0,0-.688,1.674h3.97v-.1a2.581,2.581,0,0,0-.557-1.6A1.7,1.7,0,0,0,100.2,7.042ZM24.4,34H23.045V22.75H24.4Zm7.061,0a2.846,2.846,0,0,1-.19-.835,3.023,3.023,0,0,1-2.256.981,2.8,2.8,0,0,1-1.923-.663,2.145,2.145,0,0,1-.751-1.681,2.24,2.24,0,0,1,.941-1.923A4.437,4.437,0,0,1,29.93,29.2h1.318v-.623a1.522,1.522,0,0,0-.425-1.132,1.707,1.707,0,0,0-1.252-.421,1.976,1.976,0,0,0-1.216.366,1.079,1.079,0,0,0-.491.886H26.5a1.87,1.87,0,0,1,.421-1.146,2.874,2.874,0,0,1,1.143-.875,3.844,3.844,0,0,1,1.586-.322,3.133,3.133,0,0,1,2.146.685A2.47,2.47,0,0,1,32.6,28.5v3.647a4.459,4.459,0,0,0,.278,1.736V34Zm-2.249-1.033a2.381,2.381,0,0,0,1.208-.33,1.994,1.994,0,0,0,.828-.857V30.155H30.187q-2.49,0-2.49,1.458a1.234,1.234,0,0,0,.425,1A1.633,1.633,0,0,0,29.212,32.967Zm12.517,1.179a3.463,3.463,0,0,1-2.622-1.058A3.928,3.928,0,0,1,38.1,30.257v-.249a4.756,4.756,0,0,1,.45-2.106,3.514,3.514,0,0,1,1.26-1.45,3.167,3.167,0,0,1,1.754-.524,2.968,2.968,0,0,1,2.4,1.018,4.408,4.408,0,0,1,.857,2.915v.564H39.452a2.817,2.817,0,0,0,.685,1.893,2.153,2.153,0,0,0,1.666.721,2.36,2.36,0,0,0,1.216-.293,3.055,3.055,0,0,0,.872-.776l.828.645A3.328,3.328,0,0,1,41.729,34.146Zm-.168-7.1a1.807,1.807,0,0,0-1.377.6,2.9,2.9,0,0,0-.688,1.674h3.97v-.1a2.581,2.581,0,0,0-.557-1.6A1.7,1.7,0,0,0,41.561,27.042ZM51,31.9a1,1,0,0,0-.414-.853,3.983,3.983,0,0,0-1.443-.524,6.822,6.822,0,0,1-1.633-.527,2.324,2.324,0,0,1-.894-.732,1.752,1.752,0,0,1-.289-1.011,2.056,2.056,0,0,1,.824-1.648,3.218,3.218,0,0,1,2.106-.674,3.311,3.311,0,0,1,2.186.7,2.21,2.21,0,0,1,.839,1.78H50.921a1.223,1.223,0,0,0-.472-.959,1.77,1.77,0,0,0-1.19-.4,1.852,1.852,0,0,0-1.157.322,1.014,1.014,0,0,0-.417.842.822.822,0,0,0,.388.74,4.776,4.776,0,0,0,1.4.476,7.308,7.308,0,0,1,1.644.542,2.4,2.4,0,0,1,.934.758,1.864,1.864,0,0,1,.3,1.08,2.028,2.028,0,0,1-.85,1.7,3.564,3.564,0,0,1-2.2.641,3.991,3.991,0,0,1-1.685-.337,2.74,2.74,0,0,1-1.146-.941,2.268,2.268,0,0,1-.414-1.307h1.355a1.4,1.4,0,0,0,.546,1.08,2.117,2.117,0,0,0,1.344.4,2.185,2.185,0,0,0,1.234-.311A.956.956,0,0,0,51,31.9Zm4.958-7.742v1.919H57.44v1.047H55.96v4.921a1.1,1.1,0,0,0,.2.715.832.832,0,0,0,.674.238,3.281,3.281,0,0,0,.645-.088V34a3.951,3.951,0,0,1-1.04.146,1.687,1.687,0,0,1-1.37-.549,2.36,2.36,0,0,1-.461-1.56V27.123H53.163V26.075h1.443V24.156Zm6.892,3.135a4.06,4.06,0,0,0-.667-.051,1.786,1.786,0,0,0-1.809,1.135V34H59.022V26.075H60.34l.022.916a2.11,2.11,0,0,1,1.89-1.062,1.384,1.384,0,0,1,.6.1ZM68.7,34a2.846,2.846,0,0,1-.19-.835,3.023,3.023,0,0,1-2.256.981,2.8,2.8,0,0,1-1.923-.663,2.145,2.145,0,0,1-.751-1.681,2.24,2.24,0,0,1,.941-1.923,4.437,4.437,0,0,1,2.648-.685h1.318v-.623a1.522,1.522,0,0,0-.425-1.132,1.707,1.707,0,0,0-1.252-.421,1.976,1.976,0,0,0-1.216.366,1.079,1.079,0,0,0-.491.886H63.739a1.87,1.87,0,0,1,.421-1.146,2.874,2.874,0,0,1,1.143-.875,3.844,3.844,0,0,1,1.586-.322,3.133,3.133,0,0,1,2.146.685A2.47,2.47,0,0,1,69.84,28.5v3.647a4.459,4.459,0,0,0,.278,1.736V34Zm-2.249-1.033a2.381,2.381,0,0,0,1.208-.33,1.994,1.994,0,0,0,.828-.857V30.155H67.423q-2.49,0-2.49,1.458a1.234,1.234,0,0,0,.425,1A1.633,1.633,0,0,0,66.449,32.967ZM73.8,24.156v1.919h1.479v1.047H73.8v4.921a1.1,1.1,0,0,0,.2.715.832.832,0,0,0,.674.238,3.281,3.281,0,0,0,.645-.088V34a3.951,3.951,0,0,1-1.04.146,1.687,1.687,0,0,1-1.37-.549,2.36,2.36,0,0,1-.461-1.56V27.123H71V26.075h1.443V24.156Zm6.35,9.99a3.463,3.463,0,0,1-2.622-1.058,3.928,3.928,0,0,1-1.011-2.831v-.249a4.756,4.756,0,0,1,.45-2.106,3.514,3.514,0,0,1,1.26-1.45,3.167,3.167,0,0,1,1.754-.524,2.968,2.968,0,0,1,2.4,1.018,4.408,4.408,0,0,1,.857,2.915v.564H77.875a2.817,2.817,0,0,0,.685,1.893,2.153,2.153,0,0,0,1.666.721,2.36,2.36,0,0,0,1.216-.293,3.055,3.055,0,0,0,.872-.776l.828.645A3.328,3.328,0,0,1,80.152,34.146Zm-.168-7.1a1.807,1.807,0,0,0-1.377.6,2.9,2.9,0,0,0-.688,1.674h3.97v-.1a2.581,2.581,0,0,0-.557-1.6A1.7,1.7,0,0,0,79.984,27.042Zm4.5,2.93a4.658,4.658,0,0,1,.857-2.948,2.954,2.954,0,0,1,4.534-.07l.066-.879h1.238V33.81a3.224,3.224,0,0,1-.912,2.424,3.365,3.365,0,0,1-2.45.886,4.076,4.076,0,0,1-1.677-.366,2.887,2.887,0,0,1-1.252-1l.7-.813a2.65,2.65,0,0,0,2.131,1.077,2.076,2.076,0,0,0,1.542-.557,2.128,2.128,0,0,0,.553-1.567v-.681a2.785,2.785,0,0,1-2.219.938,2.707,2.707,0,0,1-2.252-1.121A4.9,4.9,0,0,1,84.488,29.972Zm1.362.154a3.553,3.553,0,0,0,.549,2.106A1.785,1.785,0,0,0,87.938,33a1.985,1.985,0,0,0,1.882-1.165V28.214a2.008,2.008,0,0,0-1.868-1.135,1.8,1.8,0,0,0-1.545.769A3.87,3.87,0,0,0,85.851,30.125ZM94.7,34H93.343V26.075H94.7ZM93.233,23.973a.809.809,0,0,1,.2-.557.756.756,0,0,1,.6-.227.768.768,0,0,1,.6.227.8.8,0,0,1,.205.557.774.774,0,0,1-.205.549.782.782,0,0,1-.6.22.77.77,0,0,1-.6-.22A.782.782,0,0,1,93.233,23.973ZM101.759,34a2.846,2.846,0,0,1-.19-.835,3.023,3.023,0,0,1-2.256.981,2.8,2.8,0,0,1-1.923-.663,2.145,2.145,0,0,1-.751-1.681,2.24,2.24,0,0,1,.941-1.923,4.437,4.437,0,0,1,2.648-.685h1.318v-.623a1.522,1.522,0,0,0-.425-1.132,1.707,1.707,0,0,0-1.252-.421,1.976,1.976,0,0,0-1.216.366,1.079,1.079,0,0,0-.491.886H96.8a1.87,1.87,0,0,1,.421-1.146,2.874,2.874,0,0,1,1.143-.875,3.844,3.844,0,0,1,1.586-.322,3.133,3.133,0,0,1,2.146.685A2.47,2.47,0,0,1,102.9,28.5v3.647a4.459,4.459,0,0,0,.278,1.736V34ZM99.51,32.967a2.381,2.381,0,0,0,1.208-.33,1.994,1.994,0,0,0,.828-.857V30.155h-1.062q-2.49,0-2.49,1.458a1.234,1.234,0,0,0,.425,1A1.633,1.633,0,0,0,99.51,32.967Z" transform="translate(-11462 -6113.664)" fill="#12263f"/>
    <path id="Trazado_150887" data-name="Trazado 150887" d="M42.61,9.825V14H41.2V3.336h3.933a3.952,3.952,0,0,1,2.743.894A3.029,3.029,0,0,1,48.872,6.6a2.989,2.989,0,0,1-.97,2.391,4.128,4.128,0,0,1-2.78.839Zm0-1.15h2.527a2.526,2.526,0,0,0,1.729-.532,1.945,1.945,0,0,0,.6-1.537,2.009,2.009,0,0,0-.6-1.526,2.367,2.367,0,0,0-1.648-.594H42.61ZM54.285,7.291a4.061,4.061,0,0,0-.667-.051,1.786,1.786,0,0,0-1.809,1.135V14H50.454V6.075h1.318l.022.916a2.11,2.11,0,0,1,1.89-1.062,1.384,1.384,0,0,1,.6.1Zm.74,2.673a4.681,4.681,0,0,1,.458-2.095,3.415,3.415,0,0,1,1.274-1.436,3.469,3.469,0,0,1,1.864-.505,3.342,3.342,0,0,1,2.618,1.121,4.311,4.311,0,0,1,1,2.981v.1A4.722,4.722,0,0,1,61.8,12.2a3.365,3.365,0,0,1-1.267,1.432,3.509,3.509,0,0,1-1.893.513,3.334,3.334,0,0,1-2.611-1.121,4.29,4.29,0,0,1-1-2.966Zm1.362.161A3.39,3.39,0,0,0,57,12.242a2.072,2.072,0,0,0,3.278-.011,3.707,3.707,0,0,0,.608-2.267,3.384,3.384,0,0,0-.619-2.113,1.968,1.968,0,0,0-1.644-.809A1.946,1.946,0,0,0,57,7.84,3.68,3.68,0,0,0,56.387,10.125Zm10.73,2.915a1.952,1.952,0,0,0,1.267-.439,1.546,1.546,0,0,0,.6-1.1h1.282a2.457,2.457,0,0,1-.469,1.3,3.087,3.087,0,0,1-1.154.981,3.329,3.329,0,0,1-1.527.366,3.265,3.265,0,0,1-2.574-1.08,4.3,4.3,0,0,1-.956-2.955V9.884a4.771,4.771,0,0,1,.425-2.058,3.236,3.236,0,0,1,1.219-1.4,3.464,3.464,0,0,1,1.879-.5,3.178,3.178,0,0,1,2.216.8A2.853,2.853,0,0,1,70.266,8.8H68.984A1.867,1.867,0,0,0,68.4,7.536a1.811,1.811,0,0,0-1.293-.494,1.9,1.9,0,0,0-1.6.743,3.491,3.491,0,0,0-.568,2.15v.256a3.422,3.422,0,0,0,.564,2.109A1.906,1.906,0,0,0,67.117,13.041Zm7.961,1.106a3.463,3.463,0,0,1-2.622-1.058,3.928,3.928,0,0,1-1.011-2.831v-.249A4.756,4.756,0,0,1,71.9,7.9a3.514,3.514,0,0,1,1.26-1.45,3.167,3.167,0,0,1,1.754-.524,2.968,2.968,0,0,1,2.4,1.018,4.408,4.408,0,0,1,.857,2.915v.564H72.8a2.817,2.817,0,0,0,.685,1.893,2.153,2.153,0,0,0,1.666.721,2.36,2.36,0,0,0,1.216-.293,3.055,3.055,0,0,0,.872-.776l.828.645A3.328,3.328,0,0,1,75.078,14.146Zm-.168-7.1a1.807,1.807,0,0,0-1.377.6,2.9,2.9,0,0,0-.688,1.674h3.97v-.1a2.581,2.581,0,0,0-.557-1.6A1.7,1.7,0,0,0,74.91,7.042ZM84.351,11.9a1,1,0,0,0-.414-.853,3.983,3.983,0,0,0-1.443-.524,6.822,6.822,0,0,1-1.633-.527,2.324,2.324,0,0,1-.894-.732,1.752,1.752,0,0,1-.289-1.011A2.056,2.056,0,0,1,80.5,6.6a3.218,3.218,0,0,1,2.106-.674,3.311,3.311,0,0,1,2.186.7,2.21,2.21,0,0,1,.839,1.78H84.27a1.223,1.223,0,0,0-.472-.959,1.77,1.77,0,0,0-1.19-.4,1.852,1.852,0,0,0-1.157.322,1.014,1.014,0,0,0-.417.842.822.822,0,0,0,.388.74,4.776,4.776,0,0,0,1.4.476,7.308,7.308,0,0,1,1.644.542,2.4,2.4,0,0,1,.934.758,1.864,1.864,0,0,1,.3,1.08,2.028,2.028,0,0,1-.85,1.7,3.564,3.564,0,0,1-2.2.641,3.991,3.991,0,0,1-1.685-.337,2.74,2.74,0,0,1-1.146-.941,2.268,2.268,0,0,1-.414-1.307h1.355a1.4,1.4,0,0,0,.546,1.08,2.117,2.117,0,0,0,1.344.4,2.185,2.185,0,0,0,1.234-.311A.956.956,0,0,0,84.351,11.9Zm2.761-1.934A4.681,4.681,0,0,1,87.57,7.87a3.415,3.415,0,0,1,1.274-1.436,3.469,3.469,0,0,1,1.864-.505,3.342,3.342,0,0,1,2.618,1.121,4.311,4.311,0,0,1,1,2.981v.1a4.722,4.722,0,0,1-.443,2.076,3.365,3.365,0,0,1-1.267,1.432,3.509,3.509,0,0,1-1.893.513,3.334,3.334,0,0,1-2.611-1.121,4.29,4.29,0,0,1-1-2.966Zm1.362.161a3.39,3.39,0,0,0,.612,2.117,2.072,2.072,0,0,0,3.278-.011,3.707,3.707,0,0,0,.608-2.267,3.384,3.384,0,0,0-.619-2.113,1.968,1.968,0,0,0-1.644-.809,1.946,1.946,0,0,0-1.619.8A3.68,3.68,0,0,0,88.474,10.125Zm-65.845,20a4.745,4.745,0,0,1-.828,2.915,2.653,2.653,0,0,1-2.241,1.106,2.906,2.906,0,0,1-2.271-.916v3.816H15.935V26.075h1.238l.066.879a2.791,2.791,0,0,1,2.3-1.025,2.7,2.7,0,0,1,2.26,1.077,4.8,4.8,0,0,1,.831,3Zm-1.355-.154a3.5,3.5,0,0,0-.571-2.117,1.84,1.84,0,0,0-1.567-.776A1.992,1.992,0,0,0,17.29,28.17v3.787a2,2,0,0,0,1.86,1.084,1.832,1.832,0,0,0,1.549-.773A3.822,3.822,0,0,0,21.274,29.972Zm6.365,4.175a3.463,3.463,0,0,1-2.622-1.058,3.928,3.928,0,0,1-1.011-2.831v-.249a4.756,4.756,0,0,1,.45-2.106,3.514,3.514,0,0,1,1.26-1.45,3.167,3.167,0,0,1,1.754-.524,2.968,2.968,0,0,1,2.4,1.018,4.408,4.408,0,0,1,.857,2.915v.564H25.361a2.817,2.817,0,0,0,.685,1.893,2.153,2.153,0,0,0,1.666.721,2.36,2.36,0,0,0,1.216-.293,3.055,3.055,0,0,0,.872-.776l.828.645A3.328,3.328,0,0,1,27.639,34.146Zm-.168-7.1a1.807,1.807,0,0,0-1.377.6,2.9,2.9,0,0,0-.688,1.674h3.97v-.1a2.581,2.581,0,0,0-.557-1.6A1.7,1.7,0,0,0,27.471,27.042Zm8.657.249a4.06,4.06,0,0,0-.667-.051,1.786,1.786,0,0,0-1.809,1.135V34H32.3V26.075h1.318l.022.916a2.11,2.11,0,0,1,1.89-1.062,1.384,1.384,0,0,1,.6.1Zm2.52-1.216.037.879a2.927,2.927,0,0,1,2.351-1.025A2.266,2.266,0,0,1,43.3,27.2a3,3,0,0,1,1.029-.923,3.039,3.039,0,0,1,1.5-.352q2.607,0,2.651,2.761V34H47.122V28.771a1.82,1.82,0,0,0-.388-1.271,1.71,1.71,0,0,0-1.3-.421,1.8,1.8,0,0,0-1.252.45,1.827,1.827,0,0,0-.579,1.212V34H42.236V28.807a1.512,1.512,0,0,0-1.692-1.729,1.813,1.813,0,0,0-1.824,1.135V34H37.366V26.075ZM55.413,34a2.846,2.846,0,0,1-.19-.835,3.023,3.023,0,0,1-2.256.981,2.8,2.8,0,0,1-1.923-.663,2.145,2.145,0,0,1-.751-1.681,2.24,2.24,0,0,1,.941-1.923,4.437,4.437,0,0,1,2.648-.685H55.2v-.623a1.522,1.522,0,0,0-.425-1.132,1.707,1.707,0,0,0-1.252-.421,1.976,1.976,0,0,0-1.216.366,1.079,1.079,0,0,0-.491.886H50.454a1.87,1.87,0,0,1,.421-1.146,2.874,2.874,0,0,1,1.143-.875,3.844,3.844,0,0,1,1.586-.322,3.133,3.133,0,0,1,2.146.685,2.47,2.47,0,0,1,.806,1.886v3.647a4.459,4.459,0,0,0,.278,1.736V34Zm-2.249-1.033a2.381,2.381,0,0,0,1.208-.33,1.994,1.994,0,0,0,.828-.857V30.155H54.138q-2.49,0-2.49,1.458a1.234,1.234,0,0,0,.425,1A1.633,1.633,0,0,0,53.164,32.967Zm6.8-6.892.044,1a2.888,2.888,0,0,1,2.373-1.143q2.512,0,2.534,2.834V34H63.557V28.756a1.824,1.824,0,0,0-.392-1.267,1.57,1.57,0,0,0-1.2-.41,1.956,1.956,0,0,0-1.157.352,2.387,2.387,0,0,0-.776.923V34H58.679V26.075Zm10.283,8.071a3.463,3.463,0,0,1-2.622-1.058,3.928,3.928,0,0,1-1.011-2.831v-.249a4.756,4.756,0,0,1,.45-2.106,3.514,3.514,0,0,1,1.26-1.45,3.167,3.167,0,0,1,1.754-.524,2.968,2.968,0,0,1,2.4,1.018,4.408,4.408,0,0,1,.857,2.915v.564H67.966a2.817,2.817,0,0,0,.685,1.893,2.153,2.153,0,0,0,1.666.721,2.36,2.36,0,0,0,1.216-.293,3.055,3.055,0,0,0,.872-.776l.828.645A3.328,3.328,0,0,1,70.244,34.146Zm-.168-7.1a1.807,1.807,0,0,0-1.377.6,2.9,2.9,0,0,0-.688,1.674h3.97v-.1a2.581,2.581,0,0,0-.557-1.6A1.7,1.7,0,0,0,70.076,27.042Zm6.108-.967.044,1A2.888,2.888,0,0,1,78.6,25.929q2.512,0,2.534,2.834V34H79.78V28.756a1.824,1.824,0,0,0-.392-1.267,1.57,1.57,0,0,0-1.2-.41,1.956,1.956,0,0,0-1.157.352,2.387,2.387,0,0,0-.776.923V34H74.9V26.075Zm8.833-1.919v1.919H86.5v1.047H85.017v4.921a1.1,1.1,0,0,0,.2.715.832.832,0,0,0,.674.238,3.281,3.281,0,0,0,.645-.088V34a3.951,3.951,0,0,1-1.04.146,1.687,1.687,0,0,1-1.37-.549,2.36,2.36,0,0,1-.461-1.56V27.123H82.219V26.075h1.443V24.156Zm6.35,9.99a3.463,3.463,0,0,1-2.622-1.058,3.928,3.928,0,0,1-1.011-2.831v-.249a4.756,4.756,0,0,1,.45-2.106,3.514,3.514,0,0,1,1.26-1.45,3.167,3.167,0,0,1,1.754-.524,2.968,2.968,0,0,1,2.4,1.018,4.408,4.408,0,0,1,.857,2.915v.564H89.089a2.817,2.817,0,0,0,.685,1.893,2.153,2.153,0,0,0,1.666.721,2.36,2.36,0,0,0,1.216-.293,3.055,3.055,0,0,0,.872-.776l.828.645A3.328,3.328,0,0,1,91.367,34.146Zm-.168-7.1a1.807,1.807,0,0,0-1.377.6,2.9,2.9,0,0,0-.688,1.674H93.1v-.1a2.581,2.581,0,0,0-.557-1.6A1.7,1.7,0,0,0,91.2,27.042ZM29.485,52.015l1.846-5.94h1.45l-3.186,9.148q-.74,1.978-2.351,1.978l-.256-.022-.505-.1v-1.1l.366.029a1.8,1.8,0,0,0,1.073-.278,2.014,2.014,0,0,0,.634-1.018l.3-.806-2.827-7.837h1.479Zm11.4,1.025a1.952,1.952,0,0,0,1.267-.439,1.546,1.546,0,0,0,.6-1.1h1.282a2.457,2.457,0,0,1-.469,1.3,3.087,3.087,0,0,1-1.154.981,3.329,3.329,0,0,1-1.527.366,3.265,3.265,0,0,1-2.574-1.08,4.3,4.3,0,0,1-.956-2.955v-.227a4.771,4.771,0,0,1,.425-2.058A3.236,3.236,0,0,1,39,46.427a3.464,3.464,0,0,1,1.879-.5,3.178,3.178,0,0,1,2.216.8,2.853,2.853,0,0,1,.941,2.073H42.749a1.867,1.867,0,0,0-.582-1.263,1.811,1.811,0,0,0-1.293-.494,1.9,1.9,0,0,0-1.6.743,3.491,3.491,0,0,0-.568,2.15v.256A3.422,3.422,0,0,0,39.27,52.3,1.906,1.906,0,0,0,40.881,53.041ZM45.2,49.964a4.681,4.681,0,0,1,.458-2.095,3.415,3.415,0,0,1,1.274-1.436,3.469,3.469,0,0,1,1.864-.505,3.342,3.342,0,0,1,2.618,1.121,4.311,4.311,0,0,1,1,2.981v.1a4.722,4.722,0,0,1-.443,2.076A3.365,3.365,0,0,1,50.7,53.634a3.509,3.509,0,0,1-1.893.513A3.334,3.334,0,0,1,46.2,53.026a4.29,4.29,0,0,1-1-2.966Zm1.362.161a3.39,3.39,0,0,0,.612,2.117,2.072,2.072,0,0,0,3.278-.011,3.707,3.707,0,0,0,.608-2.267,3.384,3.384,0,0,0-.619-2.113,1.968,1.968,0,0,0-1.644-.809,1.946,1.946,0,0,0-1.619.8A3.68,3.68,0,0,0,46.558,50.125Zm8.833-4.05.044,1a2.888,2.888,0,0,1,2.373-1.143q2.512,0,2.534,2.834V54H58.987V48.756a1.824,1.824,0,0,0-.392-1.267,1.57,1.57,0,0,0-1.2-.41,1.956,1.956,0,0,0-1.157.352,2.387,2.387,0,0,0-.776.923V54H54.109V46.075Zm8.833-1.919v1.919H65.7v1.047H64.224v4.921a1.1,1.1,0,0,0,.2.715A.832.832,0,0,0,65.1,53a3.281,3.281,0,0,0,.645-.088V54a3.951,3.951,0,0,1-1.04.146,1.687,1.687,0,0,1-1.37-.549,2.36,2.36,0,0,1-.461-1.56V47.123H61.426V46.075h1.443V44.156ZM68.757,54H67.4V46.075h1.355ZM67.292,43.973a.809.809,0,0,1,.2-.557.756.756,0,0,1,.6-.227.768.768,0,0,1,.6.227.8.8,0,0,1,.205.557.774.774,0,0,1-.205.549.782.782,0,0,1-.6.22.77.77,0,0,1-.6-.22A.782.782,0,0,1,67.292,43.973Zm4.915,2.1.044,1a2.888,2.888,0,0,1,2.373-1.143q2.512,0,2.534,2.834V54H75.8V48.756a1.824,1.824,0,0,0-.392-1.267,1.57,1.57,0,0,0-1.2-.41,1.956,1.956,0,0,0-1.157.352,2.387,2.387,0,0,0-.776.923V54H70.925V46.075Zm11.887,7.141a2.878,2.878,0,0,1-2.322.93,2.464,2.464,0,0,1-1.93-.736,3.186,3.186,0,0,1-.67-2.179V46.075h1.355v5.12q0,1.8,1.465,1.8a2.028,2.028,0,0,0,2.065-1.157V46.075h1.355V54H84.124Zm3.018-3.252a4.681,4.681,0,0,1,.458-2.095,3.415,3.415,0,0,1,1.274-1.436,3.469,3.469,0,0,1,1.864-.505,3.342,3.342,0,0,1,2.618,1.121,4.311,4.311,0,0,1,1,2.981v.1a4.722,4.722,0,0,1-.443,2.076,3.365,3.365,0,0,1-1.267,1.432,3.509,3.509,0,0,1-1.893.513,3.334,3.334,0,0,1-2.611-1.121,4.29,4.29,0,0,1-1-2.966Zm1.362.161a3.39,3.39,0,0,0,.612,2.117,2.072,2.072,0,0,0,3.278-.011,3.707,3.707,0,0,0,.608-2.267,3.384,3.384,0,0,0-.619-2.113,1.968,1.968,0,0,0-1.644-.809,1.946,1.946,0,0,0-1.619.8A3.68,3.68,0,0,0,88.474,50.125Z" transform="translate(-11458 -6353.664)" fill="#12263f"/>
    <g id="porta" transform="translate(-11333.264 -6286.419)">
      <path id="Trazado_150842" data-name="Trazado 150842" d="M67.993,58.579a1.09,1.09,0,0,1,.792,1.16c-.011,2.636,0,5.272-.007,7.909,0,.83-.358,1.176-1.194,1.176H3.787A3.681,3.681,0,0,1,.026,65.209c-.045-2.775-.019-5.554-.012-8.33,0-.618.246-.895.907-1.125a1.018,1.018,0,0,1,1.269.819,2.905,2.905,0,0,1,.054.734c0,1.09.009,2.179,0,3.268-.005.42.138.631.577.593.122-.011.246,0,.369,0H30.071a.846.846,0,0,0,.954-.958V45.292c0-.193.005-.387-.009-.58A1.527,1.527,0,0,0,29.7,43.284a5.129,5.129,0,0,0-.79-.031H4.342c-.141,0-.281,0-.422,0a1.56,1.56,0,0,0-1.672,1.691c-.007.211,0,.422,0,.633v6.062A1.551,1.551,0,0,1,1.69,53c-.234.174-.483.3-.769.1-.738-.28-.908-.526-.91-1.342q0-3.348,0-6.7a3.746,3.746,0,0,1,4.008-4.023q11.946-.006,23.891,0a.666.666,0,0,0,.741-.765c0-4.184-.007-8.368.009-12.552,0-.468-.068-.592-.575-.487a15.768,15.768,0,0,1-2.893.084c-.7.014-1.407.016-2.109,0-.323-.009-.427.1-.42.42.019.9,0,1.793.007,2.689a1.086,1.086,0,0,1-.557,1.106,1.111,1.111,0,0,1-1.265-.22c-1.49-1.173-2.992-2.332-4.471-3.519a2.041,2.041,0,0,0-1.384-.483c-3.551.024-7.1.014-10.653.012A3.994,3.994,0,0,1,.011,22.981q0-9.387,0-18.775A3.959,3.959,0,0,1,3.252.118,11.345,11.345,0,0,1,5.723.065c.343,0,.534.306.761.519a1.043,1.043,0,0,1-.895,1.607c-.454.05-.914.012-1.371.02A1.8,1.8,0,0,0,2.236,4.176q-.014,9.519,0,19.039A1.712,1.712,0,0,0,4.149,25.1c3.745.008,7.49.015,11.234-.008a2.843,2.843,0,0,1,1.935.679c.877.733,1.813,1.391,2.7,2.116.1.085.214.23.362.165s.1-.245.1-.377c.009-.369,0-.738.007-1.107A1.279,1.279,0,0,1,21.6,25.132c1.7-.045,3.408,0,5.113-.034.648-.012.6,0,.565-.657a42.1,42.1,0,0,1,0-5.109,3.616,3.616,0,0,1,1.418-2.674,1.1,1.1,0,0,0,.438-.953q0-5.193,0-10.385c-.015-.422,0-.842-.007-1.264a1.8,1.8,0,0,0-1.634-1.818,6.154,6.154,0,0,0-.79-.022H10.9a4.478,4.478,0,0,1-.841-.035.991.991,0,0,1-.806-1.4A1.306,1.306,0,0,1,10.573.038c5.537.02,11.075.05,16.611-.008a4.061,4.061,0,0,1,4.148,4.148c-.038.942-.007,1.887-.007,2.844.256-.027.287-.228.377-.361A14.451,14.451,0,0,1,42.244.161,37.78,37.78,0,0,1,48.354.084,4.94,4.94,0,0,1,52.666,3.6a.643.643,0,0,0,.757.543A6.42,6.42,0,0,1,60.03,9.585a16.423,16.423,0,0,1,.073,2.527c.008,1.265.011,2.531,0,3.8a.783.783,0,0,0,.358.744,3.412,3.412,0,0,1,1.525,2.757c.045,1.616.032,3.234.005,4.849a3.272,3.272,0,0,1-.915,2.19,1.139,1.139,0,0,0-.311.849q.01,7.278-.005,14.555a.6.6,0,0,0,.516.687,10.342,10.342,0,0,1,7.176,7.41,17.417,17.417,0,0,1,.314,5.082c0,.412-.318.644-.658.821-.917.208-1.452-.181-1.493-1.126-.036-.841.035-1.686-.019-2.525a8.063,8.063,0,0,0-4.357-6.924,16,16,0,0,0-3.942-1.306c-1.014-.281-2.028-.576-3.054-.821-.522-.124-.6-.1-.781.408-.831,2.259-1.725,4.5-2.546,6.758a3.743,3.743,0,0,1-1.261,1.9,3.008,3.008,0,0,1-4.453-.994c-.456-.772-.795-1.606-1.2-2.405-.074-.146-.089-.393-.3-.374-.16.014-.2.228-.268.368-.42.85-.768,1.737-1.265,2.548a3,3,0,0,1-5.186-.092,16.514,16.514,0,0,1-.937-2.29c-.7-1.821-1.394-3.643-2.075-5.471-.142-.379-.342-.462-.723-.358-.919.25-.9.235-.9,1.179.016,2.9.005,5.8.007,8.7v7.383c0,.8.07.868.872.875.281,0,.564-.012.844.012a.969.969,0,0,1,1,.963,15.875,15.875,0,0,1-.142,3.987c-.069.269,0,.407.288.415.141,0,.281,0,.422,0h20.2a.7.7,0,0,0,.8-.78v-2.9a2.808,2.808,0,0,1,.055-.681,1.168,1.168,0,0,1,2.108-.527,1.545,1.545,0,0,1,.139.821c0,1.123,0,2.247,0,3.37,0,.672.024.695.668.7,1.772.015,3.546-.018,5.318-.018.606,0,.658-.054.661-.666.007-1.948,0-3.9,0-5.846a2.384,2.384,0,0,1,.119-.934.975.975,0,0,1,1.3-.629Z" transform="translate(0 0)" fill="#010101"/>
      <path id="Trazado_150843" data-name="Trazado 150843" d="M6.8,328.626c.821-.082,1.132-.424,1.133-1.269q0-3.374,0-6.75c0-1.372.631-2.01,1.987-2.01q12.577,0,25.154,0c1.376,0,2,.621,2,1.986,0,5.256,0,10.511.011,15.767,0,.449-.137.553-.565.552q-14.027-.016-28.055,0c-.45,0-.556-.135-.548-.562.027-1.283.014-2.566.008-3.849A1.051,1.051,0,0,0,6.8,331.282a6.726,6.726,0,0,0,0-2.655Z" transform="translate(-5.881 -275.526)" fill="#a1aab7"/>
      <path id="Trazado_150844" data-name="Trazado 150844" d="M34.668,29.014c-.761.246-.945.495-.95,1.3,0,.492,0,.984,0,1.476,0,.128.077.308-.093.372-.126.047-.215-.093-.308-.166-1.08-.841-2.166-1.675-3.234-2.532a1.874,1.874,0,0,0-1.255-.433q-5.719.018-11.437.007a1.98,1.98,0,0,1-2.263-2.254q0-9.357,0-18.712a2,2,0,0,1,2.268-2.258h.949c1.063,0,1.428-.445,1.225-1.484a.875.875,0,0,0,.961.422,11.144,11.144,0,0,1,1.257,0,.633.633,0,0,0,.554-.218c.007.961.331,1.283,1.3,1.283q8.326,0,16.651,0A1.931,1.931,0,0,1,42.382,7.6c.022.489-.008.981-.015,1.472-.326.945-.814,1.824-1.077,2.8a15.041,15.041,0,0,0-.556,4c0,.931-.005,1.863,0,2.794a1.444,1.444,0,0,1-.393,1.05,5.521,5.521,0,0,0-1.511,4.037c.051,1.579-.072,3.162.069,4.741.03.329-.1.472-.454.465-1.09-.018-2.179-.009-3.268,0-.169,0-.351-.064-.507.059Z" transform="translate(-13.078 -3.746)" fill="#f4fbfe"/>
      <path id="Trazado_150845" data-name="Trazado 150845" d="M443.936,334.161a8.113,8.113,0,0,1,3.9,4.418,9.637,9.637,0,0,1,.55,3.925c-.009.368,0,.737,0,1.1.007.925.411,1.3,1.34,1.228a.555.555,0,0,0-.316.572c.031.552.019,1.106,0,1.657a.569.569,0,0,0,.2.5c-.883.026-1.229.376-1.23,1.26,0,2.159-.013,4.318.011,6.477.005.43-.128.512-.527.508q-2.922-.028-5.844,0c-.442.005-.611-.077-.593-.568.041-1.192.012-2.386.013-3.58a1.977,1.977,0,0,0-.165-.918c.473.046.449.437.475.745.054.648.016,1.3.02,1.951,0,.527.005,1.054,0,1.582,0,.349.138.515.5.514.738-.005,1.476-.007,2.214,0,.372,0,.561-.142.545-.527-.007-.176,0-.351,0-.527q0-7.858,0-15.716a9.232,9.232,0,0,0-.972-4.118c-.074-.153-.205-.295-.127-.489Z" transform="translate(-381.623 -288.986)" fill="#b3e3f7"/>
      <path id="Trazado_150846" data-name="Trazado 150846" d="M273.585,319.511a7.372,7.372,0,0,1,1.244,4.106c.041,5.606.011,11.214.026,16.822,0,.47-.1.652-.607.625a21.342,21.342,0,0,0-2.371,0c-.529.03-.644-.164-.629-.656.035-1.141.015-2.285.009-3.427,0-.33.009-.675-.33-.881a1.087,1.087,0,0,0-1.3-.251,1.148,1.148,0,0,0-.558,1.164c.008,1.23-.005,2.462.008,3.692,0,.314-.038.46-.418.458q-10.705-.018-21.411-.014c-.15,0-.475.108-.315-.257a6.02,6.02,0,0,0,.3-2.49c0-.545.015-1.091-.007-1.634a.966.966,0,0,0-1.026-1.033,6.677,6.677,0,0,0-1.053,0c-.5.053-.654-.115-.653-.633.02-4.624.012-9.247.012-13.871,0-.633,0-1.265,0-1.9,0-.3-.028-.6-.039-.895-.009-.265-.3-.562-.082-.765.183-.17.519-.18.791-.253.967-.258.958-.253,1.319.706q1.3,3.443,2.612,6.883a2.828,2.828,0,0,0,2.544,1.982,2.711,2.711,0,0,0,2.49-1.1,12.94,12.94,0,0,0,1.071-2.049c.246-.481.473-.972.71-1.457.274.047.274.283.353.438.45.892.865,1.8,1.33,2.686a2.863,2.863,0,0,0,5.143-.231c1-2.544,1.96-5.1,2.926-7.663.105-.28.2-.462.554-.364,1.994.553,3.994,1.086,5.986,1.641a4.012,4.012,0,0,1,1.375.626Z" transform="translate(-211.272 -274.336)" fill="#d3eefa"/>
      <path id="Trazado_150847" data-name="Trazado 150847" d="M251.524,22.741c0,1.424-.009,2.848.007,4.272a.962.962,0,0,1-.329.784,10.685,10.685,0,0,1-2.6,2.2,3.915,3.915,0,0,1-1.676.392c-1.336,0-2.671,0-4.008,0a12.214,12.214,0,0,0-6.956,2.078c-.111.074-.218.241-.358.172-.173-.085-.084-.284-.087-.431-.009-.633,0-1.265-.005-1.9-.005-.879-.408-1.275-1.3-1.28-.6,0-1.2-.009-1.793,0-.274.005-.408-.058-.422-.376a12.5,12.5,0,0,1,3.868-9.936,12.212,12.212,0,0,1,7.517-3.428,47.367,47.367,0,0,1,5.109-.069,3.074,3.074,0,0,1,3.036,3.146c.016,1.459,0,2.919,0,4.377Z" transform="translate(-200.617 -13.133)" fill="#ab5a3d"/>
      <path id="Trazado_150848" data-name="Trazado 150848" d="M269.711,136.259c-.211.022-.239-.183-.339-.288a2.024,2.024,0,1,0-2.928,2.792,1.985,1.985,0,0,0,2.911-.1.9.9,0,0,1,.765-.333c1.543.014,3.085.005,4.638.005.018.274-.195.353-.322.47a9.843,9.843,0,0,1-15.72-3.684,12.521,12.521,0,0,1-.687-4.76c.018-1.578,0-1.587,1.261-2.536a10,10,0,0,1,6.158-1.967c1.125,0,2.251-.028,3.374.005a6.707,6.707,0,0,0,5.325-2.191c.615-.653.641-.638,1.06.168.3.573.579,1.156.867,1.734a3.687,3.687,0,0,1,.272,1.59c-.014,2.071-.019,4.142,0,6.212.008.775-.114,1.538-.133,2.31-.008.31-.1.606-.506.6-2-.02-4,.046-6-.034Z" transform="translate(-223.144 -106.553)" fill="#fcd0a3"/>
      <path id="Trazado_150849" data-name="Trazado 150849" d="M16.148,472.39a1.6,1.6,0,0,1-.963-1.5c-.018-.438.008-.879-.011-1.317-.012-.285.11-.381.374-.351a1.545,1.545,0,0,0,.158,0H44.894c.088,0,.176.007.264.011a.442.442,0,0,1,.354.4,5.468,5.468,0,0,1-.192,2.29.859.859,0,0,1-.906.631q-13.725-.016-27.448,0a3.3,3.3,0,0,1-.815-.161Z" transform="translate(-13.122 -405.78)" fill="#808b95"/>
      <path id="Trazado_150850" data-name="Trazado 150850" d="M226.715,211.932c0-2.074.008-4.148-.007-6.221,0-.4.068-.561.53-.5a9.189,9.189,0,0,0,1.579.012.414.414,0,0,1,.488.342,11.776,11.776,0,0,0,5.394,7.052.713.713,0,0,1,.323.719c0,1.054-.02,2.109.008,3.163a.634.634,0,0,1-.558.737c-2.07.531-4.134,1.087-6.2,1.618-.26.066-.5.237-.81.124a.973.973,0,0,1-.767-1.1c.061-1.985.022-3.971.022-5.956Z" transform="translate(-196.046 -177.46)" fill="#934e37"/>
      <path id="Trazado_150851" data-name="Trazado 150851" d="M381.715,212.119c0,2.178-.009,4.354.008,6.532,0,.4-.1.466-.47.364q-3.7-1.014-7.4-1.989a.407.407,0,0,1-.368-.468c.008-1.194.012-2.389,0-3.583a.553.553,0,0,1,.341-.525,11.835,11.835,0,0,0,3.395-3.1.9.9,0,0,1,.523-.316,2.431,2.431,0,0,0,1.862-2.542c.005-.45-.2-1.026.1-1.318s.868-.08,1.319-.1c.7-.026.7-.018.7.718v6.322Z" transform="translate(-322.988 -177.304)" fill="#934e37"/>
      <path id="Trazado_150852" data-name="Trazado 150852" d="M310.43,283.8a3.655,3.655,0,0,1-3.268,3.427,3.7,3.7,0,0,1-4-2.72,16.573,16.573,0,0,1-.12-3.779c.176-.145.364-.073.552-.032a14.416,14.416,0,0,0,6.1.036c.707-.147.78-.1.769.6C310.454,282.155,310.518,282.978,310.43,283.8Z" transform="translate(-262.033 -242.702)" fill="#fcd0a3"/>
      <path id="Trazado_150853" data-name="Trazado 150853" d="M159.683,59.317c.149-.185.358-.111.541-.111,1.053-.007,2.108,0,3.161,0,.224,0,.447,0,.406-.319-.218-1.7-.042-3.4-.1-5.1a5.815,5.815,0,0,1,.087-.99,5.5,5.5,0,0,1,1.514-2.938,1.012,1.012,0,0,0,.3-.744c-.015-1.229-.062-2.462.007-3.688a12.606,12.606,0,0,1,1.671-5.942.929.929,0,0,1,.1-.116c.008,1.336.022,2.67.024,4.006,0,2.214,0,4.43.005,6.645a.687.687,0,0,1-.311.657,3.583,3.583,0,0,0-1.583,3c-.031,1.476-.009,2.954-.005,4.43a2.836,2.836,0,0,0,.051.523c.132.7.135.7-.608.7l-5.271-.018Z" transform="translate(-138.093 -34.049)" fill="#dfeaee"/>
      <path id="Trazado_150854" data-name="Trazado 150854" d="M394.076,55.289c-.826.258-.965.45-1.077,1.584-.4-.75-.735-1.418-1.11-2.066a3.532,3.532,0,0,1-.453-1.9c.031-2.26.023-4.521,0-6.781,0-.443.128-.575.562-.553a4.217,4.217,0,0,1,1.971.423,1.357,1.357,0,0,1,.268.942c.009,2.566.005,5.133,0,7.7a.906.906,0,0,1-.166.649Z" transform="translate(-338.517 -39.414)" fill="#ab5a3d"/>
      <path id="Trazado_150855" data-name="Trazado 150855" d="M345.166,317.842a.9.9,0,0,1-.794-.533q-.825-1.7-1.655-3.4c-.109-.223-.111-.356.185-.461a5.639,5.639,0,0,0,3.757-4.184c.072-.285.153-.357.443-.26a11.154,11.154,0,0,0,1.369.36c.365.073.439.2.3.564-.63,1.613-1.23,3.236-1.841,4.857q-.444,1.178-.887,2.356A.942.942,0,0,1,345.166,317.842Z" transform="translate(-296.327 -267.198)" fill="#f4fafe"/>
      <path id="Trazado_150856" data-name="Trazado 150856" d="M276.817,317.833c-.415-.02-.662-.314-.825-.748-.86-2.293-1.734-4.58-2.6-6.87-.272-.722-.264-.725.481-.917.389-.1.783-.189,1.167-.312.243-.078.3.018.349.23a5.62,5.62,0,0,0,3.764,4.235c.284.1.295.212.172.46-.56,1.128-1.1,2.266-1.648,3.4a.9.9,0,0,1-.86.523Z" transform="translate(-236.292 -267.192)" fill="#f4fafe"/>
      <path id="Trazado_150857" data-name="Trazado 150857" d="M418.2,136.671c0-1.123.012-2.248-.007-3.372-.005-.349.105-.466.45-.445.42.027.844-.009,1.264.015a1.593,1.593,0,0,1,1.639,1.59c.047,1.509.047,3.021,0,4.529a1.61,1.61,0,0,1-1.647,1.586c-.539.023-1.226.178-1.583-.084s-.1-.983-.111-1.5c-.02-.772-.005-1.545-.005-2.319Z" transform="translate(-361.603 -114.893)" fill="#e28086"/>
      <path id="Trazado_150858" data-name="Trazado 150858" d="M221.21,136.745c0,1.142-.011,2.285.007,3.426,0,.323-.1.434-.42.415-.4-.024-.808.005-1.211-.011a1.673,1.673,0,0,1-1.721-1.7q-.047-2.16,0-4.322a1.66,1.66,0,0,1,1.714-1.7c.385-.018.775.016,1.159-.011.365-.026.489.1.483.47-.022,1.141-.008,2.283-.008,3.426Z" transform="translate(-188.391 -114.888)" fill="#e28086"/>
      <path id="Trazado_150859" data-name="Trazado 150859" d="M410.3,58.01v-7.1a12.156,12.156,0,0,0-.1-2.194,4.274,4.274,0,0,1,2.617,3.868c.028,1.668,0,3.338.014,5.007,0,.314-.089.441-.418.431-.7-.022-1.4-.012-2.108-.015Z" transform="translate(-354.745 -42.135)" fill="#934e37"/>
      <path id="Trazado_150860" data-name="Trazado 150860" d="M310.745,273.04c-.007-.844-.027-1.686-.015-2.529.007-.415-.074-.575-.541-.433a8.682,8.682,0,0,1-2.117.323,16.025,16.025,0,0,1-3.849-.227c-.291-.057-.576-.137-.864-.206V268.2a16.371,16.371,0,0,0,2.809.541,11.306,11.306,0,0,0,4.061-.412c.414-.122.6-.109.587.407-.028,1.246,0,2.493,0,3.739A1,1,0,0,1,310.745,273.04Z" transform="translate(-262.348 -231.943)" fill="#fbb883"/>
      <path id="Trazado_150861" data-name="Trazado 150861" d="M344.45,151.43c1.9-.008,3.8-.035,5.694-.012.53.007.641-.2.671-.675.187-2.966.046-5.934.1-8.9a9.776,9.776,0,0,0-.1-1.094q.775,1.46,1.548,2.92a.34.34,0,0,1,.053.147c.035,2.505.214,5.032-1.068,7.346-.087.157-.154.3-.377.3-2.172,0-4.346.068-6.519-.034Z" transform="translate(-297.884 -121.723)" fill="#fbb883"/>
      <path id="Trazado_150862" data-name="Trazado 150862" d="M22.38,472.449a20.281,20.281,0,0,0,3.461.108q12.139.012,24.276,0c1.107,0,1.163-.039,1.42-1.149a9.453,9.453,0,0,0,.057-1.835c.005-.147-.142-.189-.205-.291l1.526-.007c.187,0,.366.008.36.264a10.108,10.108,0,0,1-.049,1.68,1.7,1.7,0,0,1-1.652,1.424c-.35.016-.7.019-1.053.019H23.487a1.576,1.576,0,0,1-1.106-.218Z" transform="translate(-19.354 -405.839)" fill="#5e6c75"/>
      <path id="Trazado_150863" data-name="Trazado 150863" d="M102.935,362.357a3.723,3.723,0,1,1-3.706-3.727,3.707,3.707,0,0,1,3.706,3.727Z" transform="translate(-82.58 -310.147)" fill="#010101"/>
      <path id="Trazado_150864" data-name="Trazado 150864" d="M67.123,42.577a9.142,9.142,0,1,1-9.139-9.167,9.142,9.142,0,0,1,9.139,9.167Z" transform="translate(-42.237 -28.895)" fill="#010101"/>
      <path id="Trazado_150865" data-name="Trazado 150865" d="M113.862,375.532a1.691,1.691,0,1,1-3.382-.011,1.671,1.671,0,0,1,1.674-1.661A1.651,1.651,0,0,1,113.862,375.532Z" transform="translate(-95.544 -323.318)" fill="#f3fafd"/>
      <path id="Trazado_150866" data-name="Trazado 150866" d="M70.991,62.874a7.111,7.111,0,1,1,7.023-7.6A7.158,7.158,0,0,1,70.991,62.874Z" transform="translate(-55.165 -42.075)" fill="#f6e266"/>
      <path id="Trazado_150867" data-name="Trazado 150867" d="M89.146,117.1a5.418,5.418,0,0,1-3.9-1.547,1.012,1.012,0,0,1-.12-1.5.951.951,0,0,1,1.451-.016,3.668,3.668,0,0,0,5.1,0,.957.957,0,0,1,1.453.015,1.015,1.015,0,0,1-.111,1.5,5.373,5.373,0,0,1-3.865,1.547Z" transform="translate(-73.376 -98.346)" fill="#020201"/>
      <path id="Trazado_150868" data-name="Trazado 150868" d="M86.071,77.4a1.362,1.362,0,1,1-1.39-1.355,1.369,1.369,0,0,1,1.39,1.355Z" transform="translate(-72.079 -65.768)" fill="#050502"/>
      <path id="Trazado_150869" data-name="Trazado 150869" d="M132.141,77.4a1.363,1.363,0,0,1-1.364,1.375,1.365,1.365,0,0,1-.023-2.729A1.369,1.369,0,0,1,132.14,77.4Z" transform="translate(-111.911 -65.768)" fill="#050502"/>
    </g>
  </g>
</svg>
